<?xml version="1.0" encoding="utf-8"?>
<!-- Generator: Adobe Illustrator 25.2.0, SVG Export Plug-In . SVG Version: 6.00 Build 0)  -->
<svg version="1.1" id="Layer_1" xmlns="http://www.w3.org/2000/svg" xmlns:xlink="http://www.w3.org/1999/xlink" x="0px" y="0px"
	 viewBox="0 0 724.3 893.3" style="enable-background:new 0 0 724.3 893.3;" xml:space="preserve">
<style type="text/css">
	.st0{fill:#161516;}
	.st1{fill:#7DBCFF;}
	.st2{fill:#61A9FB;}
	.st3{fill:#4D2205;}
	.st4{fill:#7DBCF8;}
	.st5{fill:#FAD0B4;}
	.st6{fill:#68AFF2;}
	.st7{fill:#6AADF1;}
	.st8{fill:#3D1B06;}
	.st9{fill:#DAAD90;}
	.st10{fill:#FF22D0;}
	.st11{fill:#010101;}
	.st12{fill:#F301B4;}
	.st13{fill:#4E2405;}
	.st14{fill:#DBAE91;}
	.st15{fill:#644831;}
	.st16{fill:#F9CFB3;}
	.st17{fill:#644931;}
</style>
<g>
	<path class="st0" d="M58.9,893.3c-0.3-6.5-1.6-12.8-2.5-19.2c-2-15.3-4.2-30.6-6.2-45.9c-1.9-14.5-3.7-29-5.4-43.5
		c-1.9-16.1-4-32.1-4.2-48.3c-0.2-10.4,0.3-20.8,0-31.2c-0.4-11.3-0.7-22.5-0.2-33.8c0.6-14.7,2.9-29.1,7.9-42.9
		c10.6-29.5,31.2-48.5,61.2-57.3c11.4-3.4,23.1-5.2,35-5.3c0.3-0.1,0.7-0.2,1-0.2c9,0.2,7-1.5,11.3,6.8c2.3,4.6,5,9,7.2,13.6
		c0.6,1.2,1.5,2.2,1.1,3.6c-0.8,1.6-2.3,2.4-3.7,3.3c-11.9,7.4-23.6,15.1-35.5,22.5c-0.5,0.3-1,0.6-1.6,0.9
		c9.2-1.7,18.5-2.7,27.8-3.9c5.2-0.7,10.2-2.6,15.6-1.7c2.2,1.4,0.9,3.2,0.3,4.7c-4.4,11-10.7,20.9-16.8,30.9
		c-8.7,14.1-17.8,27.9-24.7,43c-4.4,9.5-8,19.2-8.3,29.9c-0.4,14,6,24.5,16,33.5c5.2,4.6,10.7,8.8,15.4,14
		c14.5,16.2,18.8,35.1,14.4,56.2c-1.8,8.8-4.3,17.5-5.7,26.4c-1.5,8.8-0.5,10.2,8.6,9.9c14-0.5,27.7-2.9,40.6-8.4
		c4.1-1.8,7.1-5.3,10.4-8.2c10.3-8.9,18-19.6,22.6-32.4c4.1-11.6,2.9-22.8-3.2-33.6c-3.4-6.1-6.4-12.3-8.6-19
		c-5-14.9-1.1-27.7,10.9-37.6c7.7-6.4,16.3-11.4,24.5-17c12.9-8.9,26.2-17.4,35-31c3.8-5.9,5.4-12.5,5.8-19.4
		c0.2-3.5-1.9-6.9-0.6-10.6c0.4-1.1,0-2.5,1.6-2.9c1.6,0.6,2.2,2.1,3.1,3.4c9.2,13.9,16.5,28.9,24.3,43.6
		c7.9,14.9,15.6,29.9,22.9,45.2c6.7,14.2,13.3,28.4,19.5,42.8c7.2,16.7,14.1,33.5,19.9,50.8c4.2,12.4,8,24.9,10.2,37.8
		c1.6,9.3,1.1,18.9,1,28.3c0,0.9-0.3,1.6-0.9,2.3C290.1,893.3,174.5,893.3,58.9,893.3z"/>
	<path class="st0" d="M555.7,550.5c22.7,3.8,44.4,10.7,64.9,21.2c11.9,6.1,23.1,13.2,32.8,22.5c3.7,3.6,7.1,7.4,10.3,11.5
		c6.8,8.7,10,18.7,11.1,29.5c1.2,11.4,0.6,22.7,0.5,34.1c-0.1,10.8-0.2,21.6,1.6,32.3c1.3,8,2.8,16,4.3,24
		c3.1,16.8,6.1,33.7,9.3,50.5c0.5,2.8,0.7,5.7,0.8,8.5c0.6,30.4,1.5,60.9,1.5,91.3c0,3.4,0,6.7-0.1,10.1c-0.1,2.7-0.2,3-2.9,3.7
		c-4.5,1.3-9.2,1.7-13.8,2.2c-3.9,0.4-7.9,0.6-11.8,0.9c-0.6,0-1.2,0-1.6,0.5c-50.9,0-101.7,0-152.6,0c-0.7-0.8-0.9-1.7-0.8-2.7
		c0.7-11.5,0.5-23-0.1-34.5c-0.8-17.6-0.5-35.2-1-52.8c-1.2-41.6-0.1-83.2-0.7-124.7c-0.1-8.4-0.6-16.8-0.7-25.1
		c-0.1-4.6,1.2-9,0.4-13.6c-0.4-2.3,1.4-3.4,3.1-4.4c8.7-5.2,17.6-9.8,26.7-14.1c22.9-11,46.5-19.8,71.2-25.9
		c10.6-2.6,21.3-4.8,32.9-6.3c-2.8-1.3-4.9-2.2-7-3.1c-23.2-9.8-46.3-19.7-69.4-29.6c-3.1-1.3-6.3-2.2-9.4-3.7
		c-0.7-0.3-1.6-0.9-1.2-1.9C554.3,550.3,555.2,550.4,555.7,550.5z"/>
	<path class="st1" d="M555.7,550.5c-0.5,0.1-0.9,0.2-2,0.4c30.5,12.4,60.1,25.5,90.5,38.3c-1.8,0.9-3.3,0.9-4.7,1.1
		c-26.5,3.7-52,10.9-76.8,20.8c-17.2,6.8-33.8,14.7-49.8,23.9c-1,0.6-2,1.3-3.1,1.8c-1.2,0.6-1.7,1.4-1.7,2.8c0.1,8.7,0,17.5,0,26.2
		c0.2,39.6,0.4,79.3,0.6,118.9c0.1,17.4,0.3,34.8,0.8,52.1c0.4,13.4,1,26.7,1.2,40.1c0.1,5.4,0,10.8-0.7,16.1c-18.9,0-37.9,0-56.8,0
		c-1.1-0.9-1.5-2.1-1.7-3.4c-2.5-22.9-5.8-45.6-10.2-68.2c-2.1-10.9-4.6-21.8-8-32.5c0.7,8.1,1.5,16,2.4,23.9
		c1.2,10.6,1.9,21.2,3.1,31.8c1.5,12.8,2.9,25.7,3.2,38.6c0,1.9,0.1,3.8,0.4,5.7c0.2,1.4,0.3,2.9-0.7,4.1c-12,0-24,0-36,0
		c0.2-6.6,0.5-13.2,0.1-19.8c-0.5-7.9-2.2-15.6-4-23.3c-1.7-7.1-3.9-14.1-6-21c-2.1-6.6-4.2-13.2-6.9-19.6c-1.5-3.6-2.6-7.4-4-11.1
		c-1.3-3.4-2.9-6.8-4.3-10.2c-2.9-6.8-5.7-13.7-8.8-20.4c-4.5-10-9.1-20-13.8-29.9c-5.2-11-10.7-21.9-16.1-32.9
		c-4.9-10-10.2-19.8-15.4-29.6c-3.8-7.2-7.5-14.4-11.6-21.5c-2.8-5-6.1-9.7-9.2-14.6c-1.3-0.8-1.5-2.1-1.5-3.4
		c0.3-7.4-1.1-14.8-0.8-22.2c0.4-10.2,4.2-18.2,14-22.7c7.3-3.4,15-6.4,21.2-11.9c0.4-0.4,1.1-0.5,1.7-0.5c1.2,1,1.3,2.5,1.6,3.9
		c1.7,10.4,3.6,20.8,6.5,30.9c2.9,10.4,6.9,20.4,10.6,30.5c9.4,25.2,21.1,49.4,33.3,73.3c1.5,2.8,3.9,5.2,3.9,8.7
		c-2.3,2.2-4.4,2.4-5.7-0.3c-3.9-7.9-11.7-11.8-17.8-17.5c-0.9-0.9-2-1.7-3.3-2c-5.8-1.4-8.6-6-11.4-10.6c-5.5-9.1-3.2-19-2.8-28.7
		c0-0.6,0.4-1.1-0.2-1.8c-2.9,4.5-5,9.2-6.2,14.3c-0.9,3.8-0.9,7.7,2.3,10.7c0.6,0.6,1.2,1.3,1.3,2.1c0.1,5.4,4.4,8.5,6.9,12.6
		c5,8.3,12.4,14.5,18.1,22.2c4.5,6,10.1,11.2,15.7,16.2c1.6,1.5,3.1,2.9,4.2,4.9c2,3.5,5,6.1,8.7,8.6c-0.8-3.7-1.5-6.7-3.7-9.5
		c-2.4-3-5.4-5.9-5-10.4c0.1-0.9-0.8-1.7-1.4-2.4c-2.1-2.5-2-4.7,0.4-6.9c1.9-0.3,2.4,1.3,3,2.5c5.3,9.9,11.3,19.5,17,29.2
		c3,5.1,3.2,5,7.3,0.8c4.9-5,7.3-11.5,10.6-17.5c6.4-11.5,13.3-22.8,20.3-33.9c2.1-3.4,3.3-7.5,6.8-10c1.8-0.6,2.2-2,2.3-3.7
		c0.3-2,1.3-3.7,2.9-4.9c1.2-0.4,0.7-1.6,1-2.4c4.3-6.2,3.9-13,3-20c-0.7-5.7-0.5-11.5-0.5-17.2c-0.2-12.8-2-25.6-0.5-38.4
		c0.7-6.1,0.5-12.2,0.7-18.3c0.5-13.3,1.4-26.5,1.7-39.8c0.3-11.1,1.2-22.2,1.4-33.4c0-1.2,0.2-2.4,0.7-3.5c0.3-0.6,0.7-1.3,1.4-1.6
		c10.8-5,17-14.7,23.8-23.7c1.7-2.3,2.7-5.4,5.7-6.6c2.1,1.4,3.8,3.2,5.3,5.3c13.2,18.8,26.6,37.5,39.5,56.4
		C551.3,549.6,553.4,549.8,555.7,550.5z"/>
	<path class="st2" d="M441.7,893.3c-1.5-6.6-0.3-13.3-1.2-20c-0.5-3.7-0.5-7.6-1-11.4c-0.8-6-0.2-12.2-1.9-18.1
		c-0.7-2.6-0.6-5.5-0.7-8.2c-0.2-4.4-0.6-8.8-1.1-13.2c-0.7-5.8-1.1-11.6-1.8-17.4c-0.3-2.4-0.4-4.7-0.7-7.1
		c-0.5-4.1-1.1-8.1-1.3-12.8c1.7,1.4,2.1,2.8,2.6,4.2c2.6,8.2,4.7,16.5,6.4,24.9c1.4,7,2.9,14,4,21c0.9,5.5,2,11,2.5,16.6
		c0.6,5.2,1.6,10.3,2.2,15.5c0.6,5,1.1,9.9,2.1,14.8c0.7,3.6,0.1,7.4,1.4,11C449.4,893.3,445.5,893.3,441.7,893.3z"/>
	<path class="st3" d="M504.7,485.3c-2.8,4-5.6,8-8.5,11.9c-3.3,4.5-6.9,8.9-11.1,12.7c-3,2.8-6.2,5.3-10.3,6.3
		c-1.7-3.7-1.5-7.8-1.5-11.6c0.1-14.5-1-29-0.9-43.5c0-4.1,1-7.7,3.2-11.2c6.8-10.8,14.5-20.8,21.4-31.5
		c6.2-9.6,11.5-19.6,15.6-30.3c6.1-16,6.5-32.3,2.8-48.8c-2.4-10.6-4.6-21.3-7.6-31.8c-5.5-19.6-18.7-31.9-37.5-38.7
		c-3.8-1.4-7.7-1.4-11.7-0.9c-9.6,1.3-18.6,4.6-27.3,8.6c-1.7,0.8-4,2.9-5.4,0.5c-1.2-2.2,1.2-3.8,3-5c6.3-3.8,12.8-7.1,20.2-9.8
		c-5.9-1.5-11.4-2.8-17-3.9c-11.4-2.4-22.8-4.9-34.4-5.7c-13.3-0.9-23.8-7.3-33.6-15.7c-13.3-11.4-23.1-25.5-31.5-40.8
		c-1.3-2.4-2.7-4.8-4.1-7.2c-1.8-3.2-2.5-3.4-5.7-1.6c-6.1,3.5-11.6,7.7-16.8,12.3c-22.6,19.9-34.8,45-37.7,74.9
		c-2.5,26.4,1.6,52.1,9,77.4c5.2,17.6,12.2,34.6,20.2,51.1c6.8,13.9,14.7,27.2,23.9,39.7c7.8,10.5,15,21.4,24.2,30.8
		c1.7,1.7,1.8,3.7,1.4,6c-2.4,15.2-4,30.5-3.7,45.8c0.2,13,1.3,26.1,1.3,39.1c0,5.4-2.3,9.9-4.8,14.4c-4.5,4.6-10,7.7-15.9,10.1
		c-2.7,1.2-5.4,2.5-8.1,3.9c-7.2,3.8-10.8,9.9-11.6,17.8c-0.5,5-0.4,10,0.3,15c0.4,3.2,0.4,6.4,0.5,9.7c0,1.4,0.1,2.9,0.3,4.3
		c-0.7,3.4-2.1,6.8-0.2,10.3c0.7,1.4,0.4,3.1,0.2,4.6c-1.1,8.7-4,16.5-9.8,23.4c-5.6,6.7-12.3,12-19,17.3c-3.6,2.9-7.5,5.5-11.4,8
		c-5.3,3.5-10.7,6.8-15.9,10.3c-4.9,3.2-9.5,6.8-13.6,11.1c-8.2,8.7-10.7,18.9-7.4,30.4c2.2,7.4,5.5,14.3,9.2,21
		c3.3,6.1,5.7,12.4,5.9,19.3c0.2,6.9-1.5,13.5-4.3,19.8c-4.7,10.4-11.4,19.4-19.7,27.1c-3.2,3-6.6,5.9-10.1,8.6
		c-1.8,1.3-4.1,1.9-6.2,2.7c-5.9,2.2-12.1,3.6-18.3,4.7c-6.5,1.1-12.9,2.1-19.5,2.2c-2.2,0-4.3-0.5-6.4-0.7
		c-1.9-0.2-2.3-1.2-2.4-2.9c-0.2-3.9,0.3-7.6,1.1-11.4c1.6-7.6,3.6-15.1,5.1-22.7c1.2-6.3,2.3-12.7,1.7-19.2
		c-0.7-7-2.6-13.8-5.4-20.3c-2.8-6.7-7.3-12.3-12.1-17.6c-2-2.2-4.3-4.2-6.7-5.9c-2.8-2.1-5.2-4.6-7.9-6.8
		c-7.8-6.7-13.3-15.2-15.1-25.4c-1-5.8-0.7-11.9,0.6-17.8c1.7-7.4,4.4-14.4,7.7-21.2c5.7-11.9,12.6-23.1,19.5-34.3
		c6.6-10.8,13.8-21.3,19.1-32.8c1.2-2.5,2.2-5,3.4-7.5c0.4-1,0.7-1.8-0.5-2.4c1.6-5.9,0-11.4-1.9-17c-0.5-1.4-1.3-2.8-0.9-4.4
		c-1.1-3.4-2.9-6.4-4.6-9.5c-2.2-3.8-4.2-7.7-6.1-11.7c-0.9-1.8-1.9-2.8-4.1-2.6c-1.8,0.1-3.6-0.1-5.3-0.2c2.4-1,5,0.3,7.4-0.5
		c0.1-0.2,0.3-0.5,0.2-0.6c-4-11.7-5.3-23.8-6.7-35.9c-2.5-21-3.1-42.1-2.1-63.2c0.8-17,2.5-33.9,4.7-50.8
		c4.6-34.4,11-68.5,16.6-102.7c4.8-28.9,10-57.7,16.7-86.3c6-25.7,13.1-51,23-75.5c8.4-20.8,18.4-40.8,31.7-59.1
		c12.6-17.3,27.4-32.4,45.7-43.7c9-5.5,18.6-9.9,28.6-13.2c10.1-3.3,20.3-6.4,30.5-9.5c11.7-3.5,23.7-5.6,35.8-7.1
		c0.4,0,0.7,0,1.1-0.1c10.4-3.3,21.2-2,31.8-1.8c8.5,0.1,17,0.8,25.4,1.7c21.7,2.2,40.3,10.7,55.7,26.3
		C504.9,58.3,516.3,75,526,92.8c16.9,31.2,28.4,64.3,36.5,98.7c4.4,18.8,7.5,37.8,9.4,57c1.8,17.9,2.2,35.9,1.2,53.9
		c-1.3,25.2-5.9,49.9-13.7,73.9c-5.3,16.2-12.1,31.7-20.3,46.7c-8.4,15.3-16.2,31-24.9,46.2C511,474.6,507.8,479.9,504.7,485.3z"/>
	<path class="st4" d="M164.5,589.7c2.9,5.6,4.2,11.6,4.5,17.9c0.1,1.5,0,2.9-1.7,3.5c-5.5,0.8-11.1,1.5-16.6,2.3
		c-2.2,0.3-4.5,0.8-6.7,1c-7.4,0.6-14.6,2.4-21.9,3.1c-0.2-0.8,0.3-1.2,0.8-1.5c10.8-6.3,21.1-13.4,31.8-19.9
		C157.9,594,161.2,591.9,164.5,589.7z"/>
	<path class="st5" d="M340,578.7c-0.1-2.1,0.8-4,1.8-5.8c1.6-3,2-6,2-9.3c0.1-11.5-0.7-23-1.1-34.5c-0.3-11.4,0.3-22.8,1.5-34.1
		c0.6-5.7,1.4-11.4,2.3-17.1c0.2-1.2,0.2-2.3-0.9-3.3c-10-9.6-17.4-21.3-25.6-32.4c-18-24.4-30.3-51.6-40.3-79.9
		c-5.9-16.8-10.1-34-12-51.7c-2.3-20.5-1.6-40.9,4.5-60.9c8.7-28.5,26.8-49.4,52.1-64.4c2.2-1.3,2.3-1.3,3.6,0.8
		c2.1,3.6,4.2,7.3,6.2,10.9c7.8,13.9,16.8,26.8,28.8,37.5c3,2.7,6.3,5.2,9.5,7.6c7.4,5.7,15.8,8.4,24.9,9.3
		c18.3,1.7,36.1,6.1,54,10.2c-0.4,1.4-1.5,1.3-2.4,1.6c-7.2,2.7-14,6.1-20.7,10c-1.6,0.9-2.5,2.1-2.2,4.2c1.4,0,2.5-0.9,3.6-1.4
		c9-4.1,18.1-7.7,27.9-9c5.6-0.8,10.9-0.2,16.2,2.1c11.8,5.2,21.9,12.4,28.5,23.7c3.8,6.5,6.4,13.4,7.9,20.7c2,9.4,4.3,18.7,6.3,28
		c4.3,20.1,1.2,39-7.7,57.3c-5.6,11.5-12.4,22.1-19.7,32.6c-4,5.7-7.9,11.4-11.8,17.2c-3.1,4.5-4.5,9.2-4.3,14.8
		c0.8,17.6,1.1,35.2,1.6,52.8c-0.2,1.2-0.6,2.4-0.6,3.5c0.1,7.4-0.6,14.8-0.9,22.2c-0.4,12.8-0.9,25.6-1.6,38.3
		c-0.6,10.4-1.1,20.8-1.5,31.2c-0.2,5.3-0.6,10.5-0.4,15.8c0.6,13.5,1.1,27,1.4,40.5c0,1.4,0.4,2.8,0.5,4.3
		c0.2,5.4,0.7,10.8-3.4,15.2c-0.5,0.6-0.6,1.5-0.9,2.3c0,0.5-0.3,0.7-0.8,0.8c-1.2,1.5-2.5,3-2.8,4.9c-0.6,1.3-1.1,2.7-2.2,3.7
		c-1.8,1.3-2.7,3.4-3.8,5.2c-7,11.5-14.1,23-21,34.6c-2.1,3.5-3.6,7.3-5.5,10.8c-2.7,5.1-5.5,10.1-10,13.9c-2.2,1.9-2.4,2-4-0.5
		c-5.3-8.1-10-16.6-14.9-24.9c-2-3.5-3.6-7.3-6.1-10.5c-0.6-0.3-0.8-0.8-0.7-1.4c-0.8-2.5-2.3-4.7-3.5-7
		c-10.5-20.3-20.7-40.8-29.2-62.1c-4.3-10.7-8-21.5-12.1-32.3c-4.5-12-6.8-24.6-9.3-37C341,584.8,340.5,581.7,340,578.7z"/>
	<path class="st6" d="M395.7,726.3c0.5,0.3,0.7,0.8,0.7,1.4c-0.1,0.7-0.4,1.4-0.8,2c-1.1,1.4-0.9,2.6,0.3,3.8
		c1.7,1.7,3.3,3.5,2.1,6.3c-0.3,0.6,0.3,1.1,0.7,1.6c1.5,2,2.8,4.2,4.5,6c2.6,2.8,2.4,6.6,3.8,9.8c0.2,0.4,0,1-0.4,1.3
		c-0.5,0.3-0.9,0-1.3-0.4c-3.4-3.1-7.5-5.6-9.5-10.1c-0.7-1.6-2.4-2.6-3.6-3.9c-3.9-3.9-8.2-7.4-11.4-11.9c-0.5-0.7-1.2-1.1-1.9-1.6
		c-1.2-0.8-2.2-1.8-2.9-3.1c-1.3-2.6-3.1-4.8-5.2-6.8c-4.1-4-8.3-8-10.7-13.3c-0.4-0.8-1.2-1.5-1.9-2.1c-2.6-2.2-4-5.4-5.9-8
		c-0.7-1-1.4-2.2-0.7-3.7c0.5-1-0.3-1.9-1-2.5c-4.1-3.3-3.9-7.8-2.6-12c1.1-3.7,1.6-7.8,4.5-10.8c0.5-0.6,0.8-1.5,0.8-2.3
		c0-0.8,0.4-1.4,0.9-1.9c0.5-0.5,1.1-1,1.9-0.5c0.5,0.4,0.7,0.9,0.5,1.6c-2.1,6.7-0.7,13.6-1.1,20.3c-0.1,2.5,0.2,4.8,1.9,6.7
		c0.5,0.5,0.8,1.2,1,1.9c1,4.3,4.6,6.8,7.3,9.8c0.9,0.9,2,1.8,3.5,1.3c0.8-0.3,1.3,0,1.9,0.5c4.6,3.8,9,7.8,13.9,11.3
		c2.4,1.7,4.1,4.5,5.5,7.4C391.8,727.3,392.4,727.5,395.7,726.3z"/>
	<path class="st7" d="M458.7,719.4c1.1-0.1,1.8-1,2.9-0.6c0.2,1.2-0.8,2-1.6,2.4c-1.7,1-2.8,2.6-3.8,4.2c-1.4,2.3-2.5,4.9-4.7,6.7
		c-0.3,0.3-0.6,0.8-0.7,1.2c-0.8,3.8-3.6,6.3-6.1,9c-1.5,1.6-3,3.1-3.9,5.1c-0.4,1-1.1,1.8-1.8,2.7c-0.6,0.8-1.4,1.7-2.4,1.1
		c-1.1-0.7-0.1-1.8,0.4-2.5c1.5-2.6,2.9-5.2,3.8-8c1.1-3.3,3.6-5.8,6-8.3c1.4-1.5,2.8-2.9,4.9-4.9c-2.6,0.2-3.8,3.4-6.3,1.4
		c3.8-1.8,5.1-5.3,7-8.5c1.8-3.1,2-7.3,5.9-9c0.4-0.2,0.9-0.6,1-1c1.6-4.9,6.1-7.2,9.4-10.6c3-3,5.2-6.6,7.4-10.1
		c1.7-2.7,1.2-5.9,0.6-8.8c-0.8-4-0.2-7.9-0.5-11.8c-0.1-1,0.1-2.1,1.3-2.3c1.1-0.2,1.8,0.7,2.1,1.6c1.6,4.2,1.8,8.5,1.4,12.9
		c-0.6,6.9-4.1,12.7-7,18.7c-2.7,5.6-6.6,10.7-11.6,14.6C461,715.9,459.2,717,458.7,719.4c-1.4,1.7-3.3,3.5-4.4,4.4
		C455.3,722.8,457.5,721.3,458.7,719.4z"/>
	<path class="st7" d="M461.8,699c0.3-1.5,0.9-2.8,2.2-3.7C464.2,697.4,463.6,698.5,461.8,699z"/>
	<path class="st7" d="M466.8,690.4c0.1-0.4,0.4-0.7,0.8-0.8c0.4,0.3,0.8,0.7,0.4,1.1C467.5,691.1,467.1,690.8,466.8,690.4z"/>
	<path class="st8" d="M247.4,582c-0.4-8.7,1.8-17,3.9-25.3c3-11.8,7.2-23.3,11.5-34.7c5.8-15.2,12.4-30,18.6-45
		c1.4-3.5,2.5-7.1,2.5-10.7c0-3.5-0.3-7.1-0.8-10.7c-1.3-8.9-2.9-17.8-4.8-26.7c-1.9-8.7-4.1-17.4-6.3-26.1
		c-2.7-10.4-5.8-20.7-9.1-30.9c-3.8-11.7-7.8-23.4-13.8-34.2c-0.5-0.8-1-1.6-1.6-2.3c-0.8-0.9-1.1-1.9-0.6-3c0.4-0.9,0.6-2,1.6-2.2
		c1.1-0.3,1.7,0.7,2.2,1.5c4.9,7.4,9.7,14.8,14.1,22.4c3.8,6.5,7.6,13,11.4,19.5c0.7,1.1,1.2,2.3,1.9,3.5c0.5,0.9,0.7,1.8-0.3,2.5
		c-1.1,0.8-0.8,1.8-0.3,2.9c4.9,11.6,9.7,23.1,14.5,34.7c3.7,8.9,7.4,17.9,11.2,26.8c1.4,3.2,1.2,6.7,0.8,9.9
		c-0.9,6.1-2.1,12.2-3.2,18.3c-2.3,12.4-5.2,24.7-7.7,37.1c-1.6,8.1-3.7,16-5.6,24c-3.1,12.7-6.1,25.5-9.3,38.2
		c-2.4,9.4-4.7,18.8-7.7,27.9c-1.2,3.6-1.7,3.9-5.4,4c-0.6,0-1.2,0-1.8,0c-10.8,0.9-15.8-8.5-16-15.9
		C247.3,585.6,247.4,583.8,247.4,582z"/>
	<path class="st9" d="M350.7,478c11.7,8.6,24.4,14.1,38.2,16.4c7,1.2,14.2,1.3,21.4,0.5c12-1.4,23.2-5.2,33.9-10.8
		c5.5-2.9,10.8-6.1,15.7-10c0.4-0.4,0.8-0.9,1.5-0.5c0.4,0.5,0.1,0.9-0.2,1.3c-8.1,10.1-17.8,18.3-29.3,24.3
		c-6.3,3.4-13.1,5.4-20.3,6.5c-14.9,2.2-28-2.3-40.5-9.8c-7.1-4.3-13.3-9.7-19.1-15.6C351.6,479.7,350.9,479.3,350.7,478z"/>
	<path class="st10" d="M441.7,426.3c1.4,0,0.9,0.8,0.4,1.3c-2.2,2.5-4.4,5.1-6.8,7.4c-6.4,6.2-13.5,11.5-22.2,14.2
		c-11.7,3.7-22.5,1.8-32.4-5.3c-5.6-4-10.2-9.1-14.4-14.5c-0.3-0.4-0.4-0.8-0.6-1.2c0.6-0.5,1.2-0.5,1.8-0.5
		c19.6,7.5,39.6,9.5,60.1,3.7C432.4,430.1,436.8,427.6,441.7,426.3z"/>
	<path class="st11" d="M452.5,290.4c-9.7,0.5-16.4,5.8-22.9,12.3c0.1-1.5,0.9-2.1,1.5-2.8c4.4-5,9.3-9.3,15-12.7
		c5.1-3,10.3-4.1,16.2-2.8c10.1,2.4,18.9,6.6,25.2,15.3c3.6,4.9,8.8,7.2,15.2,8.1c-2.4,1.9-4.7,3.1-7.1,4.1c-3.8,1.7-7.5,3.6-11,6
		c-4.1,2.8-9,3.9-13.9,4.5c-3.8,0.4-7.7,0.4-11.5-0.1c-2.6-0.4-5.3-0.3-7.5-2.2c-3.4-3.1-6.6-6.2-7.7-10.9c-1.6-6.7,1-13.1,7.3-17.8
		C451.7,291.3,451.9,291,452.5,290.4z"/>
	<path class="st11" d="M365.9,306.5c-6.1-6.1-12.5-11.4-21.9-12.2c1.1,1,2.1,1.7,2.9,2.5c7.4,6.9,6.9,18-0.6,24.8
		c-3.3,3-6.8,4.1-11,4.1c-4.3,0-8.6,0.1-12.9-0.8c-4.6-1-9-2.6-12.7-5.6c-2.5-2-5.4-3.5-8.3-5c-2.5-1.3-5-2.6-7.4-4.6
		c0.9-0.8,1.7-0.6,2.5-0.7c5.1-0.9,9.5-3.2,12.8-7.3c7.6-9.4,18-13,29.6-14.1c2.4-0.2,4.8,0.5,7,1.4
		C354.4,292.8,360.6,299.1,365.9,306.5z"/>
	<path class="st12" d="M441.7,426.3c-4.4,3.2-9.6,4.7-14.7,6.4c-10.5,3.5-21.4,3.5-32.3,2.8c-8.9-0.6-17.6-2.9-25.9-6.3
		c-0.8-0.3-1.2-0.7-1.3-1.5c8-1.8,16-2.7,24.2-2.2c3.2,0.2,6.4,0.6,9.5,1.6c1.8,0.6,3.4,0.7,5.2-0.1c4.4-2,9.2-1.8,13.8-1.3
		c5.7,0.7,11.5,0.7,17.2,0.5C438.8,426.2,440.3,426.3,441.7,426.3z"/>
	<path class="st13" d="M364.4,283c-6.4-3.3-12.7-6.4-19.1-8.9c-6-2.3-12.2-4.2-18.6-5.4c-9.1-1.6-17.9-0.1-26.6,2.4
		c-4.1,1.2-8.2,2.8-12.1,4.4c-0.9,0.4-1.8,1.3-3.2,0.8c1.6-1.6,3.5-2.6,5.3-3.7c6.5-3.9,13.3-7.1,20.6-9.1
		c7.6-2.1,15.1-1.9,22.6,0.6c10.5,3.5,20.2,8.7,29.6,14.5C364.6,279.7,364.9,281,364.4,283z"/>
	<path class="st14" d="M418.7,383.8c-2.9,8.3-8.8,12.1-16.1,14.3c-0.8,0.2-1.6,0.1-2.5-0.2c-5.6-1.5-10.7-3.9-15.1-7.8
		c-2.3-2-4.9-3.8-6.9-6.2c-0.4-0.5-1.2-0.9-0.9-2c1.2-0.2,1.9,0.8,2.5,1.5c3.7,4.4,8.7,6.3,14.2,6.6c3.4,0.2,6.8-0.9,10.2-1.6
		c0.9-0.2,1.9-0.5,2.8-0.4c3.8,0.5,7-0.9,10-3.1C417.2,384.8,417.7,384.6,418.7,383.8z"/>
	<path class="st1" d="M362.2,703.1c-0.1,0.2-0.2,0.4-0.3,0.6c-0.2-0.1-0.5-0.1-0.6-0.3c-0.1-0.1,0.1-0.4,0.2-0.6
		C361.8,702.9,362,703,362.2,703.1z"/>
	<path class="st1" d="M459,719.4c-1.7,2.8-4,4.8-6.5,7C452.9,723.7,455.6,720.8,459,719.4z"/>
	<path class="st15" d="M474.1,306.1c0,8-5.6,13.6-13.4,13.7c-8.4,0.2-13.6-6.5-13.7-12.7c-0.2-8.3,6.1-14.5,13.9-14.6
		C466.6,292.3,474.7,297.8,474.1,306.1z"/>
	<path class="st16" d="M468.8,320.2c9.4-8.1,10.4-15.5,3-27.2c8.7,3,14.7,8.6,19.9,15.9C485.1,314.8,478.3,320.2,468.8,320.2z"/>
	<path class="st16" d="M327.3,323c-2.4,0.6-4.2,0-5.9-0.6c-6.3-2.1-11.3-6.1-15.9-10.7c-0.7-0.7-0.8-1.3-0.1-2.1
		c5.1-6,11.1-10.8,18.6-13.5c0.2-0.1,0.5,0,1.1,0.1c-3.7,4-6,8.4-5.6,13.7C319.9,315.4,322.8,319.5,327.3,323z"/>
	<path class="st17" d="M335.3,322.7c-8,0-13.2-5.3-13.1-13.3c0-7.7,5.7-13.4,13.4-13.4c7.4,0,13.4,6.1,13.3,13.6
		C348.8,317.2,343.1,322.8,335.3,322.7z"/>
	<path d="M461.7,315.5c-6.2,0.5-10.6-5-10.5-9.9c0.1-4.8,4.5-10,10.7-9.8c5,0.1,10.5,4.5,10.1,10.2
		C471.6,311.7,467.7,315.6,461.7,315.5z"/>
	<path d="M344.6,308.9c0.7,6-5.4,10.2-10.1,10.2c-4.6,0-10.1-3.8-10.3-9.8c-0.2-5.7,5.3-10.3,10.2-10.3
		C340.1,299.1,345.4,304.3,344.6,308.9z"/>
</g>
<path class="st0" d="M692.7,885.9L692.7,885.9l-0.3,7.4h-31.1C661.4,893.3,690.1,883.5,692.7,885.9z"/>
<path class="st8" d="M189.4,554c0.3-3.6,0.6-7.2,1-10.8"/>
<path class="st8" d="M445.6,51.7c-3.5-3.4-7.6-4.8-11.5-6.5c-0.9-0.4-1.8-0.9-2.7-1.3c-4-1.6-5.6-4.6-4.5-9
	c8.9,2.7,17.7,5.3,26.9,8.1C451.2,46.1,447,47.2,445.6,51.7z"/>
<path class="st8" d="M357.2,125.7c0,0,56,73.6,127.8,116.1C484.9,241.8,377.1,217.9,357.2,125.7z"/>
<path class="st8" d="M386,93.1c0,0,45.6,83.3,127.8,116.1C513.8,209.3,406,185.3,386,93.1z"/>
<path class="st8" d="M406.7,27.1c0,0,78.5,48.8,127.6,116.3C534.3,143.4,500.4,38.3,406.7,27.1z"/>
<path class="st8" d="M391,58.2c0,0,78.5,48.8,127.6,116.3C518.6,174.5,483.9,88.5,391,58.2z"/>
<path class="st8" d="M172.5,501.9c0,0,32.4-241.3,101.4-411.3C273.9,90.6,161.8,262.2,172.5,501.9z"/>
<path class="st8" d="M239.7,287.3c0,0,31.1-99.8,72.1-166C311.9,121.3,252.9,184.5,239.7,287.3z"/>
<path class="st8" d="M224.8,582.1c0,0-12.7-102.2,9.2-183.6C233.9,398.5,171.8,482.3,224.8,582.1z"/>
<path class="st8" d="M167.9,730.7c0,0,41.5-69.4,51.6-134.8C219.5,595.9,237.5,675.8,167.9,730.7z"/>
</svg>
