<?xml version="1.0" encoding="utf-8"?>
<!-- Generator: Adobe Illustrator 25.2.0, SVG Export Plug-In . SVG Version: 6.00 Build 0)  -->
<svg version="1.1" id="Layer_1" xmlns="http://www.w3.org/2000/svg" xmlns:xlink="http://www.w3.org/1999/xlink" x="0px" y="0px"
	 viewBox="0 0 697.5 439.7" style="enable-background:new 0 0 697.5 439.7;" xml:space="preserve">
<style type="text/css">
	.st0{fill:#FFFFFF;}
	.st1{fill:none;}
	.st2{font-family:'ArialMT';}
	.st3{font-size:12px;}
	.st4{enable-background:new    ;}
	.st5{font-family:'CaveatBrush-Regular';}
	.st6{font-size:79.2433px;}
</style>
<g>
	<g>
		<path class="st0" d="M91.2,225.9c2.2,0.1,4.3,0.3,6.5,0.3c86.7,0,173.3,0,260,0c2.2,0,4.3,0,6.9,0c0,2.8,0,5.3,0,8.1
			c-5,0.5-10,0.9-15.3,1.5c0,6.1,0,12,0,18.5c-3.8,0.2-7.2,0.3-11.2,0.5c0,57.1,0,114,0,171.2c-4.4,0-8.1,0-12.4,0
			c0-8.5,0-16.8,0-25.4c-64.7,0-128.7,0-193.6,0c0,8.5,0,16.8,0,25.4c-4.3,0-8,0-12.2,0c0-57,0-113.9,0-171.2c-4.2,0-7.8,0-12.1,0
			c0-6.5,0-12.6,0-18.9c-5.9,0-11.2,0-16.5,0C91.2,232.6,91.2,229.3,91.2,225.9z"/>
		<path class="st0" d="M603.2,187.9c-2.4,5.7-5.1,11.4-7.2,17.2c-12.2,32.4-24.5,64.8-36.4,97.4c-2.9,8-8.3,13-15.9,15.1
			c-10.3,2.9-20.9,4.5-31.3,7.1c-3.8,1-8.9-1.5-11.4,4.3c-0.5,1.2-4.9,0.7-7.7,1c0,11.2-0.1,22.3,0,33.4
			c0.2,12.5,0.3,12.3,12.6,16.1c15.6,4.8,31.1,9.8,46.6,14.8c1.3,0.4,3.2,1.9,3.1,2.9c-0.2,3.8,1.2,6.4,3.9,9.1
			c3.9,3.9,3.2,11.2-0.6,14.8c-4.6,4.5-10.4,4.7-15.2,0.5c-4.9-4.3-5.6-10.5-1.6-15.4c1-1.2,2.6-2,4-2.9c-0.2-0.5-0.4-1-0.5-1.6
			c-17.3-5.4-34.7-10.8-52.8-16.4c0,5.8-0.2,10.7,0.1,15.7c0.1,1.2,1.4,2.4,2.4,3.3c5.5,5,6,11.7,1.3,16.7c-4.4,4.6-11.6,4.8-16,0.5
			c-4.6-4.6-4.2-11.7,0.7-16.9c1.2-1.3,2.1-3.3,2.3-5.1c0.3-4.3,0.1-8.6,0.1-13.8c-18.1,5.5-35.3,10.7-51.7,15.7
			c2,4.5,4.5,8.2,5.1,12.1c0.8,5-3.6,9.6-8.9,11c-4.1,1.1-9.6-1.7-12-6.2c-2.4-4.4-1.4-10,2.2-13.5c1.2-1.2,3.1-2.8,2.9-4
			c-0.8-5.5,2.4-6.4,6.7-7.6c17.4-5.1,34.6-10.5,51.9-16c1.6-0.5,3.8-2.6,3.8-4.1c0.2-13.8,0-27.7-0.2-41.5c0-0.5-0.3-0.9-0.6-1.9
			c-1.7,0-3.5,0-5.3,0c-0.8,0-2.3-0.1-2.3-0.4c-1.3-5.6-6.1-3.3-9.3-4c-10.8-2.3-21.6-4.3-32.4-6.4c0.1-0.6,0.1-1.2,0.2-1.8
			c11.7-3.5,23.4-7,35.1-10.4c10.2-2.9,20.3-6.4,30.7-8.3c8-1.4,16.5-1.2,24.7-0.8c7.3,0.3,14.5,1.9,21.8,2.5
			c1.6,0.1,4.4-1.1,4.9-2.4c7.1-18.4,13.9-36.9,20.8-55.4c0.3-0.7,0.3-1.6,0.4-2.4c-0.4-0.4-0.9-0.8-1.3-1.2
			c-0.9,1.4-1.6,2.9-2.8,4.1c-3.9,4.3-7.7,8.8-12.2,12.4c-2.4,1.9-6.3,2.1-9.5,3c-0.5-3.3-2-6.8-1.3-9.8c2.8-12.1,5.7-24.2,9.5-36
			c8.3-25.5,18.2-50.4,31-73.9c2.1-3.8,5.1-7.1,7.8-10.7c5,2.7,6.7,6.5,7.5,10.9c2.6,13.3-0.7,26.1-3.4,39c-0.2,1.1-0.5,2.2-0.7,3.3
			c2.2,1.4,4.3,2.7,6.3,4C603.2,185.9,603.2,186.9,603.2,187.9z"/>
		<path class="st0" d="M363.4,249.3c5.9,13,11.2,24.7,16.4,36.5c5.6,12.7,11.2,25.4,16.5,38.2c1.4,3.4,2.2,7.3,2.5,11
			c1.2,14.8,2.1,29.7,3.1,44.5c0.6,7.9,1.7,15.8,1.9,23.7c0.3,11.5-9,20.9-19.8,21.5c-13.3,0.8-22.6-9.4-23.5-21.1
			c-1.2-15.5-2.7-30.9-3.9-46.4c-0.8-10.1-1.3-20.1-2.1-30.2c-1.2-14.6-2.9-29.2-3.7-43.9c-0.5-8.7-3-18,3.7-25.7
			C357,254.6,360,252.3,363.4,249.3z"/>
		<path class="st0" d="M342.5,169.6c4.8,0.8,14.1,2.4,23.3,4c16,2.8,32,5.8,48.1,8.4c1.6,0.3,4.2-1.1,5.3-2.6
			c13.2-15.8,26.3-31.8,39.4-47.8c1.4-1.7,2.8-3.3,4.3-4.9c5.2-5.2,12.4-5.6,18-1c5.4,4.5,6.5,12,2,17.8
			c-6.7,8.7-13.8,17.1-20.8,25.5c-9.4,11.4-19.1,22.6-28.3,34.2c-4.7,5.8-10.4,7.2-17.3,5.9c-18.1-3.3-36.2-6.4-54.3-9.7
			c-9-1.6-18.1-3.2-27.1-5c-7-1.4-12.3-7.7-11.4-13.4C324.6,175.4,328.3,168.3,342.5,169.6z"/>
		<path class="st0" d="M337.7,210.5c0,2.1,0,3.8,0,6.2c-32.9,0-65.7,0-98.8,0c0-2.1,0-4,0-6.2C271.7,210.5,304.4,210.5,337.7,210.5z
			"/>
		<path class="st0" d="M360.2,131.9c2.2,1.6,4,2.9,6.1,4.4c-6.2,8.7-11.9,17.4-18.4,25.5c-1.3,1.6-5.4,1-8.3,1.4
			c-0.2-0.4-0.4-0.9-0.6-1.3C346,152.1,352.9,142.3,360.2,131.9z"/>
		<path class="st0" d="M379.9,209.4c-6.5,2.2-12.1,4.5-17.9,6c-8,2-14.3-2.9-16-12C357,205.3,367.9,207.3,379.9,209.4z"/>
		<path class="st0" d="M317.8,192.4c2.2,1.5,3.8,2.5,5.8,3.8c-3.1,2.6-6,5-10,8.3C315.2,199.9,316.4,196.4,317.8,192.4z"/>
	</g>
	<g>
		<path class="st0" d="M556.1,83.7c0,0.2,0,0.5,0,0.7c-0.5,0.7-0.8,1.6-1.5,2c-2,1.3-4.1,2.5-6.3,3.4c-3.6,1.5-7.4,2-11.2,1.3
			c-5-0.9-8.9-3.5-11.8-7.7c-5.2-7.5-10.5-15.1-15.8-22.5c-3.4-4.7-6.8-9.3-10.6-13.7c-2.4-2.8-5.3-5.3-8.2-7.5
			c-6-4.4-12.3-8.5-19.7-10.3c-2.1-0.5-4.3-0.8-6.6-0.6c1,1.5,1.9,3,2.9,4.4c3.1,4.6,5.4,9.6,5.9,15.2c0.4,4.2-0.2,8.4-1.5,12.5
			c-0.9,2.7-1.8,5.4-2.5,8.2c-0.7,2.7-1.1,5.5-1.4,8.2c-0.2,2-0.5,4.2,0.8,6c2.1,2.9,4.4,5.7,6.6,8.6c1.8,2.2,3.6,4.5,5.5,6.6
			c0.8,0.9,1.2,2.1,2.7,2.3c5.3,0.9,9.8,3.4,13.7,7c3.1,2.8,5.6,6.1,7.4,9.7c1.8,3.5,3.2,7.2,4.6,10.9c1.1,2.7,1.4,5.6,1.7,8.5
			c0.4,3.6,0.2,7.2-0.4,10.8c-0.9,5-2.2,9.9-3,14.9c-0.6,4-1.1,8.1-1.2,12.1c-0.1,4.7,0.1,9.4,0.5,14.1c0.2,3.4,0.6,6.7,1.2,10.1
			c1.3,6.9,3,13.7,5.2,20.4c2.7,8.2,6.2,16.1,9.6,24c2.1,4.9,4,9.8,4.6,15.2c0.5,4,0.4,7.9-0.9,11.7c-1.5,4.4-4,8-7.6,11
			c-2.8,2.3-5.7,4.3-9.1,5.4c-6.8,2.4-13.7,4.5-20.6,6.5c-7.5,2.2-15.1,4.3-22.6,6.5c-5.9,1.7-11.8,3.4-17.7,5.1
			c-7.7,2.2-15.3,4.3-23,6.5c-3.9,1.1-7.9,2.2-11.8,3.4c-3.3,0.9-6.6,1.9-9.8,2.9c-0.2,0-0.5,0-0.7,0c-1.2-0.4-1.9-1.2-2.4-2.4
			c-2.3-5.3-4.5-10.6-6.8-15.8c-1.8-4.2-3.8-8.4-5.6-12.7c-2.5-5.7-4.9-11.3-7.4-17c-1.3-3-2.6-6-3.9-9c-1.7-3.9-3.4-7.7-5-11.6
			c0-0.2,0-0.3,0-0.5c0.3,0,0.6,0,0.8,0c2.9-0.3,5.7-0.7,8.6-0.9c2-0.2,4.1-0.3,6.1-0.5c3-0.3,6-0.6,9-0.9c1.9-0.2,3.8-0.3,5.7-0.5
			c2.9-0.3,5.8-0.6,8.7-0.9c1.9-0.2,3.8-0.3,5.7-0.5c3.1-0.3,6.1-0.6,9.2-0.9c1.8-0.2,3.7-0.3,5.5-0.5c2.9-0.3,5.7-0.6,8.6-0.9
			c2-0.2,4-0.3,6-0.5c2.8-0.3,5.5-0.7,8.3-0.9c2-0.2,2-0.1,2-2.1c0-0.2,0-0.5,0-0.7c-0.2-3.2-0.4-6.4-0.7-9.6
			c-0.2-2.5-0.4-5-0.8-7.4c-0.6-3.9-1.4-7.9-2.1-11.8c-0.7-3.9-1.4-7.8-2.2-11.7c-0.5-2.6,0.1-4.8,1.8-6.8c1.5-1.8,3.1-3.7,4.6-5.6
			c3-3.7,6-7.5,9.1-11.2c2.5-3,5-5.9,7.4-8.9c2.9-3.5,5.8-7,8.7-10.6c2.2-2.8,4.5-5.6,6.5-8.5s2.9-6.4,2.9-9.9
			c-0.1-3.5-1.2-6.8-3-9.9s-4.2-5.6-7.5-7.2c-3-1.5-6.2-1.9-9.5-1.9c-5.4,0-9.8,2.2-13.5,6.1c-2.2,2.3-4.2,4.9-6.3,7.4
			c-2.6,3.2-5.3,6.4-7.9,9.6c-2.1,2.5-4.2,5-6.3,7.5c-2.5,3.1-5,6.2-7.6,9.2c-2,2.5-4.1,4.9-6.1,7.4c-2.6,3-5,6.2-7.7,9.1
			c-3,3.2-7.4,3-10.8,0.5c0.2-0.4,0.4-0.7,0.7-1.1c4.9-6.7,9.8-13.4,14.8-20.1c5.5-7.3,11-14.6,16.6-21.9c3.6-4.8,7.2-9.6,10.8-14.4
			c0.8-1.1,1.7-2.1,1.1-3.9c-0.9-2.7-2.2-5.2-4.5-6.9c-2.7-1.9-4.3-2.1-6.3,0.6c-2.4,3.2-4.9,6.4-8,9c-2,1.7-4,3.3-6.5,4.1
			c-1.5,0.5-2.9,0.5-4.3-0.2c-1.9-0.9-3-2.4-3.4-4.4c-0.2-1.1-0.7-1.9-1.8-2.2c-0.8-0.2-1.7-0.2-2.6-0.3c-1.9,0-2.6-0.6-2.6-2.5
			c0-2.1-0.1-1.7-1.9-1.8c-2.3-0.1-3-0.5-3.2-2.8c-0.2-1.8-0.8-2.6-2.4-2.9c-0.8-0.1-1.7,0-2.5,0c-2.2,0-3.5-1-3.7-2.9
			c-0.1-1,0.3-2,0.4-3c0.6-3.7,1.3-7.4,1.9-11.1c0.2-1.6,0.2-3.4-1-4.7c-1.9-2-3.9-3.9-6-5.8c-0.7-0.7-1.7-1.1-2.5-1.6
			c-2.2,2.3-0.2,4.1,0.2,6.1c-1.4-1-2.7-1.9-3.8-3.2c-1-1.2-1.7-2.7-2.5-4c0.4,3,0.7,6-0.7,8.9c-2.7-2.2-5-8.1-5.1-12.7
			c-0.1-7.8,2.2-14.6,9.5-19c-4.2-0.8-7.1,1.3-10.2,3c0.3-0.5,0.8-0.8,1.1-1.2c2.2-2.1,4.7-3.5,7.6-4.2c2.3-0.5,3.8-1.8,4.4-4
			c0.3-1.2,0.8-2.5,1.3-3.6c2.4-5.4,6.3-9.7,10.8-13.5c5.2-4.4,11.3-7.1,17.8-8.9c3.6-1,7.3-1.4,11-1.8c3.5-0.3,7,0,10.4,0.4
			c3.7,0.4,7.2,1.6,10.7,3c0.7,0.3,1.3,0.4,1.3,1.4c0,0.2,0.3,0.5,0.5,0.6c1,0.4,2,0.7,3,1c0.2,0.1,0.6-0.2,0.8-0.5
			c2.7-4.2,5.6-8.3,9.5-11.5c2.4-2,4.9-3.8,7.9-4.8c1.6-0.6,3.2-1,4.8-1.4c1.7,0,3.4,0,5,0c0,0.1,0.1,0.2,0.1,0.2
			c3.8,0.5,7.1,2.1,10.1,4.4c3.4,2.5,6.6,5.2,9,8.7c2,2.7,3.9,5.5,5.5,8.4c2.6,4.6,5,9.3,7.2,14c2.4,5.2,4.8,10.4,8.1,15.1
			c3.1,4.5,6.5,8.9,9.9,13.3c3.3,4.3,6.7,8.5,10.9,11.8c1.8,1.4,3.7,2.6,5.7,3.6C552.5,83,554.3,83.2,556.1,83.7z M434.1,17.3
			c0,0.1,0,0.2,0,0.3c4.7,0.4,9.5,0.9,14.2,1.3c0-0.1,0-0.2,0-0.3C443.7,16.8,439,16.1,434.1,17.3z M387.3,68
			c-1.2,3.6-0.9,4,1.9,3.5C388.6,70.4,388,69.3,387.3,68z"/>
	</g>
</g>
<g>
	<g>
		<path class="st0" d="M-1.7,247.1c0.2-6,0.4-12,0.5-18c0.1-4.8,0.4-9.7-0.1-14.5c-0.4-4.8,2-7.7,5.6-10.1
			c6.5-4.3,13.9-4.7,21.3-3.8c7,0.9,13.6,3.1,18.9,8.2c0.5,0.5,1.6,0.7,2.4,0.6c16.7-3.4,33.3-7.2,50.1-10.2
			c17.1-3.1,34.4-5.8,51.6-8c16.1-2.1,32.3-3.7,48.6-4.8c20.4-1.3,40.9-1.7,61.4-0.3c12.6,0.9,25.2,1.6,37.8,2.9
			c12.7,1.3,25.4,3.2,38.1,5.1c14.6,2.2,29.2,4.6,43.8,6.8c11.3,1.7,22.6,3.5,33.9,5.1c9.7,1.4,19.5,2.5,29.2,3.6
			c10.5,1.1,21,2.2,31.5,3.1c9.5,0.8,19.1,1.5,28.6,1.8c18.7,0.6,37.5,1.2,56.3,1c21-0.2,42-1.2,63-2c10.2-0.4,20.3-1.2,30.5-1.8
			c1.6-0.1,3,0.1,3.6-2.2c0.4-1.4,2.2-2.6,3.6-3.5c9.8-6.3,20.2-7.7,31.1-3.2c1.4,0.6,2.7,1.5,3.9,2.5c2.5,2.1,3.9,4.6,3.9,8.2
			c-0.2,9.1,0,18.2,0.1,27.3c0,1.1,0.2,2.2,0.3,3.2c0,25.5,0,51,0,76.5c-0.2,3.1-0.3,6.2-0.6,9.2c-0.1,1-0.6,2.1-1.2,2.8
			c-9.6,9.2-23.2,10.8-34.3,3.4c-3.8-2.5-7.3-2.9-11.4-2.7c-11.7,0.8-23.4,1.8-35.1,2.1c-25.6,0.7-51.1,1.5-76.7,1.4
			c-17-0.1-34-1.2-51-2.5c-15.3-1.1-30.6-2.5-45.8-4.6c-17.8-2.4-35.5-5.4-53.2-8.4c-24.8-4.3-49.6-8.9-74.5-13.4
			c-21.6-3.8-43.4-6.3-65.3-6.9c-16.4-0.4-33,0.1-49.4,0.9c-13.1,0.7-26.1,2.2-39,3.9c-12.5,1.7-25,3.6-37.3,6.3
			c-25.4,5.6-50.7,11.8-76,17.9c-1.3,0.3-2.5,1.3-3.5,2.1C30.6,343,13.1,344-0.3,332.3c-0.6-0.5-0.8-1.7-0.9-2.6
			c-0.3-3.8-0.4-7.6-0.6-11.4C-1.7,294.8-1.7,270.9-1.7,247.1z M651.8,219.8c-9.5,0.6-18.7,1.3-27.9,1.7c-18.6,0.8-37.3,1.8-55.9,2
			c-18.7,0.3-37.5,0-56.3-0.5c-13.4-0.4-26.7-1.2-40.1-2.3c-12.1-0.9-24.3-2.2-36.4-3.6c-13.1-1.5-26.1-3.2-39.2-5.1
			c-14.5-2.1-29-4.7-43.6-6.9c-20.2-2.9-40.4-5.9-60.7-8.3c-14.2-1.6-28.4-2.7-42.7-3.1c-24.9-0.8-49.9-0.3-74.7,2.6
			c-17.8,2-35.6,4-53.2,6.8c-18.4,2.9-36.6,6.7-54.8,10.2c-6.3,1.2-12.5,2.8-18.9,4.2c0.4,14.6,0.8,29.1,1.2,43.6c1.3,0,2.6,0,4.1,0
			c-0.3-11.2-0.6-22.3-0.9-33.3c0.2,0,0.4,0,0.7,0c0.7,11,1.5,22,2.2,33.3c12.2-2.3,24.1-4.6,36-6.9c0.1,0.3,0.2,0.6,0.2,0.9
			c-0.3,0.2-0.5,0.4-0.8,0.5c-11.1,3.2-22.3,6.5-33.4,9.6c-1.6,0.5-2.6,0.9-1.3,3c11.4-2.8,22.9-5.5,34.4-8.3
			c0.1,0.4,0.2,0.7,0.3,1.1c-11.6,3.8-23.3,7.6-35.7,11.6c2,11.8,4,23.8,6.1,36.1c-1.8,0.5-4.1,1.1-6.5,1.8
			c-0.4-12.9-0.8-25.5-1.1-38.3c-1.7,0.3-2.9,0.6-4.1,0.8c0,16.2,0,32.3,0,48.6c0.9-0.2,1.7-0.3,2.5-0.5
			c23.5-5.5,46.9-11.3,70.5-16.3c13.4-2.9,27-5,40.6-6.7c15.3-1.9,30.8-3,46.2-4.1c18.1-1.3,36.2-1.1,54.3,0.4
			c16.6,1.4,33.3,3.3,49.8,5.8c21.9,3.4,43.6,7.8,65.4,11.6c17.7,3.1,35.4,6.5,53.1,8.9c19.3,2.6,38.6,4.7,58,6.1
			c20.2,1.5,40.5,2.3,60.8,2.7c29.3,0.5,58.6-0.9,87.9-2.7c5.1-0.3,10.1-0.8,15.3-1.2c-0.4-14-0.7-27.8-1.1-41.9
			c-2.7,0.2-5.2,0.5-7.5,0.7c0,9.5,0,18.6,0,27.8c-0.1,0-0.2,0-0.3,0c-0.7-9.2-1.4-18.4-2.1-27.5c-8.2,0-16.2,0-24.6,0
			c8.4-1.2,16.5-2.4,24.6-3.6c-0.1-1.5-0.1-2.5-0.2-3.3c-9.6,0-19,0-27.8,0c8.7-1.3,18-2.6,27.5-4c-0.7-15.2-2.3-29.9-6.9-44.5
			c2.7-0.3,5.2-0.6,7.9-0.9c0.4,15.2,0.8,30,1.2,44.9c1.9-0.3,3.5-0.9,5-0.8c2.9,0.1,3.1-1.4,3.1-3.7c-0.1-14.7-0.1-29.3-0.1-44
			C651.8,223.1,651.8,221.6,651.8,219.8z M39.2,239c0-8.1,0.1-16.3-0.1-24.6c0-1-0.8-2.2-1.6-2.8c-4.6-3.3-9.9-4.4-15.4-4.8
			c-5.2-0.4-10.2,0.3-14.6,3.3c-1.7,1.1-2.5,2.5-2.5,4.8c0,35.7,0,71.4-0.1,107.1c0,1,0,2.1,0,3.4c11.3-4.3,22.2-5.1,33,0.4
			c0.1-0.8,0.2-1.4,0.2-2c0.4-14.9,0.8-29.9,1.1-44.8c0.1-7.6-0.2-8-7.3-10.8c-0.7-0.3-1.4-0.5-2-0.7c-2.3-0.8-4.7-1.6-7-2.4
			c0.1-0.3,0.2-0.6,0.2-1c5.4,1.1,10.7,2.2,16.2,3.3c0-5.8,0.1-12.1-0.1-18.4c0-0.7-0.9-1.8-1.7-2.1c-3-1.4-6.1-2.7-9.2-3.9
			c-1.5-0.6-3.2-1.1-4.7-1.6c0.1-0.2,0.1-0.4,0.2-0.5c4.2,0.5,8.3,1.1,12.5,1.6c0.1-0.1,0.1-0.2,0.2-0.4c-4.7-1.8-9.3-3.6-14-5.4
			c0.1-0.3,0.2-0.6,0.2-0.9C28.1,236.6,33.5,237.8,39.2,239z M691.8,325.3c0-7.7,0-15,0-22.3c-0.2-29-0.3-58.1-0.5-87.1
			c0-4.7-1.1-6.6-5.6-8.1c-8.4-2.7-16.3-1.5-23.6,3.4c-0.8,0.5-1.4,1.9-1.4,2.9c-0.2,7.9-0.2,15.8-0.3,23.8c0,0.5,0.1,1,0.1,0.9
			c5.1-1.1,9.9-2.2,14.8-3.3c0.1,0.3,0.1,0.6,0.2,0.8c-4.2,1.8-8.4,3.6-12.6,5.4c0.1,0.1,0.1,0.2,0.2,0.3c3.8-0.5,7.6-1.1,11.4-1.6
			c0,0.2,0.1,0.4,0.1,0.6c-0.5,0.2-1,0.4-1.5,0.6c-3.6,1.5-7.2,3-10.8,4.5c-1.6,0.7-2.2,1.8-2.1,3.7c0.1,5.1,0,10.2,0.1,15.3
			c0,0.8,0.1,1.5,0.1,1.9c4.9-1,9.6-2,14.3-3c0.1,0.3,0.2,0.6,0.2,1c-1.1,0.4-2.3,0.8-3.4,1.3c-3.1,1.4-6.2,2.9-9.3,4.4
			c-1.5,0.8-2,2-2,3.8c0.2,8.9,0.2,17.8,0.4,26.8c0.2,8.1,0.6,16.2,0.9,24.4C671.5,320.3,681.2,321.1,691.8,325.3z M644.1,280.6
			c2.9-0.5,5.3-1,7.7-1.4c0-1,0-1.7,0-2.7c-2.6,0.2-5.1,0.4-7.7,0.6C644.1,278.3,644.1,279.3,644.1,280.6z M677.5,329.8
			c-3.6-3.8-6.8-2-10-0.5C670.7,329.4,673.8,329.6,677.5,329.8z M20.6,329.8c3.8-0.2,6.9-0.4,10.1-0.5c0-0.2,0-0.5,0-0.7
			C27.5,328.2,24.2,326,20.6,329.8z M6.9,330.5c2.6,1.2,4.5,2.1,6.3,2.9c-0.2-1.8-0.4-3.3-0.7-4.9C11,329.1,9.3,329.7,6.9,330.5z
			 M684.8,328.4c-0.3,1.8-0.6,3.4-0.9,5.2c1.9-1.1,3.6-2,5.9-3.3C687.5,329.5,686.1,328.9,684.8,328.4z M52.9,268.1
			c-0.1-0.7-0.1-1.5-0.2-2.3c-1.5,0.2-2.7,0.4-3.9,0.5C48.9,268.7,48.9,268.7,52.9,268.1z"/>
		<path d="M651.8,219.8c0,1.8,0,3.3,0,4.9c0,14.7,0,29.3,0.1,44c0,2.3-0.2,3.8-3.1,3.7c-1.6-0.1-3.2,0.5-5,0.8
			c-0.4-14.9-0.8-29.7-1.2-44.9c-2.7,0.3-5.2,0.6-7.9,0.9c4.6,14.5,6.3,29.2,6.9,44.5c-9.5,1.4-18.8,2.8-27.5,4c8.8,0,18.1,0,27.8,0
			c0,0.8,0.1,1.8,0.2,3.3c-8.1,1.2-16.1,2.3-24.6,3.6c8.4,0,16.4,0,24.6,0c0.7,9.1,1.4,18.3,2.1,27.5c0.1,0,0.2,0,0.3,0
			c0-9.1,0-18.3,0-27.8c2.3-0.2,4.7-0.4,7.5-0.7c0.4,14.1,0.7,27.9,1.1,41.9c-5.2,0.4-10.2,0.9-15.3,1.2
			c-29.3,1.9-58.6,3.3-87.9,2.7c-20.3-0.4-40.6-1.2-60.8-2.7c-19.4-1.4-38.7-3.5-58-6.1c-17.8-2.4-35.5-5.8-53.1-8.9
			c-21.8-3.8-43.5-8.2-65.4-11.6c-16.5-2.6-33.1-4.5-49.8-5.8c-18.1-1.5-36.2-1.7-54.3-0.4c-15.4,1.1-30.8,2.2-46.2,4.1
			c-13.6,1.7-27.2,3.8-40.6,6.7c-23.6,5.1-47,10.9-70.5,16.3c-0.8,0.2-1.5,0.3-2.5,0.5c0-16.3,0-32.4,0-48.6
			c1.2-0.2,2.4-0.5,4.1-0.8c0.4,12.8,0.8,25.4,1.1,38.3c2.4-0.7,4.7-1.3,6.5-1.8c-2.1-12.3-4.1-24.3-6.1-36.1
			c12.4-4,24-7.8,35.7-11.6c-0.1-0.4-0.2-0.7-0.3-1.1c-11.5,2.8-23,5.6-34.4,8.3c-1.3-2.1-0.3-2.5,1.3-3c11.2-3.2,22.3-6.4,33.4-9.6
			c0.3-0.1,0.6-0.3,0.8-0.5c-0.1-0.3-0.2-0.6-0.2-0.9c-11.9,2.3-23.8,4.6-36,6.9c-0.8-11.3-1.5-22.3-2.2-33.3c-0.2,0-0.4,0-0.7,0
			c0.3,11.1,0.6,22.1,0.9,33.3c-1.5,0-2.7,0-4.1,0c-0.4-14.5-0.8-29-1.2-43.6c6.3-1.4,12.6-3,18.9-4.2c18.3-3.5,36.5-7.3,54.8-10.2
			c17.7-2.8,35.5-4.8,53.2-6.8c24.8-2.8,49.8-3.4,74.7-2.6c14.3,0.4,28.5,1.5,42.7,3.1c20.3,2.3,40.5,5.3,60.7,8.3
			c14.5,2.1,29,4.7,43.6,6.9c13,1.9,26.1,3.6,39.2,5.1c12.1,1.4,24.2,2.7,36.4,3.6c13.3,1,26.7,1.9,40.1,2.3
			c18.7,0.5,37.5,0.8,56.3,0.5c18.7-0.3,37.3-1.2,55.9-2C633.1,221,642.3,220.3,651.8,219.8z M266.4,205.4
			c-61.5-5.6-121.9,0.9-181.8,15.9c0.7,3.4,1.2,6.4,1.8,9.5C145.2,211.6,205.1,203.6,266.4,205.4z M454.5,318.2
			c55.3,5.4,110.7,7.2,166.3,4.1c0-2.7,0-5,0-7.3c0-0.5-0.1-1.1-0.1-1.7C565.3,319.1,510,322.1,454.5,318.2z"/>
		<path d="M39.2,239c-5.7-1.2-11.1-2.3-16.6-3.5c-0.1,0.3-0.2,0.6-0.2,0.9c4.7,1.8,9.3,3.6,14,5.4c-0.1,0.1-0.1,0.2-0.2,0.4
			c-4.2-0.5-8.3-1.1-12.5-1.6c-0.1,0.2-0.1,0.4-0.2,0.5c1.6,0.5,3.2,1,4.7,1.6c3.1,1.3,6.2,2.5,9.2,3.9c0.7,0.4,1.6,1.4,1.7,2.1
			c0.1,6.3,0.1,12.5,0.1,18.4c-5.5-1.1-10.9-2.2-16.2-3.3c-0.1,0.3-0.2,0.6-0.2,1c2.3,0.8,4.7,1.6,7,2.4c0.7,0.2,1.4,0.5,2,0.7
			c7.2,2.9,7.5,3.2,7.3,10.8c-0.3,14.9-0.7,29.9-1.1,44.8c0,0.6-0.1,1.2-0.2,2c-10.9-5.5-21.7-4.7-33-0.4c0-1.3,0-2.3,0-3.4
			c0-35.7,0.1-71.4,0.1-107.1c0-2.2,0.9-3.6,2.5-4.8c4.4-3,9.4-3.7,14.6-3.3c5.5,0.4,10.8,1.6,15.4,4.8c0.8,0.6,1.6,1.8,1.6,2.8
			C39.3,222.7,39.2,230.9,39.2,239z M18,318.3c-1.1-35.9-2.1-71.5-3.2-107.1c-4.1-0.2-5.8,1.3-5.9,4.8c-0.1,1.4-0.2,2.7-0.2,4.1
			c-0.4,30.1-0.8,60.3-1.2,90.4c0,3.2,0,6.5,0,9.8c2.7,0,3.7-1.1,3.7-3.9c-0.1-29.5,0-59,0.1-88.5c0-3.6,0-7.1,0-10.7
			c0.4,0,0.8,0,1.3,0C13,251.1,13.5,285,13.9,319C15.2,318.8,16.5,318.6,18,318.3z"/>
		<path d="M691.8,325.3c-10.6-4.2-20.3-5-30.2,0.2c-0.3-8.2-0.7-16.3-0.9-24.4c-0.2-8.9-0.2-17.8-0.4-26.8c0-1.8,0.4-3.1,2-3.8
			c3.1-1.5,6.2-3,9.3-4.4c1.1-0.5,2.3-0.9,3.4-1.3c-0.1-0.3-0.2-0.6-0.2-1c-4.7,1-9.4,2-14.3,3c0-0.3-0.1-1.1-0.1-1.9
			c0-5.1,0.1-10.2-0.1-15.3c0-1.8,0.6-3,2.1-3.7c3.6-1.5,7.2-3,10.8-4.5c0.5-0.2,1-0.4,1.5-0.6c0-0.2-0.1-0.4-0.1-0.6
			c-3.8,0.5-7.6,1.1-11.4,1.6c-0.1-0.1-0.1-0.2-0.2-0.3c4.2-1.8,8.4-3.6,12.6-5.4c-0.1-0.3-0.1-0.6-0.2-0.8
			c-4.9,1.1-9.7,2.2-14.8,3.3c0,0-0.1-0.5-0.1-0.9c0.1-7.9,0.1-15.8,0.3-23.8c0-1,0.6-2.4,1.4-2.9c7.3-4.8,15.3-6.1,23.6-3.4
			c4.4,1.4,5.5,3.4,5.6,8.1c0.2,29,0.4,58.1,0.5,87.1C691.8,310.3,691.8,317.6,691.8,325.3z M682,316.9c1.2-33.6,2.5-66.9,3.7-100.3
			c0.4,0,0.8,0,1.2,0c-0.5,33.6-1,67.2-1.5,100.9c1.2,0.4,2.5,0.9,3.8,1.3c0-2.7,0-5.2,0-7.6c-0.3-32.2-0.7-64.4-1-96.7
			c0-2.5-0.8-4-3.6-4.5c-1.9,35.6-3.9,71.2-5.8,106.8C679.9,316.9,680.8,316.9,682,316.9z"/>
		<path d="M644.1,280.6c0-1.3,0-2.3,0-3.4c2.5-0.2,5-0.4,7.7-0.6c0,1,0,1.7,0,2.7C649.4,279.7,646.9,280.1,644.1,280.6z"/>
		<path d="M677.5,329.8c-3.8-0.2-6.9-0.3-10-0.5C670.7,327.8,673.9,326,677.5,329.8z"/>
		<path d="M20.6,329.8c3.6-3.8,6.9-1.6,10.1-1.2c0,0.2,0,0.5,0,0.7C27.6,329.4,24.4,329.6,20.6,329.8z"/>
		<path d="M6.9,330.5c2.4-0.9,4.1-1.4,5.6-2c0.2,1.7,0.4,3.1,0.7,4.9C11.4,332.6,9.6,331.8,6.9,330.5z"/>
		<path d="M684.8,328.4c1.3,0.5,2.7,1,4.9,1.9c-2.3,1.3-4,2.2-5.9,3.3C684.2,331.8,684.5,330.3,684.8,328.4z"/>
		<path d="M52.9,268.1c-4,0.6-4.1,0.6-4.1-1.8c1.2-0.2,2.4-0.3,3.9-0.5C52.8,266.6,52.9,267.4,52.9,268.1z"/>
		<path class="st0" d="M266.4,205.4c-61.3-1.8-121.3,6.2-179.9,25.3c-0.6-3-1.2-6-1.8-9.5C144.5,206.4,204.9,199.8,266.4,205.4z"/>
		<path class="st0" d="M454.5,318.2c55.5,3.9,110.8,1,166.2-4.9c0,0.7,0.1,1.2,0.1,1.7c0,2.3,0,4.5,0,7.3
			C565.2,325.3,509.8,323.6,454.5,318.2z"/>
		<path class="st0" d="M18,318.3c-1.6,0.3-2.8,0.5-4.1,0.7c-0.4-34-0.9-67.9-1.3-101.9c-0.4,0-0.8,0-1.3,0c0,3.6,0,7.1,0,10.7
			c0,29.5-0.1,59-0.1,88.5c0,2.8-1,4-3.7,3.9c0-3.3,0-6.5,0-9.8c0.4-30.1,0.8-60.3,1.2-90.4c0-1.4,0.2-2.7,0.2-4.1
			c0.1-3.5,1.8-5,5.9-4.8C15.9,246.8,17,282.4,18,318.3z"/>
		<path class="st0" d="M682,316.9c-1.3,0-2.2,0-3.3,0c1.9-35.7,3.9-71.2,5.8-106.8c2.8,0.5,3.6,2,3.6,4.5c0.3,32.2,0.7,64.4,1,96.7
			c0,2.4,0,4.9,0,7.6c-1.3-0.4-2.6-0.9-3.8-1.3c0.5-33.8,1-67.4,1.5-100.9c-0.4,0-0.8,0-1.2,0C684.5,249.9,683.3,283.3,682,316.9z"
			/>
	</g>
	<path id="SVGID_x5F_1_x5F_" class="st1" d="M72.8,297.9c0,0,103.4-39.5,236.7-18.7s160.1,26.5,160.1,26.5s119.9,8.7,151.2-9"/>
	<text transform="matrix(0.9677 -0.2519 0.2519 0.9677 99.1509 289.8154)" class="st2 st3"> </text>
	<g class="st4">
		<path class="st0" d="M103.5,239.1c0.7-0.5,2.1-0.9,4.4-1.3c2.3-0.4,4-0.5,5-0.4l2.1,0.2c1.8,0.7,2.9,1.1,3.1,1
			c2.5,1.2,4.2,3.1,5,5.7c0.6,1.1,0.8,2.1,0.8,3.1c0.1,0.3,0.1,1,0.1,2.1l-0.4,1.9l-0.6,1.5c-0.3,0.1-0.5,0.2-0.5,0.2
			c-1.8,0.7-3.3,1.1-4.4,1.1c-1.1,0-2.1-0.4-3.1-1.1c-0.2-0.3-0.4-0.5-0.4-0.8c0-0.3,0-0.5,0.1-0.7l0.1-1.3c0.3-1.8,0-3.2-1.1-4.1
			c0-0.2-0.4-0.4-1-0.7c-0.6-0.3-1.1-0.5-1.4-0.7c-0.3-0.1-0.8-0.1-1.5,0.2c-1.1,0.8-1.8,2.6-2.2,5.4c-0.7,1.6-1.1,3.5-1,5.7
			c0.2,4,0.4,6.3,0.5,6.8l0.3,1.7l0.2,0.7c-0.1,0.1,0.5,2.4,1.6,6.7c0.1,0.2,0.3,0.6,0.5,1c0.3,0.5,0.7,1.4,1.3,2.6l1.4,1.5
			c0.3,0.1,0.7,0.5,1.3,1.2c0.3-0.1,0.5,0.1,0.7,0.4c0.4,0.3,0.6,0.5,0.6,0.5c0.3,0,0.7,0.1,1.3,0.2c1.6,0.4,2.7,0,3.5-1.3
			c0.3-0.4,0.6-1,1-1.8c0.4-0.8,0.7-1.4,0.9-1.8s0.6-0.9,1.1-1.4c1.4-1.7,2.9-1.9,4.4-0.8c0.3,0.4,0.6,1.3,0.8,3
			c0.2,1.6-0.2,3.4-1.1,5.4c0,0.3-0.3,0.9-0.7,1.7c-0.4,0.8-0.9,1.5-1.4,2.1c0,0.4-1.9,1.1-5.7,2c-0.2,0-0.6,0.1-1.3,0.1
			c-0.5,0.3-1.3,0.4-2.3,0.3c-1-0.1-1.6-0.1-1.7-0.1l-1.1,0c-0.4,0.1-0.9,0-1.3-0.1c-0.5-0.2-1.3-0.5-2.3-0.9
			c-1.1-0.4-1.9-0.8-2.6-1.1c-1.8-0.9-3.2-2.1-4.3-3.5c-0.3-0.3-0.5-0.8-0.7-1.4c-0.2-0.6-0.4-1.1-0.6-1.4c-0.5-0.3-0.8-1-1-1.9
			c-0.2-0.9-0.5-2.1-0.9-3.4c-0.1-0.6-0.2-1-0.2-1.1c-0.3-0.2-0.5-0.6-0.6-1.3c-0.1-0.7-0.3-1.6-0.5-2.7c0.1-0.3,0-1.3-0.4-2.8
			c-0.4-1.5-0.6-2.7-0.6-3.5c-0.3-0.4-0.5-1.1-0.5-2l-0.4-2.3c-0.2-0.9-0.1-2,0.1-3.1c0-0.5-0.1-1.1-0.1-1.7c0-0.7,0.4-2.1,1.2-4.3
			c-0.1-0.4,0.2-1,0.8-1.8c0-0.2,0.1-0.6,0.4-1.1c0.3-0.5,0.7-1.1,1.1-1.9c0.5-1,1.2-1.9,2-2.5C102.2,240.5,102.9,239.9,103.5,239.1
			z"/>
	</g>
	<g class="st4">
		<path class="st0" d="M133,257.1l-0.3-5.9c0-0.3,0-0.8,0.2-1.5s0.2-1.1,0.3-1.2c0-0.1,0-0.3,0.1-0.6c-0.2-1.4,0-2.7,0.7-3.9
			c0.8-2.9,1.4-5.1,1.9-6.6c0.4-1.4,1-2.7,1.6-3.7c0-0.3,0.5-0.8,1.5-1.5c2-1.5,3.9-2.3,5.8-2.6c1.9-0.3,3.7-0.2,5.5,0.1
			c0.6,0,1.4,0.3,2.5,0.8c1.1,0.5,1.7,0.8,1.8,0.9c1,0.4,2,1.4,3.3,2.9c1.2,1.6,1.9,2.7,2.1,3.5c0.2,0.8,0.7,2,1.5,3.6
			c0.8,1.6,1.2,2.8,1.4,3.6c0.1,0.8,0.4,2,1,3.6c0.5,1.6,0.8,2.9,0.9,3.9c0.7,7.4,0.6,12.9-0.5,16.4c0,2.3-0.4,3.9-1.2,4.7v1.1
			c0,0.6-0.2,1.4-0.6,2.2c-0.4,0.9-1,1.6-1.8,2.1c-0.1,0.2-1.1,0.6-3,1.2c-2.7,0.9-4.5,1.4-5.4,1.6c-1.1,0.5-2.6,0.7-4.4,0.4
			c-1.8-0.2-2.9-0.4-3.1-0.4c-0.3,0-0.9-0.2-1.8-0.6c-0.9-0.4-1.6-0.8-1.9-1.1c-0.9-0.5-1.5-0.9-1.7-1.3l-1.4-2
			c-0.8-0.6-1.4-1.5-1.8-2.7c-0.4-1.2-0.8-2-1.1-2.4c-0.3-0.5-0.7-1.1-1-1.7c0-0.4-0.1-1-0.2-2l-0.1-0.8c-0.3-0.8-0.4-1.5-0.2-2.3
			c0-0.4,0-0.8-0.1-1.4c-0.1-0.6-0.1-1.4-0.1-2.4l-0.1-1C133.1,258.7,133.2,257.6,133,257.1z M142.8,261.6l1.2,7
			c1.3,2.9,2.8,4.8,4.6,5.8c0.3,0.2,0.9,0.4,1.9,0.6l2,0.2c0.3,0,0.5-0.2,0.8-0.4c0.3-0.2,0.6-0.3,0.7-0.5c0.3-0.5,0.6-1,0.9-1.4
			c0.3-0.4,0.4-0.6,0.4-0.6c0.2-0.2,0.2-0.6,0.1-1.1c0.1-0.2,0.3-0.5,0.5-1.1c0.2-3,0.5-5,0.9-5.9c-0.1-2.3-0.2-3.8-0.3-4.4
			c-0.3-2.2-1.3-4.8-2.9-7.8c-0.7-0.6-1.4-2.9-1.9-6.8c-0.4-0.7-0.7-1.4-0.9-2.1c-0.1-0.6-0.4-1.3-0.8-2c-0.4-0.7-0.7-1.2-0.9-1.4
			s-0.3-0.5-0.4-0.7c-0.1-0.2-0.2-0.5-0.5-0.9c-1-1.1-2.2-0.3-3.6,2.6l-1,2.5c0,0.1-0.1,1.1-0.4,3c-0.4,3-0.6,4.7-0.5,5.1
			c0.1,0.3-0.1,1.5-0.4,3.4c0,0.2,0,0.5,0.1,1.1c0.1,0.6,0.1,1.4,0,2.4C142.6,259.1,142.6,260.3,142.8,261.6z"/>
	</g>
	<g class="st4">
		<path class="st0" d="M197.4,256.1c-0.1-0.3-0.2-0.7-0.1-1.3c0-0.6,0.1-1.5,0.1-2.5c-0.1-1.6-0.1-2.6-0.1-3l-0.2-1.6
			c-0.1-0.8-0.1-1.6-0.1-2.1l-0.1-2.3c0.1-0.5,0-1.3-0.1-2.4c-0.2-1.1-0.2-2.5-0.2-4.2c0-1.7,0.1-2.8,0.2-3.1l-0.1-1.6
			c0-0.2,0-0.7,0-1.7l0-0.6c0-0.8-0.1-1.3-0.2-1.4l0.5-3l0.2-1.7c0.1-0.2,0.5-0.7,1.1-1.4c0.1-0.2,0.7-0.3,1.8-0.4
			c1.1-0.1,1.8-0.1,2.4-0.1c0.5,0,0.9,0.1,1.1,0.4c0.2,0.2,0.4,0.7,0.6,1.4c0.4,0.7,0.5,1.5,0.4,2.6c0.1,0.3,0.1,0.5,0.1,0.7
			l0.1,0.8c0.2,1,0.3,2.1,0.1,3.2c0,0.4,0.1,0.8,0.2,1.3l0,0.7c0.1,1.1,0,2-0.1,2.8l0.1,2c0.1,0.7,0.1,1.3-0.1,2c0,0.2,0,0.8,0,1.9
			c-0.1,0.4-0.2,0.8-0.2,1.4c0.2,0.4,0.2,1,0.1,1.7c-0.1,0.2-0.1,0.8,0.3,1.9c-0.2,0.7-0.1,1.9,0.3,3.7l0.1,1.6
			c0.3,1.7,0.4,3.3,0.2,5l0,0.5c0.1,1.1,0.1,1.8,0,2.3c0.2,0.9,0.2,2,0.2,3.4l0,0.5l0,1.9c-0.3,3.8-1.9,6-4.6,6.7
			c-3.4,0.9-6.2,0.1-8.3-2.2l-0.6-1.2c-0.6-0.1-1.4-1.2-2.5-3.5c-1.7-3.4-2.7-5.3-2.8-5.7c-0.9-2-1.3-3.1-1.3-3.2l-0.3-1.5
			c-0.1-0.1-0.2-0.3-0.4-0.6c-0.2-0.3-0.3-0.6-0.5-0.9c0-0.4-0.3-1.1-0.7-2.3c0-0.1-0.2-0.8-0.5-2l-1.4-7c0-0.2-0.1-0.4-0.1-0.8
			l-0.2,1.8c-0.1,3.6-0.3,5.7-0.4,6.5l0.1,8l0.2,3.2l0,3.9c0.1,2,0.3,3.8,0.6,5.4c0,1.5-0.2,2.6-0.7,3.1c-0.5,0.5-1.3,0.9-2.3,1
			c-0.8-0.2-1.8-0.5-3.1-1c-0.4-0.2-0.7-0.6-0.8-1.3c-0.2-0.6-0.5-1.2-1-1.6c-0.5-0.4-0.8-1-0.9-1.5l-1.3-5.9
			c-0.1-0.8-0.1-1.7-0.1-2.7c0-0.9,0-1.9-0.2-2.9c-0.1-1-0.1-2.2,0.2-3.5c0.3-1.3,0.3-2.5,0.2-3.4c-0.1-0.9-0.1-2.1-0.1-3.6
			c0.1-1.5,0.1-2.5,0-3.2s0-1.2,0.1-1.6c-0.1-0.8,0-1.5,0-2c-0.1-0.2,0-1,0.3-2.4c0-0.4,0-0.9,0.1-1.7c0.1-0.7,0.2-1.8,0.3-3
			c0.1-1.3,0.3-2.3,0.7-3.1c0.4-0.8,1-1.8,1.8-2.8c0.5-0.3,0.8-1,1.1-2.1c0.3-0.6,1-1.1,2-1.6c0.4-0.3,0.8-0.5,1.4-0.5
			c0.6,0,1.2,0.1,1.7,0.4c2.1,0.7,3.5,2,4.1,3.9l0.4,2c0,0.3,0.3,1,0.9,2.1c0,0.5,0.2,1.3,0.5,2.3c0,0.7,0.3,1.5,0.7,2.3
			c0.7,2.7,1.2,4.5,1.6,5.5c0.3,0.4,0.5,0.8,0.7,1.5c0.1,0.5,0.4,1.2,0.8,2.1c0.2,0.9,0.5,1.9,0.9,3c2.6,6.9,4.2,10.8,4.8,11.7
			c0.1-0.2,0.1-0.9,0-2L197.4,256.1z"/>
	</g>
	<g class="st4">
		<path class="st0" d="M235.8,230.4c-0.1,1-0.2,1.9-0.2,2.9c0,1.9-0.1,3.6-0.4,5.1c-0.2,1.5-0.4,2.6-0.4,3.1
			c-0.1,0.6-0.1,1.1-0.3,1.6l0,0.6c0,1-0.2,1.9-0.7,2.8l-0.3,3.6l-0.4,7.5l0,4c0,2-0.1,3.1-0.4,3.2l0.1,2.1l0,0.9l-0.1,1
			c0,0.2-0.1,0.3-0.2,0.3c0.1,0.6-0.2,1.3-0.8,2c-0.6,0.7-1.4,1.2-2.3,1.4l-1.4,0.2c-0.2,0-0.5,0-0.9,0c-0.4,0-0.7,0-1-0.1
			c-0.3-0.1-0.5-0.2-0.8-0.4c-0.5-0.3-0.9-0.9-1.1-1.8c-0.2-0.3-0.5-1.9-0.9-4.8c0-0.6,0-1.4-0.1-2.4l0.3-1.9l0-1.5
			c0-1,0.1-1.6,0.3-2c-0.2-0.3-0.1-1,0.4-2.1c-0.4-0.5-0.3-1.5,0.1-3.2c-0.2-0.7-0.2-1.1,0-1.3c0.1-0.3,0.2-1.1,0.2-2.2l0.1-0.8
			c0-1.5,0.2-2.9,0.5-4.2c-0.1-0.2-0.1-0.6,0-1.3c0.1-0.7,0.2-1.5,0.3-2.5l0-0.6c0.1-0.8,0.1-1.6,0.1-2.5l0.1-0.7
			c0-0.3,0.1-1,0.2-1.9c0.1-0.9,0.3-2,0.4-3l-0.2,0c-5.6,1.5-9.1,2.2-10.3,2.2l-1.3,0.1c-0.8,0-1.6-0.1-2.5-0.4
			c-0.4-0.2-0.7-0.8-0.9-1.7c0-1.7,0.4-3,1.2-3.8c0.8-0.8,2.2-1.5,4.3-2.2c0.5,0,3.8-1.1,9.9-3.2l3.4-0.8c0.6-0.2,1.6-0.3,3-0.3
			c1.4,0,2.5-0.1,3.5-0.5c0.9-0.3,1.9-0.6,3.1-0.8c1.1-0.2,2.3-0.4,3.5-0.6c0.6-0.2,1.6-0.1,3.2,0.2c0.6,0,1.5,0.6,2.8,1.9l0.5,1.1
			c0,0.3,0.1,0.6,0.2,0.7c0.2,1.4-0.1,2.3-1,2.8c-0.3,0.2-0.9,0.4-1.7,0.6c-1.1,0-3.7,0.5-7.9,1.5c-0.2,0-1.3,0.1-3.2,0.4l-0.1,1
			L235.8,230.4z"/>
	</g>
	<g class="st4">
		<path class="st0" d="M258.3,256.1l-0.2,3.2c-0.3,3.3-0.2,5.1,0.1,5.5c-0.1,0,0,0.7,0.2,1.9c0,0.4,0.1,1.1,0.5,2
			c0,0.3,0.7,1,2.1,2.1c0.6,0,2.2-0.4,4.8-1.2l5.8-1.7c0.7-0.2,1.3,0,1.9,0.4c0.6,0.4,0.9,1.2,0.9,2.1c0.1,1,0,1.7-0.2,2.1
			c-0.2,0.4-0.7,0.9-1.5,1.5c-0.8,0.6-1.3,1-1.5,1.2c-0.2,0.2-0.6,0.5-1.2,0.7c-0.6,0.2-1.3,0.5-2,0.8c-0.7,0.3-1.2,0.5-1.5,0.6
			c-2.1,0.8-3.7,1-4.8,0.7c-0.7-0.1-1.4-0.2-2.1-0.6c-0.7-0.3-1.1-0.5-1.2-0.4c-0.1,0-0.3,0-0.6-0.1c-0.3-0.1-0.7-0.2-1-0.3
			c-0.3-0.1-1.1-0.3-2.4-0.7c0-0.2-0.3-0.5-1.1-0.7l-2-1.9c-0.4-0.2-0.7-0.9-1-2.1l-0.6-1.2c-0.2-0.2-0.4-0.8-0.7-1.9
			c-0.2-0.3-0.3-0.8-0.3-1.5c-0.2-0.6-0.3-1.4-0.2-2.5c-0.2-0.3-0.3-1.3-0.5-3.1c-0.2-2.3-0.1-4.3,0.4-6.1c0.1-1,0.3-2,0.8-2.9
			c0.1-0.4,0.2-0.8,0.3-1.3c0.4-1.3,0.6-2.4,0.8-3.1c-0.2-0.8,0.3-2.5,1.4-5.2c0-0.4,0.3-1,0.7-1.8c0.4-0.8,0.7-1.6,0.8-2.5l0.7-1.5
			c0-0.4,0.5-1.9,1.5-4.6c0.5-1,0.8-1.5,0.8-1.7l2.3-4l1-1.2c0.4-0.3,1-0.6,1.7-0.8c0.3-0.2,1.2-0.1,2.5,0.3
			c0.8,0.4,1.4,0.7,1.7,1.1c0.4,0.2,0.8,0.3,1.3,0.3l6.1,0.1c1.5,0.2,2.5,0.5,3,0.8c0.5,0.3,1,0.7,1.4,1.3c0.5,0.6,0.6,1.2,0.4,1.8
			c-0.2,0.6-0.4,1-0.8,1.3c-0.7,0.5-2,1.1-4,1.8c-3.3,1.5-5.2,2.3-5.4,2.4l-2,0.7c-0.8,0.5-1.4,1-1.6,1.5c-2.1,5.8-3.2,9-3.4,9.6
			c-0.2,0.7-0.3,1-0.3,1.2c0,0.1-0.1,0.2-0.1,0.3l1.6,0c2.4-0.6,3.8-0.7,4.2-0.4c0.2,0,0.5,0,0.9-0.2c2-0.5,3.7-0.7,5.2-0.5
			c0.3-0.1,0.6,0,0.8,0.4c0.3,0.4,0.5,0.9,0.6,1.4c0.2,1.3-0.3,2.3-1.4,3c-2.3,1.3-5.1,2.3-8.2,2.9c-1.1,0.7-2.5,1.1-4.3,1.2
			L258.3,256.1z"/>
	</g>
	<g class="st4">
		<path class="st0" d="M307.9,262.5c-0.1-0.3,0-0.7,0.2-1.3c0.2-0.6,0.4-1.4,0.7-2.5c0.2-1.6,0.4-2.6,0.5-3l0.2-1.6
			c0.1-0.8,0.3-1.5,0.4-2.1l0.3-2.3c0.2-0.5,0.3-1.2,0.4-2.3c0.1-1.1,0.3-2.5,0.8-4.2c0.4-1.7,0.7-2.7,0.9-3l0.2-1.6
			c0-0.2,0.1-0.7,0.3-1.6l0.1-0.5c0.2-0.8,0.2-1.2,0.1-1.4l1.1-2.8l0.6-1.6c0.1-0.2,0.6-0.6,1.4-1.2c0.2-0.1,0.8-0.1,1.8,0
			c1,0.2,1.8,0.3,2.3,0.4c0.5,0.1,0.8,0.3,1,0.6c0.1,0.3,0.2,0.8,0.2,1.5c0.2,0.7,0.2,1.6-0.2,2.6c0,0.3,0,0.6,0,0.7l-0.1,0.8
			c0,1.1-0.2,2.1-0.6,3.2c-0.1,0.4-0.1,0.8-0.1,1.3l-0.1,0.7c-0.2,1-0.4,1.9-0.7,2.7l-0.3,2c-0.1,0.7-0.2,1.3-0.5,1.9
			c0,0.2-0.2,0.8-0.4,1.9c-0.2,0.3-0.3,0.8-0.5,1.3c0.1,0.4,0,1-0.3,1.6c-0.2,0.1-0.2,0.8-0.1,1.9c-0.3,0.6-0.5,1.9-0.5,3.7
			l-0.2,1.6c-0.1,1.7-0.4,3.3-0.8,4.9l-0.1,0.5c-0.2,1-0.3,1.8-0.5,2.2c0,0.9-0.2,2-0.5,3.4l-0.1,0.5l-0.4,1.9
			c-1.1,3.6-3.1,5.5-6,5.6c-3.5,0.1-6-1.2-7.7-4l-0.3-1.2c-0.6-0.2-1.1-1.5-1.7-4c-0.9-3.7-1.4-5.8-1.5-6.2
			c-0.4-2.1-0.6-3.3-0.6-3.5l0.1-1.5c0-0.1-0.1-0.3-0.2-0.7c-0.1-0.3-0.2-0.7-0.2-1c0.1-0.4,0-1.2-0.2-2.4c0-0.1,0-0.8-0.1-2
			l0.1-7.1c0-0.2,0-0.4,0-0.8l-0.6,1.7c-0.9,3.4-1.5,5.5-1.8,6.2l-1.6,7.9l-0.5,3.1l-0.8,3.8c-0.3,1.9-0.5,3.7-0.6,5.4
			c-0.3,1.5-0.7,2.5-1.3,2.9c-0.6,0.4-1.4,0.6-2.5,0.5c-0.7-0.3-1.6-0.9-2.8-1.6c-0.3-0.3-0.5-0.7-0.5-1.4c0-0.7-0.2-1.3-0.6-1.8
			c-0.4-0.5-0.6-1.1-0.5-1.7l0-6.1c0.1-0.8,0.3-1.7,0.5-2.6s0.4-1.9,0.4-2.9c0.1-1,0.4-2.1,0.9-3.4c0.5-1.3,0.9-2.3,0.9-3.3
			c0.1-0.9,0.3-2.1,0.7-3.5c0.4-1.4,0.6-2.4,0.7-3.1s0.3-1.2,0.5-1.5c0.1-0.8,0.3-1.5,0.5-1.9c0-0.2,0.2-0.9,0.8-2.3
			c0.1-0.4,0.2-0.9,0.5-1.6c0.3-0.7,0.6-1.7,0.9-2.9c0.3-1.2,0.8-2.2,1.3-2.9c0.5-0.7,1.3-1.5,2.4-2.4c0.5-0.2,1-0.8,1.6-1.8
			c0.4-0.5,1.2-0.9,2.3-1.2c0.4-0.2,0.9-0.3,1.5-0.2c0.6,0.1,1.1,0.4,1.6,0.8c1.9,1.1,3,2.7,3.1,4.7l0,2c0,0.3,0.1,1.1,0.4,2.2
			c-0.1,0.5-0.1,1.3,0,2.3c-0.1,0.7,0,1.5,0.2,2.4c0.1,2.7,0.2,4.7,0.3,5.7c0.2,0.4,0.3,0.9,0.4,1.6c0,0.5,0.1,1.2,0.3,2.2
			c0,0.9,0,2,0.2,3.2c1.1,7.3,1.8,11.5,2.2,12.4c0.1-0.2,0.3-0.8,0.5-1.9L307.9,262.5z"/>
	</g>
	<g class="st4">
		<path class="st0" d="M352.2,243.9c-0.3,0.9-0.5,1.9-0.6,2.9c-0.3,1.9-0.7,3.6-1.1,5c-0.4,1.5-0.7,2.5-0.9,3
			c-0.1,0.5-0.3,1.1-0.5,1.6L349,257c-0.1,0.9-0.5,1.8-1.1,2.7l-0.8,3.5l-1.5,7.4l-0.6,3.9c-0.3,2-0.6,3-0.8,3.2l-0.2,2l-0.1,0.9
			l-0.2,0.9c0,0.2-0.1,0.3-0.2,0.3c0,0.6-0.3,1.3-1.1,1.9c-0.7,0.6-1.5,0.9-2.4,1l-1.4,0c-0.2,0-0.5-0.1-0.9-0.1
			c-0.4,0-0.7-0.1-0.9-0.3c-0.2-0.1-0.5-0.3-0.7-0.5c-0.5-0.4-0.7-1.1-0.8-2c-0.1-0.3-0.2-1.9-0.2-4.9c0.1-0.6,0.2-1.4,0.2-2.4
			l0.5-1.8l0.2-1.5c0.1-0.9,0.4-1.6,0.6-1.9c-0.2-0.3,0.1-1,0.7-2c-0.3-0.5-0.1-1.6,0.6-3.1c-0.1-0.7,0-1.2,0.2-1.3
			c0.2-0.3,0.3-1,0.5-2.2l0.2-0.8c0.2-1.5,0.6-2.9,1.1-4.1c-0.1-0.2,0-0.6,0.2-1.3c0.2-0.7,0.4-1.5,0.6-2.4l0.1-0.5
			c0.2-0.8,0.3-1.6,0.5-2.5l0.2-0.7c0-0.3,0.2-0.9,0.5-1.8c0.3-0.9,0.6-1.9,0.8-2.9l-0.2,0c-5.8,0.6-9.3,0.9-10.5,0.7l-1.3-0.1
			c-0.8-0.1-1.6-0.4-2.4-0.8c-0.4-0.3-0.6-0.9-0.7-1.8c0.3-1.7,0.8-2.9,1.7-3.6s2.4-1.2,4.6-1.5c0.5,0,3.9-0.6,10.2-1.7l3.5-0.2
			c0.7-0.1,1.7-0.1,3,0.2c1.4,0.2,2.5,0.2,3.5,0c1-0.2,2-0.3,3.1-0.3c1.1,0,2.3,0,3.5,0c0.6-0.1,1.6,0.1,3.1,0.7
			c0.6,0.1,1.4,0.8,2.5,2.2l0.3,1.2c0,0.3,0,0.6,0.1,0.7c0,1.4-0.5,2.3-1.4,2.6c-0.3,0.1-0.9,0.2-1.7,0.4c-1-0.2-3.7-0.1-8.1,0.3
			c-0.2,0-1.3,0-3.2,0l-0.2,1L352.2,243.9z"/>
	</g>
	<text transform="matrix(0.9873 0.1589 -0.1589 0.9873 366.1572 288.1439)" class="st0 st5 st6"> </text>
	<text transform="matrix(0.987 0.1607 -0.1607 0.987 382.7423 290.8119)" class="st0 st5 st6"> </text>
	<g class="st4">
		<path class="st0" d="M420.8,250.3c0,1.3-0.3,2.9-1,4.7c-0.1,0.6-0.2,1.1-0.4,1.7c-0.6,1.5-1,2.5-1.1,3c-0.1,0.7-0.5,2.3-1.3,4.6
			c-0.4,1.8-0.9,4.5-1.5,8.2s-1,6.9-1,9.6c0,2.7,0.1,4.2,0.5,4.3c0.4,0.1,0.8-0.1,1.3-0.7c0-0.3,0.3-0.9,0.8-2
			c0.9-2.7,1.9-5,2.8-7.1c0.9-2,1.5-3.4,1.6-4c0.1-0.4,0.4-1.3,1-2.9c0.7-1.6,1.3-3.3,1.7-5.1l0.1-0.6c0.7-2.8,1.1-4.7,1.3-5.9
			c0.2-1.1,0.3-2.1,0.4-2.9l0.6-2.9c0.2-0.7,0.5-1.2,1-1.6c0.1,0,0.3,0,0.6-0.1c0.4-0.1,0.7-0.2,1.1-0.3c0.4-0.1,0.9,0,1.7,0.4
			c0.8,0.3,1.2,0.6,1.5,0.8c0.2,0.2,0.4,0.5,0.5,0.8c0.1,0.3,0.2,0.5,0.3,0.7c0.1,0.2,0.1,0.5,0.2,1c0,0.9-0.1,2.7-0.4,5.2
			c-0.3,2.6-0.5,4.3-0.7,5s-0.4,1.7-0.6,2.9l-0.3,1.1c-0.1,0.7-0.6,2.5-1.3,5.5c-0.8,3-1.3,4.9-1.7,5.5c-0.3,0.9-0.4,1.5-0.4,1.7
			l-0.5,1.3c0,0.2-0.1,0.3-0.2,0.5c-0.1,0.1-0.3,0.7-0.8,1.8c-0.4,1-0.7,1.6-0.8,1.7l-0.7,1.7c-1.4,2.2-2.3,3.5-2.6,3.7
			c0,0.3-0.7,0.9-1.9,1.8l-1.5,1.4l-0.7,0.4c-2.4,1.7-4.7,1.5-6.9-0.7l-1.7-1.7c-0.2-0.5-0.6-1.1-1-1.6c0-0.2-0.2-0.5-0.6-1
			c-0.3-0.5-0.6-1-0.9-1.6s-0.3-0.9-0.3-1.1c0-0.2-0.1-0.8-0.4-1.9c-0.2-0.5-0.4-1.1-0.6-1.9c-0.1-0.1-0.2-0.7-0.3-1.8
			c-0.1-0.4-0.2-1.1-0.1-2.1l-1.5,3.4c-0.1,0.4-0.4,1-0.9,1.8l-0.7,1.5c-2.9,4.6-4.6,7.2-5,7.6c-1.1,1-2,1.6-2.7,1.8
			c-0.7,0.2-1.6,0.2-2.9-0.2c-1-0.2-2.5-0.9-4.7-1.9l-1-1.5c-0.4-0.6-0.6-1.3-0.6-2c-0.3-1.3-0.5-2.2-0.6-2.7
			c-0.1-0.5-0.2-1.4-0.1-2.8l0.3-2c-0.1-0.2,0-1.3,0.3-3.2c0-0.9,0.1-1.4,0.1-1.5l0.2-0.5c-0.3-0.4-0.2-1.8,0.1-4.4l0-0.6
			c0-0.2,0-0.4,0.1-0.8c0-0.4,0.1-1.3,0.1-2.7l0.5-4.1c0.2-0.5,0.3-1.2,0.3-2l0.2-1.5c0.5-3,1.1-5,1.7-6.2l0.6-1.5
			c0-0.2,0.1-0.5,0.3-0.8c0.3-0.6,0.6-1.3,0.9-2c0.3-0.7,0.6-1.4,0.9-2.3c0.2-0.8,0.5-1.4,0.9-1.8c0.3-0.3,0.8-0.8,1.5-1.2
			c0.7-0.5,1.2-0.8,1.7-0.8c1,0,1.6,0,1.8,0.1c0.6-0.1,1.6,0.1,2.9,0.6c0.4,0.1,1,0.4,1.8,0.9c0.5,0.5,0.7,1,0.6,1.7
			c0,0.7-0.3,2-0.9,3.7c-0.6,1.7-0.9,2.6-1.1,2.7c0.2,0.3,0.1,1-0.2,2c-0.2,1.3-0.5,2.6-0.9,4c-0.4,1.4-0.6,2.2-0.6,2.6l-0.2,0.9
			c-0.1,0.5-0.3,1.1-0.4,1.8c-0.3,0.8-0.6,2.1-0.9,3.9c-0.3,1.2-0.5,2-0.5,2.3l-0.4,1.5l-0.2,1.1c-0.1,0.6-0.2,1.1-0.1,1.3
			c-0.3,1.2-0.6,2.7-0.8,4.7c-0.2,1.9-0.3,2.9-0.1,3l3.3-3.9c0.3-0.4,0.9-1.6,1.8-3.5l3.7-4.8c0.9-1.6,1.3-2.5,1.5-2.6l0.8-1.2
			c0.3-0.1,0.5-0.4,0.8-0.9s0.5-1.2,0.9-2c0.4-0.8,0.7-2,1-3.6c0.3-1.6,0.8-2.8,1.3-3.5c0.2-1.1,0.8-2.9,1.8-5.6
			c0.2-0.8,0.4-1.4,0.5-1.8c0.8-1.3,1.5-2.2,2.1-2.7c0.7-0.5,1.8-0.4,3.3,0.2C419.7,248.4,420.6,249.3,420.8,250.3z"/>
	</g>
	<g class="st4">
		<path class="st0" d="M465,302.6c-0.8-0.3-1.8-1.2-3.2-2.5c-0.2-0.4-0.9-1.1-1.9-2c-1-0.7-2.2-2-3.7-4c0-0.1-0.2-0.5-0.5-1.3
			c-0.6-0.6-1.1-1.8-1.6-3.6c0-0.1-0.1-0.2-0.2-0.3c-0.1-0.2-0.2-0.4-0.5-0.8c-0.2-0.4-0.4-1-0.6-1.8c-0.2-0.9-0.7-1.8-1.4-2.9
			l-0.3,0c0,0.3-0.1,0.8-0.3,1.3l-0.1,1.6l-0.8,4.6l-1.7,7.6c0.2,0.4,0.1,1.1-0.1,2.1c0,0.4-0.2,1.1-0.5,2c-0.3,0.9-0.8,1.5-1.3,1.8
			c-0.5,0.3-1.6,0.3-3.1-0.1c-0.5-0.2-1.2-1-2.1-2.4c-0.4-0.2-0.8-1.1-1.4-2.6c0.2-0.9,0.2-1.5,0.2-1.8c0-0.2,0-0.5,0-0.9
			c0-0.4,0.1-0.6,0.1-0.7c-0.1,0.1-0.1-0.4,0.1-1.6l0-0.6c0-0.2,0.2-1,0.6-2.5c0.1-1.1,0.1-1.9,0.2-2.3c0.1-0.4,0.3-1,0.6-1.6
			l0.1-2.1l0.2-2.1c0.4-0.9,0.6-2,0.7-3.3c0.1-0.6,0.3-1.2,0.3-1.8c0.1-0.6,0.2-1.3,0.4-2c0.1-1.2,0.2-2,0.4-2.6
			c0.2-0.6,0.3-1,0.4-1.2s0.1-0.6,0.2-1.1l0.8-3.4l0.6-5l-0.9-0.7c-1.6-0.8-2.8-1.6-3.4-2.3c-0.3-0.2-0.3-0.6-0.2-1.2
			c0.1-0.7,0.5-1.2,1.2-1.5c0.7,0.1,1.8-0.3,3.3-1.1c0.2,0,0.7-0.2,1.5-0.7l1.5-0.4c0.2-0.1,0.8-0.4,2-0.7c0.3,0,0.7-0.1,1.3-0.3
			c0.6-0.2,1.2-0.4,1.9-0.4c0.5,0,1.6-0.1,3.2-0.2c1.6-0.1,3,0,4.1,0.4c0.7,0,1.4,0.2,2.2,0.5c1.3,0.1,2.7,0.6,4.2,1.6
			c0.4,0,0.9,0.3,1.5,0.8l1.5,0.8l1.9,1.7c1,1,2,2.2,2.8,3.6c0.6,0.7,0.8,1.5,0.5,2.5c-1.1,4.5-4.6,8.9-10.5,13l-2.4,0.9l-4,2.2
			c1.2,1.9,2.8,4.2,4.7,6.8c0.1,0.4,0.7,1.2,1.7,2.3l2.5,3.5l0.9,1.5l2,2.5c0.1,0.4,0.5,0.9,1.2,1.4l1.3,1.4c1.1,1,1.6,2.1,1.3,3.3
			c-0.3,1.2-1.1,1.8-2.3,1.7l-1.9-0.3l-3.7-1.3L465,302.6z M454,266.8c-0.2,2.5-0.7,5.7-1.7,9.8c0.3-0.2,0.8-0.7,1.5-1.2
			c0.8-0.7,2.3-1.7,4.7-2.9l1.2-0.8l2.5-1l2.7-1.6c-0.1-0.1,0.1-0.4,0.5-0.8c1.1-1.7,1.8-3.2,2.1-4.5c0-0.7,0-1.2-0.2-1.6
			c-0.2-0.4-0.8-0.6-1.9-0.8c-0.1-0.1-0.6-0.3-1.5-0.5c-2.2-0.2-3.6-0.1-4.3,0.1c-0.7,0.2-1.3,0.3-1.6,0.3l-1.2,0.2l-1.3,0l-0.5,2.1
			c0,0.1-0.1,0.6-0.4,1.6C454.3,265.6,454.2,266.1,454,266.8z"/>
	</g>
	<g class="st4">
		<path class="st0" d="M511.4,265.7c-0.4,0.2-0.9,0.3-1.3,0.3c-0.4,0-1.6,0-3.5,0.1c-1.2,0.2-2.4,0.5-3.7,0.9l-0.1,0
			c0,0.9-0.3,2.3-0.9,4.2c0,0.6-0.2,1.7-0.5,3.1c0,0.4-0.1,0.8-0.3,1.3c-0.2,0.4-0.3,1.1-0.3,2c-0.4,2.2-0.6,3.3-0.6,3.5
			c0,0.2,0,0.5,0,0.9c-0.1,0.4-0.2,0.9-0.4,1.7c-0.2,0.7-0.3,1.6-0.3,2.6c0,1-0.2,1.9-0.5,2.7l0,0.9c0,1.9-0.1,3.2-0.3,4
			c-0.3,0.8-0.4,1.5-0.4,2c0,0.6-0.2,1.4-0.5,2.6c-0.3,1.2-0.4,2.5-0.4,4.1l0.5,0c1.3-0.1,2-0.1,2.1-0.1s0.4,0,1.1-0.2l1.3,0.1
			l0.8,0c0.2,0,0.5,0.2,1,0.6c0.5,0.4,0.9,0.8,1.1,1.2c0.4,0.4,0.5,0.7,0.3,1.1c-0.1,0.3-0.8,0.9-1.8,1.6l-1.5,0.4
			c-0.2,0.2-0.5,0.3-1.1,0.5c-0.6,0.2-1.1,0.3-1.5,0.3c-1.2,0.2-1.9,0.7-2.2,1.3c-0.2,0.4-1.5,0.5-3.8,0.4l-2.7-0.1l-1.5,0.4
			c-1.3,0.5-2.5,0.6-3.5,0.3c-1-0.3-1.7-0.5-2-0.7s-0.7-0.4-1.2-0.8c-0.5-0.4-0.6-0.9-0.6-1.4c0.1-0.5,0.3-1.2,0.6-2.2
			c0.9-0.7,1.6-1.2,1.9-1.4c2.6-0.7,4.2-1.2,4.9-1.4c0.1-1.7,0-2.8-0.1-3.1c0.2,0,0.4-1.2,0.7-3.4c0.1-0.2-0.1-0.7-0.3-1.5l0-0.5
			c0.2-1.5,0.2-2.8,0-4c0-0.1,0.1-1,0.4-2.8c0.3-0.3,0.3-1.2,0.1-2.5c0.2-1,0.5-1.8,0.6-2.4l0.1-1.1c0-0.3,0.2-1.3,0.6-2.8l0-0.8
			l0.2-0.6c1.1-3.9,1.8-6.7,2.2-8.5c-0.4,0.1-0.7,0.1-0.8,0.1l-2.6,0.3c-2,0.5-3.8,0-5.3-1.5c-1.3-1.8-1.2-3.4,0.1-4.6
			c0.8-0.7,2-1.1,3.7-1.3c1.4-0.4,2.4-0.7,2.8-0.9c0.5,0,1.8-0.5,3.8-1.6c2-0.2,3.1-0.3,3.4-0.3l3.7-0.4c0.5,0,1.1,0,1.9,0.2
			c0.8,0.2,1.3,0.3,1.4,0.6c0.7,0.2,1.5,0.5,2.5,1l1.8,1.8c0.7,1.1,1.2,1.9,1.4,2.4C511.9,265,511.8,265.4,511.4,265.7z"/>
	</g>
	<g class="st4">
		<path class="st0" d="M539.4,264.9c-0.1,1-0.1,1.9-0.1,2.9c0,1.9-0.1,3.6-0.3,5.2c-0.2,1.5-0.3,2.6-0.4,3.1c0,0.6-0.1,1.1-0.2,1.6
			l0,0.6c0,1-0.2,1.9-0.6,2.9l-0.2,3.6l-0.3,7.5l0,4c0,2-0.1,3.1-0.3,3.3l0.1,2.1l0,0.9l-0.1,1c0,0.2,0,0.3-0.2,0.3
			c0.1,0.6-0.1,1.3-0.7,2c-0.6,0.7-1.4,1.2-2.2,1.4l-1.4,0.2c-0.2,0-0.5,0-0.9,0c-0.4,0-0.7,0-1-0.1c-0.3-0.1-0.5-0.2-0.8-0.4
			c-0.5-0.3-0.9-0.9-1.1-1.8c-0.2-0.3-0.5-1.9-1-4.8c0-0.6-0.1-1.4-0.2-2.4l0.2-1.9l0-1.5c0-1,0.1-1.6,0.3-2c-0.2-0.3-0.1-1,0.4-2.1
			c-0.4-0.5-0.4-1.5,0.1-3.2c-0.2-0.7-0.2-1.1,0-1.3c0.1-0.3,0.2-1.1,0.1-2.2l0.1-0.8c0-1.5,0.1-2.9,0.4-4.2c-0.1-0.2-0.1-0.6,0-1.3
			c0.1-0.7,0.2-1.5,0.2-2.5l0-0.6c0-0.8,0.1-1.6,0.1-2.5l0.1-0.7c0-0.3,0.1-1,0.2-1.9c0.1-1,0.2-2,0.3-3l-0.2,0
			c-5.6,1.6-9,2.4-10.3,2.4l-1.3,0.1c-0.8,0-1.6-0.1-2.5-0.4c-0.4-0.2-0.7-0.8-1-1.7c0-1.7,0.4-3,1.1-3.8c0.8-0.8,2.2-1.5,4.3-2.3
			c0.5-0.1,3.8-1.2,9.8-3.4l3.4-0.8c0.6-0.2,1.6-0.3,3-0.3c1.4,0,2.5-0.2,3.4-0.5s1.9-0.6,3-0.8c1.1-0.2,2.3-0.4,3.5-0.6
			c0.6-0.2,1.6-0.2,3.2,0.1c0.6,0,1.5,0.6,2.8,1.8l0.5,1.1c0,0.3,0.1,0.6,0.2,0.7c0.2,1.4-0.1,2.4-0.9,2.8c-0.3,0.2-0.9,0.4-1.7,0.6
			c-1.1,0-3.7,0.6-7.9,1.6c-0.2,0-1.3,0.2-3.2,0.5l-0.1,1L539.4,264.9z"/>
	</g>
	<g class="st4">
		<path class="st0" d="M561.9,288.3l0.2,3.2c0.2,3.3,0.6,5.1,1,5.4c0,0.1,0.1,0.7,0.5,1.9c0,0.4,0.3,1.1,0.8,1.9
			c0,0.3,0.8,0.8,2.4,1.7c0.6,0,2.1-0.7,4.5-1.9l5.5-2.5c0.7-0.3,1.3-0.2,2,0.1c0.6,0.4,1.1,1,1.3,2c0.2,1,0.2,1.7,0.1,2.1
			s-0.6,1-1.2,1.7c-0.7,0.7-1.1,1.2-1.3,1.4c-0.2,0.3-0.6,0.6-1.1,0.9c-0.6,0.3-1.2,0.7-1.9,1.1c-0.7,0.4-1.2,0.6-1.4,0.8
			c-2,1.1-3.5,1.6-4.7,1.5c-0.7,0.1-1.4,0-2.1-0.2c-0.7-0.2-1.1-0.3-1.2-0.3c-0.1,0-0.3,0-0.6,0c-0.3-0.1-0.7-0.1-1-0.2
			c-0.3-0.1-1.2-0.2-2.5-0.3c0-0.2-0.4-0.4-1.2-0.5l-2.3-1.6c-0.4-0.2-0.8-0.8-1.3-1.9l-0.8-1.1c-0.2-0.1-0.6-0.7-1-1.8
			c-0.2-0.2-0.4-0.7-0.5-1.4c-0.3-0.6-0.5-1.4-0.6-2.4c-0.2-0.2-0.5-1.2-0.9-2.9c-0.5-2.2-0.7-4.3-0.5-6.1c-0.1-1,0-2,0.3-3
			c0-0.4,0-0.8,0.1-1.3c0.2-1.4,0.3-2.5,0.3-3.2c-0.3-0.7-0.1-2.5,0.6-5.4c0-0.4,0.1-1.1,0.4-1.9c0.3-0.8,0.4-1.7,0.4-2.6l0.5-1.5
			c0-0.4,0.2-2,0.8-4.8c0.3-1,0.5-1.6,0.5-1.8l1.7-4.3l0.9-1.3c0.3-0.4,0.9-0.8,1.6-1.1c0.3-0.3,1.1-0.3,2.5-0.1
			c0.9,0.3,1.5,0.5,1.8,0.8c0.4,0.1,0.8,0.2,1.4,0.1l6.1-0.8c1.5,0,2.6,0.1,3.1,0.3c0.5,0.2,1.1,0.6,1.6,1.1
			c0.5,0.5,0.8,1.1,0.7,1.7c-0.1,0.6-0.3,1.1-0.6,1.4c-0.6,0.6-1.9,1.4-3.6,2.3c-3.1,2-4.8,3-5,3.2l-1.8,1c-0.8,0.6-1.2,1.2-1.4,1.8
			c-1.2,6-1.8,9.4-1.9,10c-0.1,0.7-0.1,1.1-0.1,1.2c0,0.1,0,0.2,0,0.3l1.6-0.3c2.3-0.9,3.6-1.2,4.1-1c0.2,0,0.5-0.1,0.9-0.3
			c1.9-0.8,3.6-1.2,5.1-1.2c0.3-0.2,0.5-0.1,0.9,0.3c0.3,0.3,0.6,0.8,0.8,1.3c0.4,1.3,0.1,2.4-1,3.2c-2.1,1.6-4.7,3-7.6,4.1
			c-0.9,0.9-2.3,1.5-4.1,1.8L561.9,288.3z"/>
	</g>
	<g class="st4">
		<path class="st0" d="M617,296.2c-0.8-0.1-2.1-0.5-3.8-1.4c-0.4-0.3-1.2-0.7-2.5-1.3c-1.2-0.3-2.8-1.2-4.8-2.6c0,0-0.3-0.4-0.9-1.1
			c-0.8-0.4-1.6-1.4-2.7-2.9c-0.1,0-0.2-0.1-0.3-0.2c-0.1-0.1-0.4-0.3-0.7-0.6c-0.3-0.3-0.7-0.8-1.2-1.5c-0.5-0.7-1.2-1.5-2.2-2.3
			l-0.3,0.1c0.1,0.3,0.1,0.8,0.1,1.4l0.4,1.5l0.7,4.6l0.8,7.7c0.3,0.4,0.5,1,0.5,2.1c0.1,0.4,0.2,1.1,0.1,2.1c0,1-0.2,1.7-0.7,2.1
			c-0.4,0.4-1.4,0.8-2.9,0.9c-0.6-0.1-1.5-0.6-2.7-1.6c-0.4-0.1-1.1-0.7-2.2-2c-0.1-0.9-0.3-1.5-0.4-1.7c-0.1-0.2-0.2-0.5-0.3-0.9
			c-0.1-0.4-0.1-0.6-0.1-0.7c-0.1,0.1-0.2-0.4-0.4-1.5l-0.1-0.5c-0.1-0.2-0.1-1.1-0.2-2.6c-0.3-1.1-0.5-1.8-0.6-2.3
			c-0.1-0.4-0.1-1,0.1-1.7l-0.5-2.1l-0.5-2.1c0.1-1-0.1-2.1-0.4-3.3c-0.1-0.6-0.2-1.3-0.3-1.9c-0.1-0.6-0.2-1.3-0.2-2
			c-0.3-1.1-0.4-2-0.5-2.6c0-0.6,0-1.1-0.1-1.3c0-0.2-0.1-0.6-0.2-1.1l-0.3-3.4l-1-4.9l-1.1-0.4c-1.8-0.2-3.1-0.6-4-1.1
			c-0.3-0.1-0.5-0.5-0.6-1.1c-0.1-0.7,0.1-1.3,0.6-1.8c0.7-0.2,1.6-0.9,2.8-2.1c0.2,0,0.5-0.4,1.2-1.1l1.3-0.8
			c0.1-0.2,0.7-0.6,1.7-1.3c0.3-0.1,0.6-0.3,1.1-0.7c0.5-0.4,1-0.8,1.6-1c0.5-0.2,1.5-0.6,3-1.2c1.5-0.6,2.8-1,4-0.9
			c0.7-0.2,1.4-0.2,2.2-0.2c1.2-0.3,2.7-0.3,4.5,0.1c0.4-0.1,0.9,0,1.7,0.3l1.6,0.3l2.3,1c1.3,0.6,2.6,1.4,3.8,2.5
			c0.8,0.5,1.2,1.2,1.3,2.2c0.5,4.6-1.5,9.9-5.8,15.7l-2,1.6l-3.1,3.4c1.7,1.4,4,3.1,6.6,5c0.2,0.3,1,0.9,2.3,1.7l3.5,2.5l1.3,1.1
			l2.7,1.8c0.2,0.3,0.8,0.6,1.6,1l1.6,0.9c1.4,0.6,2.2,1.5,2.3,2.8c0.1,1.2-0.4,2-1.7,2.4l-1.9,0.3l-3.9,0L617,296.2z M595,265.8
			c0.6,2.4,1.1,5.7,1.5,9.8c0.2-0.3,0.6-0.9,1-1.7c0.5-0.9,1.7-2.3,3.5-4.3l0.9-1.1l2-1.8l2.1-2.4c-0.1-0.1-0.1-0.4,0.2-0.9
			c0.5-1.9,0.7-3.6,0.5-4.9c-0.2-0.7-0.4-1.1-0.7-1.4c-0.3-0.3-1-0.3-2.1-0.1c-0.1-0.1-0.6-0.1-1.6,0c-2.1,0.6-3.5,1.1-4.1,1.5
			c-0.6,0.4-1.1,0.7-1.5,0.8l-1.1,0.6l-1.3,0.4l0.2,2.2c0,0.1,0,0.6,0.1,1.6C595,264.6,595,265.1,595,265.8z"/>
	</g>
	<text class="st2 st3"> </text>
</g>
</svg>
