<?xml version="1.0" encoding="utf-8"?>
<!-- Generator: Adobe Illustrator 25.2.0, SVG Export Plug-In . SVG Version: 6.00 Build 0)  -->
<svg version="1.1" id="Layer_1" xmlns="http://www.w3.org/2000/svg" xmlns:xlink="http://www.w3.org/1999/xlink" x="0px" y="0px"
	 viewBox="0 0 482 811" style="enable-background:new 0 0 482 811;" xml:space="preserve">
<style type="text/css">
	.st0{fill:#FCBE8C;}
	.st1{fill:#F300B4;}
	.st2{fill:#E8E8E8;}
	.st3{fill:#CC00A1;}
	.st4{fill:#2A4C72;}
	.st5{fill:#653715;}
	.st6{fill:#FCC998;}
	.st7{fill:#EEEEEE;}
	.st8{fill:#090706;}
	.st9{fill:#245D8B;}
	.st10{fill:#724120;}
	.st11{fill:#326798;}
	.st12{fill:#9B007E;}
	.st13{fill:#FF22D0;}
	.st14{fill:#FCFCFC;}
	.st15{fill:#919191;}
	.st16{fill:#BBBBBB;}
</style>
<path class="st0" d="M253.7,299h-13.5c-42,0-76-34-76-76V101.8c0-42,34-76,76-76h13.5c42,0,76,34,76,76V223
	C329.8,265,295.7,299,253.7,299z"/>
<rect x="157" y="297.2" class="st1" width="185.5" height="376.2"/>
<rect x="247" y="456" class="st2" width="12.1" height="218.1"/>
<rect x="247.2" y="281.3" class="st3" width="7.7" height="174.6"/>
<rect x="239.5" y="2.2" class="st4" width="16.9" height="50.9"/>
<rect x="238.5" y="52.9" class="st5" width="23.5" height="44.6"/>
<rect x="237.3" y="93" class="st6" width="23.5" height="191.8"/>
<polyline class="st1" points="78.7,498.4 107,515 118.8,502.6 "/>
<g>
	<path class="st0" d="M94.4,737c0.9,0,1.7,0.1,2.1,1.1C95.7,738,94.9,737.8,94.4,737z"/>
	<path class="st1" d="M154.2,356.4V394l-35.4,108.8l-40.1-4.5c-7.3-7.9-5.8-17-2.7-26.1c5.2-15.5,10.1-31.1,15.5-46.6
		c3.3-9.3,6.5-18.7,9.3-28.1c4.2-14.1,9-28.1,13.7-42c4.1-12.3,7-25.2,12.9-36.9c4.5-8.8,10.9-15.6,20.2-19.7c4.1-1.8,8-4.3,12-6.5
		c5.2,3.1,6,6,2.3,10.8c-6.6,8.7-13.2,17.4-20.1,26c-2.2,2.7-2.3,4.3,0.3,6.9c4,4,9.2,7.2,11.3,12.9c0,2.5-0.1,4.9,0,7.4
		c0.2,12.5,1.8,25,0.7,37.6"/>
	<path class="st7" d="M110.4,432.2"/>
	<path class="st3" d="M284.8,10.1c21.4,11.8,39.1,27.1,47.2,51c3.9,11.5,9.5,22.6,10.3,35.1c0.8,11,0.7,21.9-3.1,32.5
		c-4.3-9.9-7.6-19.9-13-29.3c-17.3-29.9-40.9-45.1-77.1-46.5l0,0c0-11-0.3-21.9,0.1-32.9c-0.5-4.6-3.5-6.7-6.2-6.6
		c-13.7,0.5-15.6,0.1-23.7,0.1c-2.3,0-4.9,0.6-7.1-1.4c6.6-5,14.2-7.9,22.2-10.1C234.4,2.1,263.2-2.7,284.8,10.1z"/>
	<path class="st8" d="M89.4,775.9c-0.7,8.4-1.3,16.8-2.1,25.2c-0.3,3.6-2.3,6.6-3.8,9.8c-1,0-2,0-3,0c-5.4-11.2-11.2-22.2-16.1-33.7
		c-6.1-14.7-2.5-19.9,5.6-26.8c6.2-5.2,12.5-10.5,15.8-18.3c0.6-1.4,1.3-2.7,1.6-4.1c0.7-2.9-0.3-4-3.4-3.1
		c-5.7,1.8-11,4.3-16.5,6.7c-2.7,1.2-5.5,2.2-8.2,3.3c-1.6,0.6-2.8,0.7-3.6-1.2c-0.9-2.3,1.2-2,2.1-2.4c5.3-2.3,10.7-4.3,16-6.5
		c5.9-2.4,11.1-5.8,15.9-10c6.3-5.5,13.2-8.4,21.9-6.1c5.7,1.5,11.8,2.2,17.7,1.1c3.1-0.6,3.7,1.3,4.3,3.4c-1.7,1.1-3.3,2.2-2.2,4.6
		c-0.4,2.9,1.4,5.3,1.7,8c-0.6,0-1.3-0.1-1.9-0.1c-1.1-2.9-2.2-5.8-3.6-9.6c-3,7.3-2.9,14.1-3.6,20.7c-0.8,0.7-0.7,1.3,0.1,1.9
		c0,1.7,0,3.3,0,5c-0.1,0.1-0.4,0.2-0.3,0.3c0.1,0.3,0.2,0.5,0.3,0.7c0,2.1,0.1,4.3,0.1,6.4c0.1,0.5,0.2,0.9,0.2,1.4
		c-1.4,1.7-3.3,0.8-5,1.1c-1.4-1.1-3.2-0.8-4.8-1.1c-7.9-4.7-16-9.3-25.1-11.3c-1.5-0.9-3-0.7-4.1,0.4c-4,3.9-8.9,7.5-10.9,12.7
		c-1.3,3.4,2.2,6.9,3.5,10.4c0.9,2.5,2,4.9,3.2,7.2c0.9,1.7,1.8,3.7,4.3,3.6C86.9,776.9,88.1,776.4,89.4,775.9z M94.4,737
		c1.2,0.5,1.4,0.9,2.1,1.1c7.2,4.4,13.4,10.3,21.7,12.9c2.4,0.8,3.5,0.7,3.3-2.5c-0.4-6.1-0.2-12.3-0.2-18.5
		c4.1-12.8,3.8-13.2-9.2-11.8c-0.5,0.1-1,0.2-1.5,0.2c-8.7-0.1-15.8,2.2-17.9,12c-0.1,0.3-0.3,0.6-0.5,0.9
		C89.5,734.6,91.1,736.1,94.4,737L94.4,737z"/>
	<path class="st2" d="M253.1,534"/>
	<path class="st2" d="M253.1,538"/>
	<path class="st9" d="M421.6,660c5.8-6.3,4.8-14.1,4.8-21.7c0-7.8,0.1-15.5,0.2-23.3c8,2,14.7,6.5,21,11.7
		c13.3,11,15.2,24.8,6.2,41.9c-5.9,11.2-15.4,16.6-27.6,17.3c-19.1,1.1-37.5,5.6-55.8,11.1c-8,2.1-16.1,3.7-23.6,7.3
		c-1.4,0.3-2.9,0.6-4.3,0.9c-0.8,0.2-1.7,0.4-2.5,0.6c-0.7,0.3-1.4,0.5-2.1,0.8c-1.2,0.4-2.5,0.5-3.4,1.5c-2.1-0.6-3.2,1-4.6,1.9
		c-2.4-0.5-4.6,0.5-6.7,1.3c-10.5,3.9-21,7.5-32,9.5c-5.8,1-11.8,1.1-17.1,4.2c-12-0.6-24,0.2-35.6,2.5c-13,2.6-26,4.1-39.1,6
		c-10.8,1.6-21.6,3.2-32.4,4.5c-4.8,0.6-9.4,1.6-13.7,3.6c-3.1,1.5-5.9,1.6-8.8-0.1c-2.9-6.4-6.1-12.7-8.3-19.5
		c-0.4-3.2-0.8-6.3-1.2-9.5c3.4-1.7,6.4-4.5,10.5-4.6c1.4,0.1,2.6-0.4,3.8-0.9c16-7.2,31.9-14.6,48.5-20.4
		c10.5-3.7,21.2-7.1,31.4-11.7c18.2,0,36.4,0,54.6,0l0.3,0l0.2-0.1c2.3,8.8,4.6,17.6,7,26.4c0.4,1.4,0.5,3.7,3,2.9
		c2.7-0.8,1.1-2.7,0.7-4.1c-2.2-8.4-4.4-16.8-6.7-25.2c9.9,0,19.9,0.1,29.8,0.1c1.9,6.5,3.7,13,5.6,19.5c0.5,1.6,0.1,4.1,2.9,3.5
		c2.9-0.7,1.3-2.8,0.9-4.3c-1.5-6.2-3.2-12.5-4.9-18.7c27.7,0,55.5,0,83.2-0.1c1.9,0,4,0.7,5.7-0.9c2.5,0,4.9-0.2,7.4-0.1
		c3.5,0.2,5.6-1.8,6.8-4.6C427.7,664.8,424,662.7,421.6,660z M270,710l0.1,0.1L270,710c-0.8-7.5-3.8-14.3-5.4-21.6
		c-0.2-0.7-0.8-1.4-1.4-1.9c-0.6-0.5-1.2-1.3-2.1-0.9c-1.3,0.6-0.7,1.6-0.5,2.5c1.8,6.7,3.7,13.4,5.4,20.1
		C266.6,710.8,268.1,710.7,270,710z"/>
	<path class="st10" d="M138.9,280.1c-13.7-5.5-27.3-11.1-39.3-20.8c2.8-0.7,5.2,0.1,7.7,0.4c22,2.7,38.5-2.7,47.9-23.8
		c0.6-1.4,2-2.8,0.5-5c-12.4,16.7-29,23.7-49.4,21.8c6.3-1,12.7-1.7,18.8-3.8c6.5-2.2,12.4-5.5,17.5-10.1c5-4.5,9-9.7,12.1-15.7
		c3.2-6.1,5.2-12.5,6.7-19.2c1.5-6.5,0.9-13,0.4-19.7c-4.5,10.5-8.9,20.8-19.8,26.1c12-11.3,15.9-26,17.2-41.7
		c0.8-9.1,0.2-18.3-1-27.4c-0.5-4.1-2-6-6.4-6c-8.2-0.1-15.5-3-22.4-8.2c14.1-2.6,17.6-14.2,22.1-24.9c5.7-10.4,13.3-18.9,23.5-25.1
		c22.8-13.9,46.7-24.3,74.1-24c0,0-0.1,0.3-0.1,0.3c0,12.6,0,25.1,0,37.7c0,2.3,0.1,4.6,1.2,6.7c-0.7,0.8-1.4,1.6-2.1,2.4
		c-9.6,8.3-20.5,14.6-32.5,20.8c5.7,1.8,10.5,3.1,14.3,6.5c0.9,0.8,1.8,1.7,0.8,2.9c-0.8,1-1.8,0.4-2.7-0.1c-3.8-2-7.8-3.7-12-4.6
		c-3.5-0.8-6.9-2.2-10.7-0.6c-6.1,2.6-12.4,4.8-18.8,6.3c-2.1,0.5-3.3,1.3-3.3,4c0,13-0.7,25.9,0.3,38.9c1.2,15.5,6.2,29.5,17,41.1
		c5.6,5.9,10.9,12.1,16.3,18.2c1.7,1.9,3.3,3.8,2.5,6.6c-16,1.7-30.2,8.2-44.1,15.7C162.3,262.7,150.7,271.5,138.9,280.1z"/>
	<path class="st1" d="M250.1,456c-12,0.4-23.9-0.8-35.9,0.6c-1.1,0.1-2.2-0.5-3.3-0.8c0.1-3.9,0.2-7.9,0.3-11.8
		c8.6,0.2,15.3-4.4,22-8.9c3.1-2.1,2.2-6.4-1.1-6.9c-7.5-0.9-15.1-4.2-22.6-5c-0.1-0.3-0.8-0.8-0.8-1.2
		c-5.2-35.5-13.7-69.8-20.9-104.9c-5.6-11.9,0.7-33.1,19.9-39.2c7.7,8.2,15.4,15.1,23,23.4c2.5,2.8,1.8,1.7,4-1.1
		c4.9-6.4,9-13.3,15.4-16.2C250.1,341.4,250.1,398.7,250.1,456z"/>
	<path class="st3" d="M250.1,456c0-57.3-0.1-115.3-0.1-172.6c0.9,0.7,3.9,0.7,4.6,1.6c4.2,5.7,7.7,9.7,11.9,15.4
		c1.4,1.9,2.3,3.1,4.6,0.6c7.6-8.2,6.4-17.2,14-25.4c1.2,0,10.3,4.7,11.3,5.4c11.4,8.3,18.6,20.2,16.2,33.8
		c-3.9,22-4.5,44.9-13.5,66.2c-2.9-1.7-4.7-1.3-5.3,1.5c-0.8,3.4,3,4.4,6.2,4.6c-2,12.3-5.2,24.2-7.2,36.5c-7.2,0.5-16.9,3.6-24,4.9
		c-3.4,0.6-3.5,4.6-0.5,6.9c1.8,1.4,3.7,2.9,5.8,3.8c4.7,2,11.9,5.1,17.6,2.3c0.1,2,0.1,3.8,0.3,5.8c-0.1,2.3,1.2,5.6,1.1,7.9
		c-1.7,1.4-7.9,0.8-9.9,0.8c-9.9,0-19.9,0-29.8,0C252.1,456,251.1,456,250.1,456z"/>
	<path class="st7" d="M81.6,506.4"/>
	<path class="st9" d="M153.5,349c-2.2-5.7-7.3-8.9-11.3-12.9c-2.6-2.6-2.5-4.2-0.3-6.9c6.9-8.5,13.5-17.2,20.1-26
		c3.6-4.8,2.9-7.7-2.3-10.8c-6.1-3.1-12.6-5.4-19.2-7.2c-4.2-1.2-4.5-2.4-1.5-5.2c11.8-8.5,23.4-17.4,36.3-24.3
		c13.9-7.5,28.2-14,44.1-15.7c0,0,0.4-0.1,0.4-0.1c-0.1,11.3-0.2,22.6-0.4,33.9c-4.7,0.9-9.2,2.1-13.1,5.1
		c-12.9,7.4-19.8,22.4-16.7,37.5c7.2,35.1,15,70.1,20.2,105.6c0,0.3,0.3,0.6,0.4,0.9c0.1,3.1-0.1,6.2,1,9.2l0,0
		c0,3.9,0.1,7.9,0.1,11.8c-0.1,3.9-0.2,7.9-0.3,11.8c-0.6,0-1.1,0-1.7,0c-0.4-7.4,0.7-14.8-1.9-22.1c-4.8-13.1-9.1-26.4-16.4-38.5
		c-7.2-11.9-15.9-22.7-24.6-33.5C162.5,357.1,159.3,351.6,153.5,349z"/>
	<path class="st11" d="M229.1,675c-10.2,4.5-20.9,8-31.4,11.7c-16.6,5.8-32.5,13.2-48.5,20.4c-1.2,0.6-2.4,1-3.8,0.9
		c-0.7-3.4-3.8-3.3-6.1-3.9c-9.9-2.7-20.1-3.9-29.9-6.8c-16.9-5.1-34.2-7.4-51.8-8.3c-14-0.8-24.1-8.1-28.5-21.7
		c-4.3-13.3-0.7-24.9,8.8-35.2c7.7-8.4,17.5-12.7,27.4-17.1c5.2-2.4,10.5-4.7,16.3-7.3c0,13,0.2,25.3-0.1,37.5
		c-0.1,5.3,0.2,10.3,3,14.9c-5.1,2-2.4,6.5-2.9,9.8c-0.5,2.9,1.3,4.1,4.1,4.1c3.3,0,6.5,0.1,9.8,0.2c1.7,1.5,3.8,0.8,5.7,0.8
		C143.9,675,186.5,675,229.1,675z"/>
	<path class="st1" d="M249.1,52.9c-27.4-0.3-51.3,10.1-74.1,24c-10.2,6.2-17.8,14.7-23.5,25.1c-0.5-15.7-0.1-31.3,5.1-46.3
		c7.9-22.9,24.6-34,47.4-41.5c2.6-0.9,5.2-1.8,8.2-2c4.3-0.2,4.3-0.2,6.6-0.2c8.1,0.3,16.2-0.2,24.2,1.1c4.1,0.7,6.4,2,6.2,7
		C248.8,31,249.1,41.9,249.1,52.9z"/>
	<path class="st11" d="M153.5,349c5.8,2.6,9,8.1,12.8,12.7c8.7,10.8,17.5,21.5,24.6,33.5c7.3,12.1,11.6,25.4,16.4,38.5
		c2.7,7.3,1.6,14.7,1.9,22.1c-16.2,0.1-32.5,0.1-48.7,0.2c-2.7,0-3.3-1-3.3-3.5c-0.5-15.6-1.1-31.2-1.8-46.8
		c-0.2-3.9-0.8-7.8-1.2-11.7c1.1-12.6-0.5-25.1-0.7-37.6C153.4,353.9,153.4,351.5,153.5,349z"/>
	<path class="st0" d="M134.9,712.6c0.4,3.2,0.8,6.3,1.2,9.5c-1.5-1.4-3.1-2.8-4.6-4.2c-1.1-2.4,0.5-3.5,2.2-4.6
		C134.1,713.1,134.5,712.8,134.9,712.6z"/>
	<path class="st1" d="M425.7,494.1c0-6.3-0.1-12.6-0.1-18.9c0-5.6-0.9-5.3-2.9-10.8c-1.2-3.2-3.2-3.9-5.1-5.6
		c-2.6-2.5-5.4-2.7-8.6-2.7c-13.4,0.1-26.8,0-40.3,0c-3.3-13.4-8.2-26.2-13-39c-3.1-8.2-5.8-16.6-10.8-23.9c0-1.8-0.1-3.6,0-5.4
		c0.4-12.9,0.9-25.7,1.4-38.6c2-5.6,7-8.6,10.9-12.6c2.6-2.6,3.1-4.3,0.6-7.3c-6.9-8.5-13.5-17.2-20.1-25.9
		c-3.4-4.5-2.7-7.7,2.1-10.4c6.2,2.8,13,4.5,18.8,8.2c10,6.5,17.7,14.9,21.6,26.7c7,21,14.5,41.9,21.8,62.9
		c7.5,21.3,15,42.5,22.6,63.7c2.1,5.9,4.1,11.9,6.6,17.7c2.9,6.8,0.9,13-1.7,19.2C428.8,492.7,427.5,493.9,425.7,494.1z"/>
	<path class="st5" d="M250.2,97.7c-1.1-2.1-1.2-4.4-1.2-6.7c0-12.6,0-25.6,0-38.1c35.9-1.9,60.3,16.2,77.6,46.1
		c5.5,9.4,8.2,19.9,12.5,29.8c5.3,13.8,12.7,26.3,22.7,37.2c-0.2,0.3-0.4,0.5-0.6,0.8c-4-2-7.2-5.2-11.6-8.4
		c1.6,5.8,3.1,10.6,4.3,15.5c2.3,9,2.7,18.1,1,27.1c-0.8,4.4,2.9,7.1,3.7,11c-2.8,0.1-3.1-2.6-5.4-3.8c-4,16.3-14.1,28.9-20.9,43.9
		c-1.6,0.4-4.4,2.9-6.5,4.1c1-3.1,4.8-8.4,5.8-9.6c4.9-6.5,9-19.6,7.2-25.9c-3.6,12.6-8.5,25-16.7,34.6c-4.9-2.2-10.2-4.4-15.2-6.4
		c-9-3.6-17-8.1-26.8-8.7c-0.7-2.5,0.2-4.5,1.9-6.3c4.6-5,9-10.3,13.7-15.2c11-11.4,17.9-25,19.4-40.7c2.4-24.6,2.7-49.2-5.4-73.1
		c-4.7-14-12.5-26-24-35.5c-1.4-1.2-2.9-3.1-4.6,0c-7.8,15.1-19.5,26.7-32.4,37.4c-1.9,1.2-3.8,2.3-5.7,3.5
		c-0.3-0.3-0.5-0.6-0.8-0.8c2.5-2.5,5-5,7.5-7.4c7.8-6.9,13.9-15.1,18.8-24.3C262.8,84.6,257.2,91.7,250.2,97.7z M345.5,193.7
		c0.9,11.1,0.5,21.6-1.3,32C348,215.3,355.5,205.2,345.5,193.7z M344.1,162.4c1.5,10.5,3.2,21,7.4,30.9
		C352.3,182.2,349.3,172,344.1,162.4z"/>
	<path class="st4" d="M328.8,257.8c0.3,0.2,0.6,0.3,0.9,0.5c9.3,6.6,19.1,12.5,28,19.7c0.8,0.6,1.6,1.2,2.3,1.9c1,1,2.9,1.5,2.7,3.3
		c-0.3,1.8-2.3,1.5-3.6,2c-6.5,2.4-13.2,4.1-19.3,7.5c-4.8,2.8-5.5,5.9-2.1,10.4c6.6,8.7,13.2,17.4,20.1,25.9c2.5,3,2,4.7-0.6,7.3
		c-3.9,4-8.9,7-10.9,12.6c-2-0.2-2.9,1.2-3.9,2.5c-4.8,5.7-9.6,11.4-14.5,17c-13.2,15.1-23.2,32.1-30.5,50.7
		c-3.7,9.4-6.5,18.9-8.3,28.8c-0.1-2-0.3-4-0.4-6c0.3-6,0.7-12,1-18c2-12.3,4-24.6,6-37c0.6-2.3,1.4-4.6,1.2-7
		c4.6-21.9,9.8-43.7,13.7-65.8c2.4-13.7-2.9-25.1-14.3-33.3c-1-0.7-2-1.2-3.2-1.2c-3.7-3.1-8.3-4.5-12.8-5.9c0-11.2,0-22.5,0-33.7
		c9.8,0.6,18.9,3.9,27.9,7.6c5,2,9.9,4.4,14.8,6.6"/>
	<path class="st4" d="M325.1,255.6"/>
	<path class="st8" d="M346.8,704.3c7.5-3.6,15.6-5.2,23.6-7.3c10.9,10,23.4,17.1,37.3,21.9c1.2,0.4,3.8,0.4,2.7,3
		c-1,2.3-2.9,1.2-4.3,0.6c-7.1-3.1-14.2-6.3-21.3-9.5c-1.8-0.8-4-2.1-5.5-0.5c-1.5,1.6-0.2,3.8,0.6,5.6c3.4,8.5,9.9,14.4,16.5,20.2
		c8.4,7.3,11,12.3,5.5,25.1c-4.6,10.6-9.4,21.2-15.5,31.1c-0.8,1.4-1.4,3.4-3.3,3.3c-2-0.2-2.9-2.1-3.4-3.9
		c-0.7-2.2-1.6-4.5-1.6-6.7c0-8-1.3-15.9-1.7-23.9c1.5,0.4,2.9,0.8,4.2-0.4c0.3,0,0.8,0.1,1-0.1c6.2-5.2,7.1-13.3,10.4-20
		c0.2-0.4-0.3-1.3-0.6-1.8c-3.1-4.3-6.6-8.3-10.5-12c-1.2-1.1-2.6-1.4-4-0.2c-9.3,1.7-17.3,6.3-25.4,10.8c-1.6,0.2-3.2-0.1-4.6,0.9
		c-3,0.2-5.6-0.7-7.8-2.7c1.3-0.2,3,0.7,3-1.9c0-10.1,0.9-20.3-2-30.2c0.8-0.2,1.7-0.4,2.5-0.6c0.7,3,1.5,5.9,2.2,8.9
		c0.3,6.7,1.2,13.5,0,20.2c-0.8,4.4,1.3,4.3,4.3,3.1c8.4-3.2,15.4-8.8,22.8-13.5c3.9-0.4,4.8-1.9,2.5-5.3c-1.5-2.3-2.7-5-3.6-7.6
		c-1.1-3.1-3-4.3-6.2-4.6C358.7,705.9,352.8,705,346.8,704.3z"/>
	<path class="st0" d="M89.6,741.5c9.2,2,17.2,6.6,25.1,11.3c-9.7,3.3-17.5,9.1-24.1,16.8c1.1,2,3.2-0.5,3.9,1.5
		c-1.7,1.6-3.4,3.2-5.1,4.9c-1.3,0.5-2.6,1-3.8-0.1c-1-4.6-2.2-9.2-3.1-13.9C81,753.8,86.1,747.9,89.6,741.5z"/>
	<path class="st0" d="M380.6,762.9c-1.3,1.2-2.8,0.8-4.2,0.4c-1.3-1.4-2.5-2.8-3.8-4.2c0-0.4,0.1-0.8,0.1-1.2l0,0
		c2.6,0,3.7-0.7,1.5-3c-6.5-6.8-13.8-12.2-22.8-15.2c8.1-4.5,16.1-9.2,25.4-10.8c3.7,6.4,8.2,12.6,6.9,20.6
		C382.9,754,381.7,758.5,380.6,762.9z"/>
	<path class="st11" d="M274,724.9c5.3-3,11.3-3.1,17.1-4.2c11.1-1.9,21.6-5.5,32-9.5c2.1-0.8,4.3-1.8,6.7-1.3
		c-0.8,6.6-4.6,11.8-7.2,17.7c-2.9,2.6-5.9,2.6-9.5,1.1c-4.3-1.8-9-1.5-13.6-1.8C291.1,726.3,282.5,726.4,274,724.9z"/>
	<path class="st0" d="M124.3,751.3c0-2.1-0.1-4.3-0.1-6.4c0-0.3,0-0.7,0-1c0-1.7,0-3.3,0-5c0-0.6,0-1.3-0.1-1.9
		c0.7-6.6,0.6-13.4,3.6-20.7c1.4,3.7,2.5,6.7,3.6,9.6c1.2,6.7,5,12.4,6.9,18.9c-3.5,1.2-6.8,2.8-9.9,4.9
		C127,750.2,125.6,750.8,124.3,751.3z"/>
	<path class="st0" d="M340,705.8c2.9,9.9,2,20.1,2,30.2c0,2.6-1.8,1.7-3,1.9c-3-3.4-6.8-5.2-11.1-6.4c3.3-8.3,7.4-16.3,10-24.9
		C338.6,706.3,339.3,706.1,340,705.8z"/>
	<path class="st6" d="M372.7,757.9c0,0.4-0.1,0.8-0.1,1.2c-8.6-6.2-17.2-12.4-25.8-18.5c1.4-0.9,3.1-0.6,4.6-0.9
		c9,3,16.3,8.4,22.8,15.2C376.4,757.3,375.3,757.9,372.7,757.9c-0.1-0.1-0.3-0.2-0.4-0.2C372.4,757.8,372.6,757.8,372.7,757.9z"/>
	<path class="st6" d="M94.6,771c-0.8-2-2.8,0.6-3.9-1.5c6.5-7.6,14.4-13.5,24.1-16.8c1.6,0.3,3.4,0,4.8,1.1
		C111.2,759.6,102.9,765.3,94.6,771z"/>
	<path class="st0" d="M131.6,717.9c1.5,1.4,3.1,2.8,4.6,4.2c2.2,6.7,5.4,13,8.3,19.5c-1.1,0.6-2.1,1.6-3.5,1.4
		c-3.9-5.1-4.7-11.5-7.7-17C132.9,723.2,131.2,720.8,131.6,717.9z"/>
	<path class="st0" d="M322.7,727.7c2.5-5.8,6.4-11.1,7.2-17.7c1.4-0.9,2.5-2.5,4.6-1.9c-2.6,7.4-4.9,15-9.1,21.7
		C324.1,729.7,323.3,728.8,322.7,727.7z"/>
	<path class="st8" d="M325.4,729.9c4.2-6.7,6.5-14.3,9.1-21.7c0.9-1,2.2-1.2,3.4-1.5c-2.6,8.6-6.7,16.6-10,24.9
		C325.8,732.9,325.2,732,325.4,729.9z"/>
	<path class="st8" d="M133.3,725.9c3,5.5,3.8,12,7.7,17c0.1,0.9,0.6,2.1-0.3,2.8c-1.1,0.8-1.7-0.5-2.4-1c-1.8-6.5-5.6-12.2-6.9-18.9
		C132,725.9,132.6,725.9,133.3,725.9z"/>
	<path class="st5" d="M124.3,751.3c1.3-0.6,2.7-1.1,4-1.7c-0.3,2.2-1.9,2.8-3.7,3.1C124.5,752.3,124.4,751.8,124.3,751.3z"/>
	<path class="st5" d="M361.9,165.9c0.4,0.1,0.9,0.4,0.6,0.9c-0.1,0.2-0.8,0-1.2-0.1C361.5,166.4,361.7,166.2,361.9,165.9z"/>
	<path class="st0" d="M121.4,730c0,6.2-0.2,12.3,0.2,18.5c0.2,3.2-0.9,3.2-3.3,2.5c-8.3-2.6-14.5-8.5-21.7-12.9
		c-0.4-0.9-1.2-1.1-2.1-1.1c0,0,0,0,0,0c3.7-7.9,10.7-10.8,18.5-12.8C121.2,722,121.2,721.8,121.4,730z"/>
	<path class="st0" d="M121.4,730c-0.2-8.2-0.1-7.9-8.4-5.8c-7.8,2-14.8,4.9-18.5,12.8c-3.4-0.9-5-2.4-2.1-5.7
		c0.2-0.2,0.4-0.6,0.5-0.9c2-9.9,9.1-12.2,17.9-12c0.5,0,1-0.2,1.5-0.2C125.1,716.8,125.4,717.2,121.4,730z"/>
	<path class="st0" d="M89.6,741.5c-3.5,6.4-8.6,12.3-7.1,20.4c0.8,4.7,2,9.3,3.1,13.9c-2.5,0.1-3.4-1.9-4.3-3.6
		c-1.3-2.3-2.3-4.7-3.2-7.2c-1.3-3.5-4.8-7.1-3.5-10.4c2-5.2,6.9-8.8,10.9-12.7C86.6,740.8,88.1,740.6,89.6,741.5z"/>
	<path class="st8" d="M124.2,737c0,0.6,0,1.3,0.1,1.9C123.4,738.3,123.4,737.6,124.2,737z"/>
	<path class="st8" d="M124.2,743.9c0,0.3,0,0.7,0,1c-0.1-0.2-0.2-0.5-0.3-0.7C123.8,744.1,124.1,744,124.2,743.9z"/>
	<path class="st9" d="M289,448c1.8-9.9,4.6-19.4,8.3-28.8c7.3-18.6,17.3-35.6,30.5-50.7c4.9-5.6,9.7-11.3,14.5-17
		c1.1-1.3,2-2.7,3.9-2.5c-0.5,12.9-0.9,25.7-1.4,38.6c-0.1,1.8,0,3.6,0,5.4c-0.2,2.1-0.6,4.3-0.7,6.4c-0.6,18.8-1.2,37.6-1.8,56.4
		c-16.9,0-33.8,0.1-50.7,0.1c-1.1,0-2.4,0.3-3.1-1C288.8,452.6,288.9,450.3,289,448z"/>
	<path class="st0" d="M344.8,714.1c-0.7-3-1.5-5.9-2.2-8.9c1.4-0.3,2.9-0.6,4.3-0.9c5.9,0.7,11.8,1.6,17.7,2.1
		c3.2,0.3,5.1,1.5,6.2,4.6c0.9,2.6,2.1,5.3,3.6,7.6c2.3,3.5,1.4,5-2.5,5.4c-0.3-0.7-0.6-1.5-1-2.2c-4.5-8-13-8.9-20.5-11.7
		C346.2,708.4,344.4,709.6,344.8,714.1z"/>
	<path class="st4" d="M95.5,674.1c21.9-0.1,43.8-0.1,65.7-0.2c30.5-0.1,61.1-0.1,91.6-0.2c8.8,0,17.7,0,26.5,0.1
		c1.5,0,3.3-0.9,4.4,1.1c-18.2,0-36.4,0-54.6,0c-42.6,0-85.2,0-127.8-0.1C99.3,674.9,97.3,675.6,95.5,674.1z"/>
	<path class="st0" d="M284.2,674.9c1.6-0.5,3.1-1,4.7-1.5c-0.2,0.5-0.4,0.9-0.6,1.4c2.2,8.4,4.5,16.8,6.7,25.2
		c0.4,1.4,2,3.2-0.7,4.1c-2.6,0.8-2.6-1.4-3-2.9C288.9,692.5,286.6,683.7,284.2,674.9z"/>
	<path class="st0" d="M318.3,673.9c1.6,1.2,2.7-3.4,4.5-0.5c-0.1,0.5-0.1,1-0.2,1.5c1.6,6.2,3.3,12.4,4.9,18.7
		c0.4,1.5,2,3.6-0.9,4.3c-2.8,0.6-2.5-1.9-2.9-3.5c-1.9-6.5-3.7-13-5.6-19.5C318.2,674.6,318.3,674.3,318.3,673.9z"/>
	<path class="st0" d="M270,710c-1.9,0.7-3.3,0.8-4-1.8c-1.7-6.7-3.6-13.4-5.4-20.1c-0.3-1-0.8-2,0.5-2.5c0.9-0.4,1.5,0.4,2.1,0.9
		c0.6,0.5,1.3,1.2,1.4,1.9C266.2,695.6,269.2,702.5,270,710L270,710z"/>
	<path class="st4" d="M322.7,675c0.1-0.5,0.1-1,0.2-1.5c29.6,0.2,59.2,0.4,88.8,0.6c-1.7,1.6-3.8,0.9-5.7,0.9
		C378.2,675,350.4,675,322.7,675z"/>
	<path class="st4" d="M318.3,673.9c-0.1,0.3-0.1,0.7-0.2,1c-9.9,0-19.9-0.1-29.8-0.1c0.2-0.5,0.4-0.9,0.6-1.4
		C298.7,674.5,308.5,673.5,318.3,673.9z"/>
	<polygon class="st0" points="269.9,710 270.1,710.1 270,710 	"/>
	<path class="st6" d="M250,102c-2.5,2.5-5,5-7.5,7.4c-0.4,0.4-0.8,0.8-1.2,1.3c0.8,0.5,1.5,0.4,2-0.4c1.9-1.2,3.8-2.3,5.7-3.5
		c0.3,11.9,0.2,23.8,0.9,35.7c0.8,12.7,0,25.6,0.3,38.3c0.1,4.9-1,7.7-6.3,8.6c-2.4,0.4-7,1.2-6.3,4.9c0.6,3.4,4.5,1.1,6.9,1.7
		c0.3,0.1,0.7,0,1,0c3.3-0.3,4.9,1.1,4.8,4.6c-0.2,4.1,0,8.3-0.1,12.4c-6.6-2.2-13.2-1.2-19.8,0c3.1,7.4,9.9,9.8,16.7,11.9
		c2.1,0.6,3.2,1.1,3.1,3.4c-0.1,6.5-0.1,12.9,0,19.4c0,1.9-0.4,3.2-2.6,3.3c-9.1,0.2-17.4-2-23.2-9.6c-1.5-1.9-2.8-1.9-4.6-1.5
		c0,0-0.4,0.1-0.4,0.1c0.8-2.8-0.8-4.7-2.5-6.6c-5.4-6-10.8-12.2-16.3-18.2c-10.8-11.6-15.8-25.6-17-41.1c-1-12.9-0.3-25.9-0.3-38.9
		c0-2.6,1.2-3.4,3.3-4c6.5-1.6,12.7-3.7,18.8-6.3c3.7-1.6,7.2-0.2,10.7,0.6c4.2,0.9,8.2,2.6,12,4.6c0.9,0.5,1.8,1.1,2.7,0.1
		c1-1.2,0.1-2.2-0.8-2.9c-3.8-3.4-8.7-4.7-14.3-6.5c12-6.1,22.9-12.5,32.5-20.8C248.8,100.7,249.4,101.4,250,102z M217,156.1
		c4-0.3,7.3-2.4,10.8-4.1c1.6-0.8,0.2-1.4-0.4-2c-3.6-8.8-20.3-16.3-32.2-6.7c-2.5,1.2-3.3,2.6-1.2,5.2c2.4,3.1,4.9,5.8,8.9,6.5
		C207.3,158.2,212.1,157.1,217,156.1z"/>
	<path class="st0" d="M250,102c-0.6-0.6-1.3-1.3-1.9-1.9c0.7-0.8,1.4-1.6,2.1-2.4c6.9-6,12.5-13.1,18.6-19.9
		C263.9,86.9,257.9,95.1,250,102z"/>
	<path class="st12" d="M279.5,272.8c4.6,1.4,9.8,3.8,13.6,6.9c-7.6,8.2-15.3,16.4-22.9,24.6c-2.3,2.5-3.6,1-5-1
		c-4.2-5.7-8.3-11.4-12.6-17.1c-0.7-0.9-1.7-1.5-2.6-2.3c-5.9,5.6-10,12.6-14.8,19c-2.2,2.8-3.5,3.3-6.1,0.6
		c-7.6-8.3-15.3-16.4-23-24.6c3.9-3,9.7-5.2,14.4-6.2c8.5,1.2,15.6,3.8,23.7,6.3c3.6,1.1,5.7,1.8,9.2,0.9
		C262.2,277.7,270.8,275.2,279.5,272.8z"/>
	<path class="st3" d="M211.2,444c0-3.9-0.1-7.9-0.1-11.8c1.1-0.9,1.6-1.9,0.4-3.5c-0.2,1.4-0.3,2.4-0.4,3.5c-1.1-3-0.9-6.1-1-9.2
		c7.6,0.7,14.4,4.3,22,5.2c3.4,0.4,4.2,4.8,1.1,6.9C226.5,439.6,219.8,444.2,211.2,444z"/>
	<path class="st12" d="M289.6,424c-0.3,6-0.7,12-1,18c-5.7,2.8-10.1-0.9-14.8-2.9c-2.1-0.9-3.9-2.4-5.8-3.8c-3-2.3-2.9-6.3,0.5-6.9
		C275.6,427.1,282.4,424.5,289.6,424z"/>
	<path class="st12" d="M296.8,380c0.2,2.4-0.6,4.7-1.2,7c-3.2-0.2-6.1-1.6-5.2-5C291,379.2,293.9,378.3,296.8,380z"/>
	<path class="st0" d="M280.2,273.8c-8.7,2.4-17.4,4.7-26.1,7.1c-3.4,0.9-6.5,0.7-10.1-0.4c-8.1-2.5-16.2-5.5-24.7-6.6
		c0.1-11.3,0.2-22.6,0.4-33.9c1.8-0.4,3.1-0.4,4.6,1.5c5.8,7.6,14,9.8,23.2,9.6c2.3-0.1,2.7-1.4,2.6-3.3c0-6.5-0.1-13,0-19.4
		c0-2.3-1-2.8-3.1-3.4c-6.9-2-13.6-4.5-16.7-11.9c0.8,0.1,1.7,0.1,2.4,0.4c12.3,5.5,24.4,5.1,37.5-1.3c-4.3,0-7.5,0.3-10.6-0.1
		c-3.3-0.4-6.4-0.6-9.4,1c0-4.2-0.1-8.3,0.1-12.4c0.1-3.5-1.4-4.9-4.8-4.6c-0.3,0-0.7,0.1-1,0c-2.4-0.6-6.3,1.7-6.9-1.7
		c-0.6-3.7,3.9-4.4,6.3-4.9c5.3-1,6.4-3.7,6.3-8.6c-0.3-12.8,0.5-25.6-0.3-38.3c-0.7-11.9-0.6-23.8-0.9-35.7
		c12.9-10.6,24.6-22.3,32.4-37.4c1.6-3.2,3.1-1.2,4.6,0c11.4,9.5,19.2,21.5,24,35.5c8,23.9,7.8,48.5,5.4,73.1
		c-1.6,15.7-8.4,29.2-19.4,40.7c-4.7,4.9-9.1,10.2-13.7,15.2c-1.7,1.9-2.6,3.8-1.9,6.3C280.2,251.4,280.2,262.6,280.2,273.8z
		 M301.1,143c-9.3-7.4-23.1-4.8-31.4,6c-1.3,2-0.5,3.2,1.5,4.2c2.8,1.4,5.8,2.1,8.8,2.9c4.9,1,9.8,2.1,14.4-1c3.9-0.2,6-2.9,8.2-5.6
		C304.8,146.7,305.2,144.4,301.1,143z M306.3,127.5c-9.9-11.2-31.6-7.3-39.5,0c-0.8,0.7-1.3,1.6-0.7,2.6c0.9,1.4,2,0.6,3,0.1
		C280.9,124.4,292.9,121.7,306.3,127.5z"/>
	<path class="st0" d="M344.8,714.1c-0.4-4.5,1.4-5.7,5.6-4.1c7.5,2.8,16,3.7,20.5,11.7c0.4,0.7,0.7,1.5,1,2.2
		c-7.5,4.8-14.4,10.3-22.8,13.5c-3,1.1-5,1.3-4.3-3.1C346,727.6,345.1,720.9,344.8,714.1z"/>
	<path class="st0" d="M380.6,762.9c1-4.5,2.3-8.9,3-13.4c1.4-8-3.1-14.2-6.9-20.6c1.4-1.2,2.9-0.9,4,0.2c3.9,3.6,7.4,7.7,10.5,12
		c0.4,0.5,0.8,1.4,0.6,1.8c-3.4,6.7-4.2,14.8-10.4,20C381.4,763,381,762.9,380.6,762.9z"/>
	<path class="st0" d="M372.7,757.9c-0.1-0.1-0.3-0.2-0.4-0.2C372.4,757.8,372.6,757.8,372.7,757.9
		C372.7,757.9,372.7,757.9,372.7,757.9z"/>
	<path class="st5" d="M195.1,143.3c12-9.6,28.7-2.1,32.2,6.7c-3.6-1.6-6.5-5-11.5-4.8c2.9,3.7,2.9,7.2,1.1,10.9
		c-4.8,1-9.7,2.1-14.2-1c-2.1-5.5,0.3-9.4,5.4-12.5C203.2,141.7,199.2,143.3,195.1,143.3z M210.2,150.1c0.2-1.3-0.5-2.3-1.6-2.7
		c-1.5-0.5-2.6,0.4-3,1.8c-0.4,1.5,0.6,2.5,2.1,2.8C209,152.2,209.7,151.4,210.2,150.1z"/>
	<path class="st1" d="M250.1,213.1c3-1.6,6.1-1.5,9.4-1c3.1,0.4,6.3,0.1,10.6,0.1c-12.2,7.1-25.1,7.5-37.4,2c-0.7-0.3-1.8-0.6-2.5-1
		C236.8,211.9,243.4,210.8,250.1,213.1z"/>
	<path class="st7" d="M195.1,143.3c4.1-0.1,8.1-1.6,13.1-0.7c-5.1,3.1-7.5,6.9-5.4,12.5c-4-0.8-6.5-3.4-8.9-6.5
		C191.8,145.9,192.6,144.6,195.1,143.3z"/>
	<path class="st7" d="M217,156.1c1.8-3.7,1.8-7.2-1.1-10.9c5-0.2,7.9,3.3,11.5,4.8c0.6,0.6,2,1.2,0.4,2
		C224.3,153.7,221,155.8,217,156.1z"/>
	<path class="st5" d="M243.3,110.3c-0.5,0.8-1.2,1-2,0.4c0.4-0.4,0.8-0.8,1.2-1.3C242.8,109.7,243,110,243.3,110.3z"/>
	<path class="st3" d="M211,432.2c0.1-1.1,0.3-2.2,0.4-3.5C212.6,430.2,212.1,431.3,211,432.2C211,432.2,211,432.2,211,432.2z"/>
	<path class="st5" d="M269.8,149c8.2-10.8,22.1-13.5,31.4-6c-3.9,0.6-7.8-1.8-12.3,0.1c5.7,2.6,7.2,6.7,5.5,12
		c-4.6,3.1-9.5,2-14.4,1c-1.7-3.7-1.7-7.2,1.1-10.8C276.3,144.6,273.8,149,269.8,149z M285.2,147c-1.3,0-2.2,0.5-2.4,1.9
		c-0.3,1.5,0.5,2.6,2,2.8c1.5,0.2,2.5-0.8,2.5-2.3C287.3,148.1,286.6,147.2,285.2,147z"/>
	<path class="st10" d="M306.3,127.5c-13.4-5.8-25.4-3.1-37.1,2.7c-1,0.5-2.2,1.3-3-0.1c-0.6-1-0.1-1.9,0.7-2.6
		C274.7,120.2,296.4,116.3,306.3,127.5z"/>
	<path class="st7" d="M294.4,155.1c1.7-5.3,0.2-9.4-5.5-12c4.5-1.9,8.4,0.5,12.3-0.1c4.1,1.4,3.6,3.7,1.4,6.5
		C300.4,152.2,298.2,154.9,294.4,155.1z"/>
	<path class="st7" d="M269.8,149c4,0,6.5-4.5,11.3-3.8c-2.8,3.6-2.8,7.2-1.1,10.8c-3-0.8-6-1.5-8.8-2.9
		C269.3,152.2,268.5,151.1,269.8,149z"/>
	<path class="st2" d="M210.2,150.1c-0.4,1.3-1.2,2.1-2.5,1.9c-1.5-0.2-2.5-1.2-2.1-2.8c0.4-1.4,1.4-2.3,3-1.8
		C209.7,147.8,210.4,148.8,210.2,150.1z"/>
	<path class="st2" d="M285.2,147c1.4,0.2,2,1.1,2,2.3c0,1.5-1,2.5-2.5,2.3c-1.5-0.2-2.2-1.3-2-2.8C283,147.5,283.9,147,285.2,147z"
		/>
</g>
<path class="st13" d="M270.1,212.1c0,0-20.2,28.3-39.9,0.9C230.2,213,250.2,223.1,270.1,212.1z"/>
<path class="st1" d="M508.9,461.2"/>
<path class="st2" d="M425.6,659.4H255.9c-2.1,0-3.8-1.7-3.8-3.8V459.8c0-2.1,1.7-3.8,3.8-3.8h169.7c2.1,0,3.8,1.7,3.8,3.8v195.7
	C429.4,657.7,427.7,659.4,425.6,659.4z"/>
<path class="st14" d="M248.3,659.5H78.7c-2.1,0-3.8-1.7-3.8-3.8V459.9c0-2.1,1.7-3.8,3.8-3.8h169.7c2.1,0,3.8,1.7,3.8,3.8v195.7
	C252.2,657.8,250.5,659.5,248.3,659.5z"/>
<rect x="246.9" y="655.5" class="st14" width="12.1" height="19.1"/>
<path class="st14" d="M425.5,674.7H255.8c-2.1,0-3.8-1.7-3.8-3.8v-11.5c0-2.1,1.7-3.8,3.8-3.8h169.7c2.1,0,3.8,1.7,3.8,3.8v11.5
	C429.3,672.9,427.6,674.7,425.5,674.7z"/>
<path class="st15" d="M248.2,674.7H78.6c-2.1,0-3.8-1.7-3.8-3.8v-11.5c0-2.1,1.7-3.8,3.8-3.8h169.7c2.1,0,3.8,1.7,3.8,3.8v11.5
	C252.1,673,250.4,674.7,248.2,674.7z"/>
<path class="st16" d="M253.3,528.7c2.3-1.3,4.1-3.3,6.7-4.3c3-1.2,3.7,0.1,3.4,2.6c-0.6,5.4-6.1,10.3-12,10.6
	C250.7,534.5,252.1,531.6,253.3,528.7z"/>
<path class="st16" d="M251.5,583.6c0-13.9-0.1-27.9-0.1-41.8c6.5-2,12.9-5.3,19.6-0.4c2.3,1.7,4.5,2.4,1.1,5.7
	c-6.1,5.8-5.3,15.1,1.3,20.5c1.2,1,2.3,1.7,2.2,3.5c-0.6,8.8-10.5,15.6-19.1,13.2C254.9,583.8,253.2,583.8,251.5,583.6z"/>
<path class="st2" d="M251.4,583.7c-0.7,0-1.4-0.1-2,0c-12,2.3-12.6,2.4-18.4-8.2c-4.6-8.4-7.3-17.6-3-27.1c3.8-8.6,10.2-11,19.1-8
	c1.4,0.5,2.9,0.8,4.3,1.2c0,0,0.2,0.2,0.2,0.2c0,13.9,0.1,27.9,0.1,41.8L251.4,583.7z"/>
</svg>
