<?xml version="1.0" encoding="utf-8"?>
<!-- Generator: Adobe Illustrator 25.2.0, SVG Export Plug-In . SVG Version: 6.00 Build 0)  -->
<svg version="1.1" xmlns="http://www.w3.org/2000/svg" xmlns:xlink="http://www.w3.org/1999/xlink" x="0px" y="0px"
	 viewBox="0 0 500 500" style="enable-background:new 0 0 500 500;" xml:space="preserve">
<style type="text/css">
	.st0{fill:#FAFAFA;}
	.st1{fill:#E0E0E0;}
	.st2{fill:#FFFFFF;}
	.st3{fill:#F0F0F0;}
	.st4{fill:#BA68C8;}
	.st5{fill:#455A64;}
	.st6{fill:#263238;}
	.st7{fill:#EBEBEB;}
	.st8{opacity:0.1;}
	.st9{fill:#37474F;}
	.st10{fill:#FF22D0;}
	.st11{opacity:0.9;fill:#FFFFFF;}
	.st12{opacity:0.55;fill:#FFFFFF;}
	.st13{opacity:0.25;fill:#BA68C8;}
	.st14{opacity:0.35;fill:#FFFFFF;}
	.st15{fill:#4D2205;}
	.st16{fill:#FFBDA7;}
	.st17{fill:#F0997A;}
	.st18{fill:#FFA8A7;}
	.st19{fill:#F28F8F;}
	.st20{opacity:0.2;fill:#FF22D0;}
	.st21{fill:#792B89;}
	.st22{fill:#B16668;}
	.st23{opacity:0.6;fill:#FFFFFF;}
	.st24{opacity:0.35;fill:#FF22D0;}
	.st25{opacity:0.2;}
</style>
<g id="Floor">
	<path id="Floor_00000018954412494421822190000003839507798105980036_" class="st0" d="M80.3,246.8c-93.7,54.1-93.7,141.7,0,195.8
		c93.7,54.1,245.5,54.1,339.2,0c93.7-54.1,93.7-141.7,0-195.8C325.8,192.7,174,192.7,80.3,246.8z"/>
</g>
<g id="Plants">
	<g id="Plants_00000043454354151107944410000016816325024237621141_">
		<g id="XMLID_348_">
			<path class="st1" d="M456.7,202.5c-5.6,1.2-14.2,8.7-17.8,23.4c-3.2,12.9-2.9,23.6-1.3,32.7c1.1,0.8,2.2,1.6,3.3,2.5
				c0.3,0.2,0.6,0.4,0.9,0.6c1.1,0.9,2.3,1.8,3.4,2.7c0.3,0.2,0.5,0.4,0.8,0.7c0.2-2.9,0.6-6.5,1.3-10.8c0.2-1.5,0.5-2.9,0.8-4.3
				c4.1-20,13.1-24.7,17.3-33.5C470.1,206.4,463,201.1,456.7,202.5z"/>
			<g id="XMLID_406_">
				<path class="st2" d="M458.2,208.2c-8.8,7.9-18.6,29-16.4,53.5c-0.3-0.2-0.6-0.4-0.9-0.6c-2-24.4,7.9-45.4,16.7-53.4
					c0.2-0.1,0.4-0.1,0.6,0C458.4,207.8,458.4,208,458.2,208.2z"/>
			</g>
		</g>
		<g id="XMLID_342_">
			<path class="st3" d="M458.7,253.5c-2.3,3-5.6,7.4-8,15.4c-0.7-0.6-1.5-1.3-2.2-1.9c-0.2-0.2-0.5-0.4-0.8-0.6
				c-0.6-0.5-1.1-0.9-1.7-1.4c-0.3-0.2-0.5-0.4-0.8-0.7c0.2-5.3,1.6-12.7,3.1-17c2-5.4,5.1-11.5,7.9-14.4c6.8-7.2,14.8-7.9,17.6-2
				C476.6,236.7,465.9,244,458.7,253.5z"/>
			<g id="XMLID_429_">
				<path class="st2" d="M465.5,235.6c-5.7,3.4-15.3,18.5-17,31.4c-0.2-0.2-0.5-0.4-0.8-0.6c1.9-13.1,11.5-27.8,17.4-31.4
					c0.2-0.1,0.4-0.1,0.6,0.1C465.7,235.3,465.7,235.5,465.5,235.6z"/>
			</g>
		</g>
	</g>
	<g id="Plants_1_">
		<g id="XMLID_1047_">
			<g id="XMLID_00000016047532555728134570000012214407795756843176_">
				<path class="st3" d="M69.9,253.2c-1.3,0.8-2.6,1.7-3.8,2.5c-1.6,1.1-3.1,2.2-4.6,3.2c0-12.2-2.7-22.6-5.9-30.5
					c-1.7-4.1-3.6-7.4-5.3-9.9c-9.4-13.5-7.7-20.1-2.1-22c5.7-2,20.6,6.6,23,29.2C72.2,235.8,71,246.6,69.9,253.2z"/>
			</g>
			<g id="XMLID_1048_">
				<path id="XMLID_1049_" class="st2" d="M64.3,255.2C64.3,255.2,64.3,255.2,64.3,255.2c-0.3-0.1-0.5-0.3-0.5-0.6
					c4-20.9-3.3-44.4-12.4-54.1c-0.2-0.2-0.2-0.5,0-0.7c0.2-0.2,0.5-0.2,0.7,0c9.2,9.9,16.6,33.8,12.6,55
					C64.8,255,64.6,255.2,64.3,255.2z"/>
			</g>
		</g>
		<g id="XMLID_00000117644371881229017340000007948305450780853930_">
			<g id="XMLID_1044_">
				<path class="st1" d="M66.8,252.3c-0.2,1.3-0.4,2.3-0.8,3.5c-1.6,1.1-3.1,2.2-4.6,3.2c-2.5,1.8-4.9,3.6-7.2,5.5
					c-0.3,0.3-0.7,0.5-1,0.8c-3.6,3-7,6-10.2,9.1c0,0,0,0,0,0c0,0,0,0,0,0c-1.1,0.5-4-1.9-4.8-2.5c-1.4-1-2.5-2.4-3.2-4
					c-0.8-1.8-0.9-3.7-0.5-5.7c0.2-1,0.5-2,0.9-3c0.3-1,0.7-1.9,1-2.9c0.3-0.9,0.7-1.9,0.6-2.9c-0.2-2-1.8-3.5-3.4-4.8
					c-1.7-1.4-3.5-3.3-3.3-5.7c0.1-1.9,1.1-3.5,2.4-4.9c1.2-1.4,2.7-2.6,3.8-4.1c0.8-1.1,1.5-2.3,1.4-3.7c0-0.8-0.3-1.6-0.7-2.4
					c-0.8-1.6-1.8-3.1-2.3-4.8c-0.5-1.7-0.3-3.8,1.1-4.9c1.1-0.9,2.7-1,4.2-0.8c1.3,0.1,2.6,0.8,3.8,1.5c3.7,2.3,5.7,6.9,9.6,8.8
					c0.7,0.3,1.4,0.5,2.1,0.7c0.9,0.2,1.9,0.4,2.8,0.7c1.6,0.5,3.2,1.4,3.9,3c1.3,3-1.6,6.6-0.7,9.8c0.5,2,2,3.2,3.4,4.6
					c0.3,0.3,0.6,0.7,0.9,1.1c0.2,0.3,0.4,0.6,0.5,0.8C66.9,249.7,67,251,66.8,252.3z"/>
			</g>
			<g id="XMLID_00000177475026710021261000000015487455719596892341_">
				<path class="st2" d="M54.3,264.5c-0.3,0.3-0.7,0.5-1,0.8c0.7-17.9-6.6-37.2-12.4-43.2c-0.2-0.2-0.2-0.5,0-0.7
					c0.2-0.2,0.5-0.2,0.7,0C47.4,227.5,54.7,246.6,54.3,264.5z"/>
			</g>
			<g id="XMLID_00000090980015878294297970000006425918884096267949_">
				<path id="XMLID_00000167380445271011929420000011967695731909159074_" class="st2" d="M51.7,245.9c0,0-0.1,0-0.1,0
					c-6-2.2-13.5-2.9-13.5-2.9c-0.3,0-0.5-0.3-0.4-0.5c0-0.3,0.2-0.5,0.5-0.4c0.1,0,7.7,0.7,13.8,2.9c0.2,0.1,0.4,0.4,0.3,0.6
					C52.1,245.8,51.9,245.9,51.7,245.9z"/>
			</g>
		</g>
	</g>
</g>
<g id="Shadows">
	<path id="Shadow_88_" class="st1" d="M234.2,251.1L96,330.9c-2.2,1.3-2.2,3.4,0,4.6l189.8,109.3c2.2,1.3,5.8,1.3,8.1,0L432.1,365
		c2.2-1.3,2.2-3.4,0-4.6L242.2,251.1C240,249.8,236.4,249.8,234.2,251.1z"/>
	<path id="Shadow_00000065787087577752630910000006784016675628386495_" class="st1" d="M161.7,339.6c25,14.6,25,38.3,0,52.9
		c-25,14.6-65.6,14.6-90.7,0c-25-14.6-25-38.3,0-52.9C96.1,325,136.7,325,161.7,339.6z"/>
</g>
<g id="Lines">
	<path id="Line_00000110454751516599682770000013164829713045601416_" class="st4" d="M48.3,395.8c18.6,13.6,38.3,16.6,59.4,17.6
		c14,0.6,28-0.3,41.9-1.7c6.2-0.6,12.4-1.4,18.6-2.1c6.7-0.8,13.3-1.7,20.1-1.5c4.9,0.2,10.2,0.7,14.8,2.9c4.5,2.2,7.4,6.7,5.7,11.8
		c-0.8,2.2-2.2,4.1-3.8,5.7c-5.3,5.6-11.8,9.4-15.5,16.3c-1.3,2.4-2.3,6.3-0.9,8.6c3.4,5.7,14.9,5.7,20.3,5.5
		c14.7-0.6,23.5-2.9,33.4-6.5c15.2-5.6,27.2-14,38.2-22.5c3.3-2.5,6.7-4.8,10-7.4c0.6-0.4,0.8,0.9,0.4,1.2
		c-5.3,4.6-11.1,8.5-16.4,12.9c-5,4.1-10.4,7.7-16.1,10.7c-11.4,6-18.3,9.3-31.9,12.2c-3.4,0.7-11.5,1.8-14.9,2
		c-5.9,0.4-11.5,0.5-17.3-0.5c-3.5-0.6-8.2-2.7-9.5-6.5c-1.5-4.3,0-8.6,2.4-12.4c2.4-3.8,5.3-6.5,8.6-9.4c2.2-2,5.9-5.1,7.7-7.5
		c6.7-9.1-3-13.2-10.8-14.1c-5.7-0.6-12.6-0.4-18.2,0.3c-6,0.7-12.3,1.8-18.3,2.5c-14.2,1.6-26.8,2.6-41.1,2.5
		c-6.7-0.1-15.3-0.6-22.1-1.4c-22.1-2.4-39.9-11.4-47.4-20.4c-0.8-1-2.1-3.1-1.5-3.4C44.7,392.8,47,394.9,48.3,395.8z"/>
	<path id="Line" class="st5" d="M431.9,390.4c-4.6,0.3-8.7,1.6-11.7,3.7c-3,2.1-4.7,4.8-5.8,7.4c-2.1,5.1-2,10.4-4.6,15.4
		c-2.7,5.2-9.5,9.2-18.8,10.2c-4,0.4-8,0.1-11.7-0.7c5.2-3.9,8.5-8.7,6.1-13.6c-1.2-2.5-4.2-5.5-8.9-6.1c-5-0.7-10.2,2.1-12.7,4.3
		c-5.9,5.2-0.7,11.9,7.2,15.3c0.7,0.3,1.5,0.6,2.3,0.9c-5.1,3.1-11.5,5.5-18.4,6.9c-8.1,1.7-17.3,2.1-25.5,0.4
		c-10.1-2.1-17.5-6.8-23.6-11.7c-1.5-1.3-3.1-2.5-4.7-3.7c-0.6-0.5-3.1-0.4-2.6,0.4c4.5,6.2,12.7,12,22.8,15.4
		c8.5,2.9,18.7,3.4,28.2,2.3c9.3-1.1,18-3.9,24.9-7.6c0.8-0.4,1.6-0.9,2.3-1.4c7.3,1.8,15.7,1.5,22.9-0.7
		c8.9-2.8,13.5-7.8,15.3-13.4c1.7-5.4,1.4-11.1,5.2-16.3c2.3-3.1,6.4-5.5,12.4-5.9c5.2-0.4,9.9,0.8,13.1,3.1
		c1.7,1.2,2.9,2.7,3.5,4.2c0.1,0.2,0.8,0.4,0.8,0.1C450,393.8,441,389.8,431.9,390.4z M367.6,420.4c-2.3-2.5-3.3-5.5-1-8.1
		c1.1-1.2,2.8-2.2,4.8-3c0.9-0.3,1.9-0.8,3-0.8c1.1,0,2.2,0.4,3,0.8c3.5,1.8,5,4.7,4.9,7.3c-0.2,3-2.4,5.8-5.5,8.2
		c-0.2,0.2-0.5,0.4-0.8,0.5C372.5,424.2,369.6,422.5,367.6,420.4z"/>
</g>
<g id="Notebook_00000018925176821527669840000013736649958379491488_">
	<g id="Notebook">
		<g id="XMLID_7537_">
			<path id="XMLID_7543_" class="st6" d="M242.6,252.5l-133.6,70.4l-2.7,4.3v3.5c0,1.7,1,3.3,2.7,4.3l176.1,101.7
				c1.3,0.7,2.9,1.1,4.6,1.1c1.7,0,3.3-0.4,4.6-1.1l130.7-75.4v-3.5L242.6,252.5z"/>
			<path id="XMLID_7541_" class="st4" d="M289.7,434.3c-1.7,0-3.3-0.4-4.6-1.1L108.9,331.5c-1.7-1-2.7-2.6-2.7-4.3
				c0-1.7,1-3.3,2.7-4.3l127.8-73.8l188.2,108.7l-130.7,75.4C293,433.9,291.3,434.3,289.7,434.3z"/>
		</g>
		<g id="XMLID_7526_">
			<path id="XMLID_7535_" class="st7" d="M236.7,238.8l-126.3,72.9l-1.3,1.8v13.6l0,0c0,0.7,0.4,1.3,1.3,1.8l176.1,101.7
				c1.7,1,4.5,1,6.3,0l126.3-72.9v-13.6L236.7,238.8z"/>
			<path id="XMLID_7532_" class="st3" d="M419.1,344.2l-1.6,0.9L397,356.9l-3.8,2.2l-100.4,57.9c-1.7,1-4.5,1-6.3,0L110.4,315.4
				c-1.7-1-1.7-2.6,0-3.6l1.7-1l124.6-71.9l180.8,104.4l0.4,0.2L419.1,344.2z"/>
			<path id="XMLID_7530_" class="st1" d="M289.7,417.8v13.6c-1.1,0-2.3-0.2-3.1-0.8L110.4,328.9c-0.9-0.5-1.3-1.1-1.3-1.8v-13.6
				c0,0.7,0.4,1.3,1.3,1.8l176.1,101.7C287.4,417.6,288.5,417.8,289.7,417.8z"/>
		</g>
		<path id="XMLID_7524_" class="st2" d="M419.1,342.4l-22.7,13.1l-3.6,2.1l-100,57.7c-1.7,1-4.5,1-6.3,0l-157.7-91.1
			c-1.4-0.8-2.7-1.5-4-2.3c-6.4-3.9-10.3-7.4-12.8-11.1c-0.1-0.2-0.2-0.3-0.3-0.5c-0.2-0.3-0.3-0.6-0.4-0.9
			c-0.3-1.4,0.6-2.7,2.2-3.2c3.1-0.9,7.7-2.5,11.9-5c0.1,0,0.1-0.1,0.2-0.1L236.7,237L419.1,342.4z"/>
		<g id="XMLID_516_">
			<g id="XMLID_7512_">
				<path id="XMLID_7522_" class="st8" d="M395.6,340.8c-1.6,0.9-1.6,2.5,0,3.4c1.6,0.9,4.2,0.9,5.9,0c1.6-0.9,1.6-2.5,0-3.4
					C399.8,339.8,397.2,339.8,395.6,340.8z"/>
				<path id="XMLID_7518_" class="st6" d="M414.4,329.8c-2.2-1.3-5-1.1-7.9,0.6c-4.4,2.6-8.2,8.3-9.9,14.3c0.7,0.2,1.4,0.3,2.2,0.3
					c1.5-5.3,4.9-10.4,8.8-12.6c1.3-0.7,2.5-1.1,3.6-1.1c0.8,0,1.5,0.2,2.1,0.6c1.9,1.1,3,3.7,3,7.3c0,0.6,0,1.2-0.1,1.7l2.1,1.2
					c0.1-1,0.2-2,0.2-2.9C418.4,334.6,417,331.3,414.4,329.8z"/>
				<path id="XMLID_7514_" class="st6" d="M418,343c0,0.2-0.1,0.3-0.1,0.5l-0.4-0.2L418,343z"/>
			</g>
			<g id="XMLID_7495_">
				<path id="XMLID_7509_" class="st8" d="M377.9,330.6c-1.6,0.9-1.6,2.5,0,3.4c1.6,0.9,4.2,0.9,5.9,0c1.6-0.9,1.6-2.5,0-3.4
					C382.1,329.6,379.5,329.6,377.9,330.6z"/>
				<path id="XMLID_7497_" class="st6" d="M396.7,319.6c-2.2-1.3-5-1.1-7.9,0.6c-4.4,2.6-8.2,8.3-9.9,14.3c0.7,0.2,1.4,0.3,2.2,0.3
					c1.5-5.3,4.9-10.4,8.8-12.6c1.3-0.7,2.5-1.1,3.6-1.1c0.8,0,1.5,0.2,2.1,0.6c1.9,1.1,3,3.7,3,7.3c0,0.6,0,1.2-0.1,1.7l2.1,1.2
					c0.1-1,0.2-2,0.2-2.9C400.8,324.4,399.3,321.1,396.7,319.6z"/>
			</g>
			<g id="XMLID_7484_">
				<path id="XMLID_7492_" class="st8" d="M360.3,320.4c-1.6,0.9-1.6,2.5,0,3.4c1.6,0.9,4.2,0.9,5.9,0c1.6-0.9,1.6-2.5,0-3.4
					C364.5,319.4,361.9,319.4,360.3,320.4z"/>
				<path id="XMLID_7486_" class="st6" d="M379.1,309.4c-2.2-1.3-5-1.1-7.9,0.6c-4.4,2.6-8.2,8.3-9.9,14.3c0.7,0.2,1.4,0.3,2.2,0.3
					c1.5-5.3,4.9-10.4,8.8-12.6c1.3-0.7,2.5-1.1,3.6-1.1c0.8,0,1.5,0.2,2.1,0.6c1.9,1.1,3,3.7,3,7.3c0,0.6,0,1.2-0.1,1.7l2.1,1.2
					c0.1-1,0.2-2,0.2-2.9C383.1,314.2,381.7,310.9,379.1,309.4z"/>
			</g>
			<g id="XMLID_7478_">
				<path id="XMLID_7482_" class="st8" d="M342.6,310.2c-1.6,0.9-1.6,2.5,0,3.4c1.6,0.9,4.2,0.9,5.9,0c1.6-0.9,1.6-2.5,0-3.4
					C346.8,309.2,344.2,309.2,342.6,310.2z"/>
				<path id="XMLID_7480_" class="st6" d="M361.4,299.2c-2.2-1.3-5-1.1-7.9,0.6c-4.4,2.6-8.2,8.3-9.9,14.3c0.7,0.2,1.4,0.3,2.2,0.3
					c1.5-5.3,4.9-10.4,8.8-12.6c1.3-0.7,2.5-1.1,3.6-1.1c0.8,0,1.5,0.2,2.1,0.6c1.9,1.1,3,3.7,3,7.3c0,0.6,0,1.2-0.1,1.7l2.1,1.2
					c0.1-1,0.2-2,0.2-2.9C365.5,304,364,300.7,361.4,299.2z"/>
			</g>
			<g id="XMLID_7474_">
				<path id="XMLID_7477_" class="st8" d="M325,300c-1.6,0.9-1.6,2.5,0,3.4c1.6,0.9,4.2,0.9,5.9,0c1.6-0.9,1.6-2.5,0-3.4
					C329.2,299.1,326.6,299.1,325,300z"/>
				<path id="XMLID_7475_" class="st6" d="M343.8,289c-2.2-1.3-5-1.1-7.9,0.5c-4.4,2.6-8.2,8.3-9.9,14.3c0.7,0.2,1.4,0.3,2.2,0.3
					c1.5-5.3,4.9-10.4,8.8-12.6c1.3-0.7,2.5-1.1,3.6-1.1c0.8,0,1.5,0.2,2.1,0.6c1.9,1.1,3,3.7,3,7.3c0,0.6,0,1.2-0.1,1.7l2.1,1.2
					c0.1-1,0.2-2,0.2-2.9C347.8,293.8,346.4,290.5,343.8,289z"/>
			</g>
			<g id="XMLID_7469_">
				<path id="XMLID_7473_" class="st8" d="M307.3,289.8c-1.6,0.9-1.6,2.5,0,3.4c1.6,0.9,4.2,0.9,5.9,0c1.6-0.9,1.6-2.5,0-3.4
					C311.5,288.9,308.9,288.9,307.3,289.8z"/>
				<path id="XMLID_7471_" class="st6" d="M326.1,278.8c-2.2-1.3-5-1.1-7.9,0.6c-4.4,2.6-8.2,8.3-9.9,14.3c0.7,0.2,1.4,0.3,2.2,0.3
					c1.5-5.3,4.9-10.4,8.8-12.6c1.3-0.7,2.5-1.1,3.6-1.1c0.8,0,1.5,0.2,2.1,0.6c1.9,1.1,3,3.7,3,7.3c0,0.6,0,1.2-0.1,1.7l2.1,1.2
					c0.1-1,0.2-2,0.2-2.9C330.2,283.6,328.7,280.3,326.1,278.8z"/>
			</g>
			<g id="XMLID_7465_">
				<path id="XMLID_7468_" class="st8" d="M289.7,279.6c-1.6,0.9-1.6,2.5,0,3.4c1.6,0.9,4.2,0.9,5.9,0c1.6-0.9,1.6-2.5,0-3.4
					C293.9,278.7,291.3,278.7,289.7,279.6z"/>
				<path id="XMLID_7466_" class="st6" d="M308.5,268.6c-2.2-1.3-5-1.1-7.9,0.5c-4.4,2.6-8.2,8.3-9.9,14.3c0.7,0.2,1.4,0.3,2.2,0.3
					c1.5-5.3,4.9-10.4,8.8-12.6c1.3-0.7,2.5-1.1,3.6-1.1c0.8,0,1.5,0.2,2.1,0.5c1.9,1.1,3,3.7,3,7.3c0,0.6,0,1.2-0.1,1.7l2.1,1.2
					c0.1-1,0.2-2,0.2-2.9C312.5,273.5,311.1,270.1,308.5,268.6z"/>
			</g>
			<g id="XMLID_7460_">
				<path id="XMLID_7464_" class="st8" d="M272,269.4c-1.6,0.9-1.6,2.5,0,3.4c1.6,0.9,4.2,0.9,5.9,0c1.6-0.9,1.6-2.5,0-3.4
					C276.2,268.5,273.6,268.5,272,269.4z"/>
				<path id="XMLID_7462_" class="st6" d="M290.8,258.4c-2.2-1.3-5-1.1-7.9,0.6c-4.4,2.6-8.2,8.3-9.9,14.3c0.7,0.2,1.4,0.3,2.2,0.3
					c1.5-5.3,4.9-10.4,8.8-12.6c1.3-0.7,2.5-1.1,3.6-1.1c0.8,0,1.5,0.2,2.1,0.6c1.9,1.1,3,3.7,3,7.3c0,0.6,0,1.2-0.1,1.7l2.1,1.2
					c0.1-1,0.2-2,0.2-2.9C294.9,263.3,293.4,259.9,290.8,258.4z"/>
			</g>
			<g id="XMLID_7455_">
				<path id="XMLID_7459_" class="st8" d="M254.4,259.2c-1.6,0.9-1.6,2.5,0,3.4c1.6,0.9,4.2,0.9,5.9,0c1.6-0.9,1.6-2.5,0-3.4
					C258.6,258.3,256,258.3,254.4,259.2z"/>
				<path id="XMLID_7457_" class="st6" d="M273.2,248.2c-2.2-1.3-5-1.1-7.9,0.6c-4.4,2.6-8.2,8.3-9.9,14.3c0.7,0.2,1.4,0.3,2.2,0.3
					c1.5-5.3,4.9-10.4,8.8-12.6c1.3-0.7,2.5-1.1,3.6-1.1c0.8,0,1.5,0.2,2.1,0.5c1.9,1.1,3,3.7,3,7.3c0,0.6,0,1.2-0.1,1.7l2.1,1.2
					c0.1-1,0.2-2,0.2-2.9C277.2,253.1,275.7,249.7,273.2,248.2z"/>
			</g>
			<g id="XMLID_7450_">
				<path id="XMLID_7454_" class="st8" d="M236.7,249c-1.6,0.9-1.6,2.5,0,3.4c1.6,0.9,4.2,0.9,5.9,0c1.6-0.9,1.6-2.5,0-3.4
					C240.9,248.1,238.3,248.1,236.7,249z"/>
				<path id="XMLID_7452_" class="st6" d="M255.5,238.1c-2.2-1.3-5-1.1-7.9,0.6c-4.4,2.6-8.2,8.3-9.9,14.3c0.7,0.2,1.4,0.3,2.2,0.3
					c1.5-5.3,4.9-10.4,8.8-12.6c1.3-0.7,2.5-1.1,3.6-1.1c0.8,0,1.5,0.2,2.1,0.5c1.9,1.1,3,3.7,3,7.3c0,0.6,0,1.2-0.1,1.7l2.1,1.2
					c0.1-1,0.2-2,0.2-2.9C259.6,242.9,258.1,239.5,255.5,238.1z"/>
			</g>
		</g>
		<g>
			<g>
				<g>
					<path class="st1" d="M288.4,408.7c-0.8,0-1.7-0.2-2.4-0.6l-10.7-6.2c-0.7-0.4-1.2-1-1.2-1.7c0-0.6,0.3-1.1,0.9-1.4l101.3-58.5
						c1.1-0.6,3-0.6,4.2,0.2l10.7,6.2c0.7,0.4,1.2,1,1.2,1.7c0,0.6-0.3,1.1-0.9,1.4l-101.3,58.5
						C289.8,408.6,289.1,408.7,288.4,408.7z M378.3,341.1c-0.5,0-1,0.1-1.3,0.3l-101.3,58.5c-0.1,0.1-0.4,0.2-0.4,0.5
						c0,0.2,0.2,0.5,0.6,0.7l10.7,6.2c0.9,0.5,2.4,0.6,3.1,0.2l101.3-58.5c0.1-0.1,0.4-0.2,0.4-0.5c0-0.2-0.2-0.5-0.6-0.7l-10.7-6.2
						C379.6,341.2,378.9,341.1,378.3,341.1z"/>
				</g>
				<g>
					
						<rect x="273" y="373.9" transform="matrix(0.866 -0.5 0.5 0.866 -142.5333 216.9154)" class="st1" width="120.9" height="1.1"/>
				</g>
			</g>
			<g>
				<g>
					<g>
						<path class="st1" d="M265.7,395.6c-0.8,0-1.7-0.2-2.4-0.6l-139.4-80.5c-0.7-0.4-1.2-1-1.2-1.7c0-0.6,0.3-1.1,0.9-1.4L225,253
							c1.1-0.6,3-0.6,4.2,0.2l139.4,80.5c0.7,0.4,1.2,1,1.2,1.7c0,0.6-0.3,1.1-0.9,1.4l-101.3,58.5
							C267,395.4,266.4,395.6,265.7,395.6z M226.9,253.6c-0.5,0-1,0.1-1.3,0.3l-101.3,58.5c-0.1,0.1-0.4,0.2-0.4,0.5
							c0,0.2,0.2,0.5,0.6,0.7L263.8,394c0.9,0.5,2.4,0.6,3.1,0.2l101.3-58.5c0.1-0.1,0.4-0.2,0.4-0.5c0-0.2-0.2-0.5-0.6-0.7
							l-139.4-80.5C228.2,253.8,227.5,253.6,226.9,253.6z"/>
					</g>
					<g>
						
							<rect x="250.2" y="360.7" transform="matrix(0.866 -0.5 0.5 0.866 -139.0034 203.747)" class="st1" width="120.9" height="1.1"/>
					</g>
					<g>
						
							<rect x="243.1" y="356.6" transform="matrix(0.866 -0.5 0.5 0.866 -137.8935 199.6043)" class="st1" width="120.9" height="1.1"/>
					</g>
					<g>
						
							<rect x="235.9" y="352.4" transform="matrix(0.8661 -0.5 0.5 0.8661 -136.778 195.4472)" class="st1" width="120.9" height="1.1"/>
					</g>
					<g>
						
							<rect x="228.7" y="348.3" transform="matrix(0.866 -0.5 0.5 0.866 -135.6731 191.3192)" class="st1" width="120.9" height="1.1"/>
					</g>
					<g>
						
							<rect x="221.5" y="344.1" transform="matrix(0.8661 -0.4999 0.4999 0.8661 -134.5507 187.1434)" class="st1" width="120.9" height="1.1"/>
					</g>
					<g>
						
							<rect x="214.4" y="340" transform="matrix(0.866 -0.5 0.5 0.866 -133.4532 183.0337)" class="st1" width="120.9" height="1.1"/>
					</g>
					<g>
						
							<rect x="207.2" y="335.9" transform="matrix(0.866 -0.5 0.5 0.866 -132.3503 178.9092)" class="st1" width="120.9" height="1.1"/>
					</g>
					<g>
						
							<rect x="200" y="331.7" transform="matrix(0.866 -0.5 0.5 0.866 -131.2329 174.7481)" class="st1" width="120.9" height="1.1"/>
					</g>
					<g>
						
							<rect x="192.8" y="327.6" transform="matrix(0.866 -0.5 0.5 0.866 -130.1229 170.6059)" class="st1" width="120.9" height="1.1"/>
					</g>
					<g>
						
							<rect x="185.7" y="323.4" transform="matrix(0.866 -0.5 0.5 0.866 -129.0199 166.4802)" class="st1" width="120.9" height="1.1"/>
					</g>
					<g>
						
							<rect x="178.5" y="319.3" transform="matrix(0.8661 -0.4999 0.4999 0.8661 -127.8903 162.2913)" class="st1" width="120.9" height="1.1"/>
					</g>
					<g>
						
							<rect x="171.3" y="315.1" transform="matrix(0.866 -0.5 0.5 0.866 -126.7926 158.1775)" class="st1" width="120.9" height="1.1"/>
					</g>
					<g>
						
							<rect x="164.1" y="311" transform="matrix(0.866 -0.5 0.5 0.866 -125.6827 154.0348)" class="st1" width="120.9" height="1.1"/>
					</g>
					<g>
						
							<rect x="157" y="306.9" transform="matrix(0.866 -0.5 0.5 0.866 -124.5798 149.9076)" class="st1" width="120.9" height="1.1"/>
					</g>
					<g>
						
							<rect x="149.8" y="302.7" transform="matrix(0.866 -0.5 0.5 0.866 -123.4623 145.7497)" class="st1" width="120.9" height="1.1"/>
					</g>
					<g>
						
							<rect x="142.6" y="298.6" transform="matrix(0.866 -0.5 0.5 0.866 -122.3523 141.6069)" class="st1" width="120.9" height="1.1"/>
					</g>
					<g>
						
							<rect x="135.4" y="294.4" transform="matrix(0.866 -0.5 0.5 0.866 -121.2424 137.4642)" class="st1" width="120.9" height="1.1"/>
					</g>
					<g>
						
							<rect x="128.3" y="290.3" transform="matrix(0.8661 -0.4999 0.4999 0.8661 -120.1198 133.297)" class="st1" width="120.9" height="1.1"/>
					</g>
					<g>
						
							<rect x="121.1" y="286.1" transform="matrix(0.866 -0.5 0.5 0.866 -119.0221 129.1786)" class="st1" width="120.9" height="1.1"/>
					</g>
				</g>
				<g>
					<path class="st4" d="M365,338.8c-0.1,0-0.2,0-0.3-0.1L221.4,256c-0.3-0.2-0.4-0.5-0.2-0.7c0.2-0.3,0.5-0.4,0.7-0.2l143.3,82.8
						c0.3,0.2,0.4,0.5,0.2,0.7C365.4,338.7,365.2,338.8,365,338.8z"/>
				</g>
			</g>
		</g>
	</g>
</g>
<g id="Light_Bulb">
	<g id="Bulb">
		<g id="Bulb_00000124848480050494342020000016855552079150553518_">
			<g id="Socket_00000057862525676222904650000003728068149356450989_">
				<g>
					<path class="st6" d="M295.7,228.6c-3.9-2.7-3.5-6.6,0.8-8.5c4.3-2,10.9-1.4,14.8,1.4c3.9,2.7,3.5,6.6-0.8,8.5
						C306.2,231.9,299.6,231.3,295.7,228.6z"/>
					<path class="st6" d="M313.2,227.9l-1.7-0.2c-0.3-0.8-1-1.6-2-2.4c-3.1-2.2-8.5-2.7-12-1.1c-1.1,0.5-1.9,1.2-2.4,2l-1.7-0.2
						l1.7,3.3l0,0c0.4,0.7,0.9,1.3,1.8,1.9c3.1,2.2,8.5,2.7,12,1.1c0.9-0.4,1.6-0.9,2.1-1.5l0,0L313.2,227.9z"/>
				</g>
				<g>
					<path class="st5" d="M292.4,225.5c-5.7-4.1-5.2-9.7,1.2-12.6c6.4-2.9,16.2-2,21.9,2.1c5.7,4.1,5.2,9.7-1.2,12.6
						C307.9,230.5,298.1,229.6,292.4,225.5z"/>
					<path class="st9" d="M292.2,223.4c-5.9-4.2-5.4-10.1,1.2-13.1c6.6-3,16.8-2.1,22.7,2.2c5.9,4.2,5.4,10.1-1.2,13.1
						C308.3,228.6,298.1,227.6,292.2,223.4z"/>
					<path class="st5" d="M292.1,221.1c-6.1-4.3-5.5-10.3,1.3-13.4c6.8-3.1,17.2-2.1,23.3,2.2c6.1,4.3,5.5,10.3-1.3,13.4
						C308.6,226.4,298.2,225.4,292.1,221.1z"/>
					<path class="st9" d="M292,218.8c-6.2-4.4-5.6-10.6,1.3-13.8c6.9-3.2,17.6-2.2,23.8,2.3c6.2,4.4,5.6,10.6-1.3,13.8
						C308.9,224.2,298.3,223.2,292,218.8z"/>
					<path class="st5" d="M292,216.5c-6.4-4.5-5.8-10.8,1.3-14.1c7.1-3.3,18-2.2,24.4,2.3c6.4,4.5,5.8,10.8-1.3,14.1
						C309.3,222.1,298.3,221,292,216.5z"/>
					<path class="st9" d="M291.9,214.2c-6.5-4.6-5.9-11.1,1.4-14.4c7.3-3.3,18.5-2.3,25,2.4c6.5,4.6,5.9,11.1-1.4,14.4
						C309.6,219.9,298.4,218.8,291.9,214.2z"/>
				</g>
			</g>
			<path class="st10" d="M324.4,200.8c0.3-2.7-1.3-5.6-4.7-8.1c-6.8-4.9-18.5-6-26.2-2.5c-3.8,1.7-5.9,4.3-6.1,7
				c-0.1,1.1-0.5,5.2-0.6,6.3c-0.3,2.7,1.3,5.6,4.7,8.1c6.8,4.9,18.5,6,26.2,2.5c3.8-1.7,5.9-4.3,6.1-7
				C323.9,206,324.3,201.8,324.4,200.8z"/>
			<g>
				<path id="XMLID_00000109752247606077848220000010443930635451254718_" class="st4" d="M317.9,72.8c-30.7-2.9-58,19.6-60.9,50.4
					c-4.2,44.2,31.6,54.9,29.9,72.7c-0.3,2.8,1.3,5.8,4.9,8.4c7.1,5,19.2,6.2,27.1,2.6c4-1.8,6.1-4.5,6.4-7.3l0,0
					c1.7-17.8,38.8-21.7,43-65.8C371.2,102.9,348.6,75.7,317.9,72.8z"/>
				<path id="XMLID_00000042709812703179879550000000420726492002655913_" class="st11" d="M317.9,72.8c-30.7-2.9-58,19.6-60.9,50.4
					c-4.2,44.2,31.6,54.9,29.9,72.7c-0.3,2.8,1.3,5.8,4.9,8.4c7.1,5,19.2,6.2,27.1,2.6c4-1.8,6.1-4.5,6.4-7.3l0,0
					c1.7-17.8,38.8-21.7,43-65.8C371.2,102.9,348.6,75.7,317.9,72.8z"/>
				<path class="st4" d="M294.1,203.2c-5.9-4.2-5.4-10.1,1.2-13.1c6.6-3,16.8-2.1,22.7,2.2c5.9,4.2,5.4,10.1-1.2,13.1
					C310.2,208.4,300,207.5,294.1,203.2z"/>
				<path class="st12" d="M294.1,203.2c-5.9-4.2-5.4-10.1,1.2-13.1c6.6-3,16.8-2.1,22.7,2.2c5.9,4.2,5.4,10.1-1.2,13.1
					C310.2,208.4,300,207.5,294.1,203.2z"/>
				<path class="st13" d="M319.7,203.6c-0.8,0.7-1.7,1.3-2.9,1.8c-6.6,3-16.8,2.1-22.7-2.2c-1-0.7-1.9-1.5-2.5-2.3
					c0.8-0.7,1.7-1.3,2.9-1.8c6.6-3,16.8-2.1,22.7,2.2C318.2,202,319.1,202.8,319.7,203.6z"/>
				<path class="st4" d="M319.7,203.6c-0.8,0.7-1.7,1.3-2.9,1.8c-6.6,3-16.8,2.1-22.7-2.2c-1-0.7-1.9-1.5-2.5-2.3
					c0.8-0.7,1.7-1.3,2.9-1.8c6.6-3,16.8-2.1,22.7,2.2C318.2,202,319.1,202.8,319.7,203.6z"/>
				<path class="st14" d="M319.7,203.6c-0.8,0.7-1.7,1.3-2.9,1.8c-6.6,3-16.8,2.1-22.7-2.2c-1-0.7-1.9-1.5-2.5-2.3
					c0.8-0.7,1.7-1.3,2.9-1.8c6.6-3,16.8-2.1,22.7,2.2C318.2,202,319.1,202.8,319.7,203.6z"/>
				<path class="st14" d="M358.9,106.2c-3-5.6-8-10.4-14.8-8.3c-0.7,0.2-1.4,0.5-2.1,1c-2.4,1.5-3.6,4.5-3.4,7.3
					c0.3,5.5,5.1,9.3,7.7,13.8c2.8,4.9,4.8,10.3,5.8,15.9c0.3,1.7,0.6,4.4,1.3,5.9c1.1,2.4,3.8,3,5.4,2.4c2.3-0.9,3.6-3.5,4.1-5.6
					C366,126.1,364.3,116.4,358.9,106.2z M356,147.5c-2.1-0.4-4.1,1.1-4.8,2.7c-0.7,1.6-0.6,3.4,0.1,5c0.8,1.8,3.1,2.4,4.8,1.6
					c1.7-0.9,2.9-2.6,3.1-4.6C359.4,150.3,358.2,148,356,147.5z"/>
			</g>
			<g>
				<path class="st5" d="M312,203.9l-0.6-0.1c1.9-19.8,4.2-32.1,7.8-41.1c1-2.6,2.2-4.8,3.4-6.7c-4.4-1.8-8.9-5.3-11.7-8.5
					c-3.3,2.6-8.5,5.2-13.1,6.1c0.8,2,1.5,4.4,2.1,7.2c1.8,9.5,1.8,22-0.1,41.8l-0.6-0.1c1.9-19.7,1.9-32.2,0.1-41.7
					c-0.5-2.8-1.2-5.2-2.1-7.2c-0.6,0.1-1.3,0.2-1.9,0.2c-6.6,0.5-10.2-1.8-11.3-4c-0.8-1.6-0.6-3.3,0.6-4.8c1-1.3,2.7-1.8,4.6-1.3
					c2.8,0.7,6.1,3.5,8.5,9.1c4.6-0.9,9.7-3.5,13-6c-0.7-0.8-1.2-1.6-1.6-2.4c-2.6-4.9-2-8.9-0.7-10.9c1-1.5,2.5-2.2,4.2-2.1
					c1.7,0.2,3.1,1.2,3.7,2.8c1,2.3,0.8,6.3-2.7,10.6c-0.5,0.7-1.2,1.3-2.1,2c2.7,3.2,7.3,6.6,11.6,8.4c3.4-5.1,7.2-7.2,10-7.4
					c1.9-0.1,3.5,0.7,4.3,2.2c0.9,1.7,0.8,3.4-0.3,4.8c-1.6,2-5.5,3.5-11.9,1.8c-0.6-0.2-1.2-0.4-1.8-0.6c-1.2,1.8-2.3,4-3.4,6.7
					C316.2,172,313.9,184.2,312,203.9z M323.5,155.8c0.5,0.2,1.1,0.4,1.6,0.5c6.1,1.6,9.8,0.2,11.2-1.6c0.9-1.2,1-2.6,0.3-4.1
					c-0.7-1.2-2-1.9-3.6-1.8C330.4,149,326.8,150.9,323.5,155.8z M288.1,144.5c-1.3-0.1-2.4,0.3-3.2,1.2c-1,1.3-1.2,2.7-0.5,4.1
					c1.1,2.1,4.5,4.1,10.7,3.6c0.5,0,1.1-0.1,1.7-0.2c-2.3-5.4-5.5-8-8-8.6C288.6,144.6,288.3,144.5,288.1,144.5z M312.3,132.4
					c-1.5-0.1-2.7,0.5-3.6,1.8c-1.6,2.4-1.3,6.4,0.7,10.3c0.4,0.7,0.9,1.5,1.6,2.3c0.8-0.7,1.5-1.3,2-1.9c2.7-3.4,3.7-7.3,2.6-10
					C314.9,133.4,313.7,132.5,312.3,132.4z"/>
			</g>
		</g>
		<g>
			<g>
				<path class="st3" d="M317.6,60.3c-0.9-0.1-1.6-0.9-1.6-1.8l1.2-16.7c0.1-0.9,0.9-1.6,1.8-1.6c0.9,0.1,1.6,0.9,1.6,1.8l-1.2,16.7
					C319.3,59.7,318.5,60.4,317.6,60.3z"/>
			</g>
			<g>
				<path class="st3" d="M352.2,72.4c-0.3,0-0.6-0.1-0.8-0.3c-0.8-0.5-1-1.6-0.5-2.3l9.4-13.9c0.5-0.8,1.6-1,2.3-0.5
					c0.8,0.5,1,1.6,0.5,2.3l-9.4,13.9C353.3,72.1,352.8,72.4,352.2,72.4z"/>
			</g>
			<g>
				<path class="st3" d="M376.1,100.1c-0.6,0-1.1-0.4-1.4-0.9c-0.4-0.8-0.1-1.8,0.8-2.3l15-7.3c0.8-0.4,1.8-0.1,2.3,0.8
					c0.4,0.8,0.1,1.8-0.8,2.2l-15,7.3C376.7,100,376.4,100.1,376.1,100.1z"/>
			</g>
			<g>
				<path class="st3" d="M399.7,137.2l-16.7-1.2c-0.9-0.1-1.6-0.9-1.6-1.8c0.1-0.9,0.9-1.6,1.8-1.6l16.7,1.2
					c0.9,0.1,1.6,0.9,1.6,1.8C401.4,136.6,400.6,137.3,399.7,137.2z"/>
			</g>
			<g>
				<path class="st3" d="M384.8,180c-0.3,0-0.6-0.1-0.8-0.3l-13.9-9.3c-0.8-0.5-1-1.6-0.5-2.3c0.5-0.8,1.6-1,2.3-0.5l13.9,9.4
					c0.8,0.5,1,1.6,0.5,2.3C386,179.8,385.4,180,384.8,180z"/>
			</g>
			<g>
				<path class="st3" d="M233.7,169c-0.6,0-1.1-0.4-1.4-0.9c-0.4-0.8-0.1-1.8,0.8-2.3l15-7.3c0.8-0.4,1.8-0.1,2.2,0.8
					c0.4,0.8,0.1,1.8-0.8,2.2l-15,7.3C234.3,169,234,169.1,233.7,169z"/>
			</g>
			<g>
				<path class="st3" d="M241.8,125.7l-16.7-1.2c-0.9-0.1-1.6-0.9-1.6-1.8c0.1-0.9,0.9-1.6,1.8-1.6l16.7,1.2
					c0.9,0.1,1.6,0.9,1.6,1.8C243.6,125.1,242.8,125.8,241.8,125.7z"/>
			</g>
			<g>
				<path class="st3" d="M253.9,91.1c-0.3,0-0.6-0.1-0.8-0.3l-13.9-9.3c-0.8-0.5-1-1.6-0.5-2.3c0.5-0.8,1.6-1,2.3-0.5l13.9,9.3
					c0.8,0.5,1,1.6,0.5,2.3C255,90.9,254.5,91.2,253.9,91.1z"/>
			</g>
			<g>
				<path class="st3" d="M281.6,67.2c-0.6,0-1.1-0.4-1.4-0.9l-7.3-15c-0.4-0.8-0.1-1.8,0.8-2.2c0.8-0.4,1.8-0.1,2.3,0.8l7.3,15
					c0.4,0.8,0.1,1.8-0.8,2.2C282.2,67.2,281.9,67.2,281.6,67.2z"/>
			</g>
		</g>
	</g>
</g>
<g id="Character">
	<path class="st15" d="M88.7,92.8c0,0-0.9,29.6-3.7,37.2c-2.8,7.6,43.3-10.8,43.3-10.8s15.3-10.3,17.4-20.8
		C148,87.8,88.7,92.8,88.7,92.8z"/>
	<g id="Character_00000086649833606523997890000009087692209539424412_">
		<g id="Bottom_00000061444672104785561830000013375113511954912957_">
			<g>
				<g>
					<path class="st16" d="M106.7,369.6c0.7-3.1-2.4-5.1-3.8-6.9c-2.3-2.8-2.9-9.2-2.9-12.5c0-4.1-0.5-7,2.1-10.7
						c3-4.4,7.2-9.5,21.3-22.1L106,300c-3.6,5.7-12.8,25.6-12.8,25.6l-0.6,1.2c-1.7,2.1-2.8,3.5-5.5,5.2c0,0-0.9,0.5-1,0.5
						c-1.7,1.1-5.8,2.3-5.8,6.2c0.1,3.9,1.6,4.9,3.4,8.1c1.1,2,2,3.1,2,7c0.1,3.2-0.1,6.7-0.1,9.5c0,2.4,2.2,5.8,6.7,7.4
						C99.1,373.1,105.9,372.6,106.7,369.6z"/>
					<g>
						<g id="XMLID_00000059274136820407817330000011833884732077400221_">
							<path class="st6" d="M78,338.9c-1.2,1.4-4.2,6.3-5,8.6l4.6,6.4l3.9-6.5C81.5,347.5,78.7,343.4,78,338.9z"/>
							<path d="M77.6,354l6.3-0.4c0,0,0.5-2.1-0.6-3.9c-1.2-1.8-1.8-2.2-1.8-2.2L77.6,354z"/>
							<path class="st6" d="M79.3,337.5c0,0-0.9,0.7-1.2,1.3c-0.3,0.6,0,4.7,1.4,6.6c1.3,2,3.5,4,4,6.8c0.5,2.8-0.6,9.2,0.5,13.1
								c1.1,3.9,4.9,8.3,13.1,9.4c5.9,0.7,8.1-0.4,10-1.6c0.7-2.5,0.6-3.2-2.6-5.3C101.3,365.7,79.3,337.5,79.3,337.5z"/>
							<path id="XMLID_00000005240735111905738130000000678994440474469510_" class="st9" d="M90.2,327.2c-2.6,3.1-3.6,4.3-6,5.7
								c-2.9,1.7-3.5,2.4-4.9,4.6c-0.6,3.4,0.1,4.8,3.2,9.1c2.1,3,2.8,4.9,2.8,9c-0.1,4.9-1.7,9.4,4.2,14.4
								c4.7,3.9,14.9,4.2,17.6,1.5c2.4-6.7-3.9-6.4-5.4-13.5c-0.8-3.9-0.9-9.9,0.4-13.8c0.4-1.4,1.3-3.9,2.1-5.1
								c1-1.7,1.9-2.9,1.1-3.8l-1.5,1.8c-1.5,0.3-5.1-0.5-7.4-2.4c-5.7-4.6-3.7-7.8-3.7-7.8l0.6-1.2
								C92.6,324.9,91.7,325.4,90.2,327.2z"/>
						</g>
					</g>
				</g>
				<path class="st6" d="M153.6,170.7c1.4,9.7,6.1,21.8,8.7,44.7c2.4,21.5,3.5,32.7,2,43.4c-0.5,3.8-2.5,8.3-6.3,13.9
					c-11.7,17.7-34.8,45.4-34.8,45.4s-5.2-0.1-11.6-5.1c-6.1-4.9-6.4-12.1-6.4-12.1s0.6-4,10.3-20.3c9.7-16.3,10.9-33.9,10.9-33.9
					l-6.3-69C135.1,179.1,146.6,176.4,153.6,170.7z"/>
				<path d="M111.6,313.1c-6.1-4.9-6.4-12.1-6.4-12.1s0.6-4,10.3-20.3c9.7-16.3,10.9-33.9,10.9-33.9l-4.8-52.8
					c11.8-1.8,28.2-1.7,28.2-1.7c0.3,7.6-1.4,16.9-12.3,22.6c0,0,2,37.2,2.3,48c0.2,8.3-2.2,29.4-3.4,39
					c-7.3,9.3-13.2,16.3-13.2,16.3S117.9,318.1,111.6,313.1z"/>
			</g>
			<g>
				<path class="st16" d="M131.5,352.8l0.1-1.7l1.6-33.9l-23.9,6l5.3,27.2l0.2,1.4c0,0,0.3,6.9,10.9,7.3
					C131.2,359.3,131.5,352.8,131.5,352.8z"/>
				<g>
					<polygon points="118.6,383.8 126.9,380.7 127.2,372.8 118.7,376 					"/>
					<path class="st6" d="M110.6,366.1c-0.3,2.9,2,14,2,14l6,3.6l0.1-7.8c0,0,1.7,1.4,3.4,5.5c1.7,3.9,4,7.6,7.9,9.6
						c3.9,2,10.7,2.8,16.5,2c4.1-0.5,6.6-2.3,7.3-3.3c0.3-0.5,0.2-1.6,0.2-1.6L110.6,366.1z"/>
					<path class="st9" d="M131.6,351.1c1.1-0.1,1,1,2.4,7.5c1,4.9,3.3,13.3,12.2,18.8c3.6,2.3,8.7,3.7,8,10.7
						c-2.5,3.4-11.3,4.3-16.6,3.3c-10.7-1.9-12.3-6.1-14.9-12.4c-2.1-5-4-5.6-6.9-7.6c-1.9-1.3-4.5-3.3-5.2-5.4
						c-0.1-4.8,1.7-7.9,2.3-10.3c0.6-2.3,0.3-5.1,1.8-5.4l0.2,1.4c0,0,1.4,3.8,8.9,4c7.4,0.1,7.8-3,7.8-3L131.6,351.1z"/>
				</g>
			</g>
			<g>
				<path class="st6" d="M153.6,170.7c0,0,1.9,12.5-2.2,23.9c-3.5,9.9-10.3,15.5-17.5,17.8c0,0,2.4,44.5,3,50.6
					c0.6,6.2-0.8,28.6-2.2,43.4c-1.3,14.8-1.7,19.8-1.7,19.8s-3.2,3.3-12,3.5c-8.8,0.2-11.6-3.5-11.6-3.5s-5.6-17.1-5.8-30.4
					c-0.1-7.7,1.6-11.5,0.1-19.1c-1.5-7.6-12.2-41.5-14.1-57.5c-1.8-16.1,0.9-30.2,12.3-46.6C114.2,180.6,142.4,178.6,153.6,170.7z"
					/>
				<path d="M107,175.1c-6.2,8.5-15.1,26.2-8.8,51.4c1.8,7.2,3.6,14.1,5.3,20.8c4.1,15.7,7.3,28.1,7.7,32.8c0.2,2.6-0.1,5.1-0.4,8
					c-0.5,4.5-1.2,10.1,0,18.8c1.1,8.1,2.7,16.6,3.9,22.3c-0.4-0.1-0.7-0.2-1.1-0.3c-1.2-5.7-2.7-14-3.8-21.9
					c-1.2-8.8-0.5-14.4,0-19c0.3-2.8,0.6-5.3,0.4-7.8c-0.4-4.7-3.6-17-7.7-32.6c-1.7-6.7-3.5-13.6-5.3-20.8
					c-6.4-25.4,2.5-43.2,8.8-52C106.3,174.8,106.7,175,107,175.1z"/>
			</g>
		</g>
		<g id="Top_00000047035556053529049600000001075857242144386744_">
			<g>
				<g>
					<path class="st16" d="M193.1,161.8c3.6,2.3,6.6,2,9.4,2.7c3.7,0.9,6.6,2.7,11.5,4.9c0.9,0.4,1.7,0.8,2.5,1.2
						c0.4,0.2,0.8,0.4,1.2,0.6c0.4,0.1,0.7,0.3,0.7,0.8c0,0.4-0.2,0.7-0.5,1c-0.9,0.9-2.2,1.2-3.5,1.2c-1.3-0.1-2.5-0.4-3.7-0.7
						c-1-0.2-0.5,0.8-0.2,1.3c1.4,2.2,8.4,3.9,10.7,5.1c1,0.5,2.4,0.5,2.6,1.9c0.1,0.5,0,0.9,0.2,1.4c0.2,0.5,0.5,0.8,0.8,1.2
						c0.4,0.6,0.7,1.3,0.6,2c-0.1,0.7-0.5,1.4-1.3,1.6c-0.6,0.2-1.2,0-1.7,0.2c-0.2,0.1-0.4,0.3-0.7,0.5c-1,0.7-2.3,0.3-3.5,0.3
						c-1,0-2,0.3-3,0.3c-1.1,0-2.2,0-3.3-0.1c-2.2-0.3-5.3-1.2-7.4-2c-3-1.2-6-3.6-8.3-5.8c-1.3-1.3-2.4-2.9-6.9-4.9
						c-4.5-2-21.8-8.7-27.9-13.1c-2.2-1.6-3.3-3.3-10.4-10.6c-10.5-10.8-13.8-15.3-13.8-15.3l-7.6-25.2c8.7,0.3,12.5-0.5,19.1,6.6
						c9.2,9.9,23,27,23,27S190,159.9,193.1,161.8z"/>
				</g>
				<path class="st17" d="M207.9,174c-3.4,2.4-8.7,1.1-10.9-0.2c0,0,2.9,2.7,5.7,2.7C205.8,176.5,207,175.4,207.9,174z"/>
			</g>
			<g id="XMLID_298_">
				<g id="XMLID_300_">
					<path id="XMLID_00000149372887862100090610000006287793191995555716_" class="st18" d="M237.5,310.7l32,33
						c0.9,1,2.5,0.2,2.4-1.1l-5.3-46L237.5,310.7z"/>
					<path id="XMLID_00000087386981904568964110000005633879974038266294_" class="st5" d="M271.9,342.6c0.2,1.3-1.5,2.1-2.4,1.1
						l-6.2-6.5l0,0c2.9,0.2,5.6-1.3,7.1-3.8l0.4-0.7L271.9,342.6z"/>
					<path id="XMLID_763_" class="st5" d="M175.8,104.5l1.8,3.8l2.2,4.6l86.8,183.6c-1.4,5-5.2,8.9-9.6,11.6
						c-6.7,4.1-15.1,5.1-19.5,2.5l-86.7-183.5l-4.2-8.9C149.7,123.9,178.8,110.2,175.8,104.5z"/>
					<path id="XMLID_00000075163082263289854270000002226119013529922693_" class="st7" d="M182.8,119.2l4,8.6
						c1.3,2.5-3.3,6.6-9.2,10c-7.8,4.6-18.4,6.9-20.1,3.6l-3-6.3l-1-2.3c1.7,3.2,12.3,1,20.1-3.6c5.6-3.3,10-7.3,9.2-9.7l0,0
						C182.9,119.3,182.8,119.2,182.8,119.2z"/>
					<path id="XMLID_756_" class="st10" d="M183.8,121.3c2.9,5.7-26.3,19.3-29.2,13.6l-4.1-8.6c2.9,5.7,32.2-7.9,29.2-13.6
						L183.8,121.3z"/>
					<path id="XMLID_755_" class="st7" d="M175.8,104.5l4,8.5c2.9,5.6-25.2,19-29,14.1c-0.1-0.1-0.1-0.2-0.2-0.3l-4-8.6
						C149.7,123.9,178.8,110.2,175.8,104.5z"/>
					<path id="XMLID_754_" class="st8" d="M150.8,127.2l-4.2-8.9c1.4,2.5,8.2,1.7,15-1.2l91.3,193.2l16.6,33.4l-32-33l0,0
						c0,0,0,0,0,0L150.8,127.2z"/>
					<path class="st19" d="M129.2,81.5c-0.1-0.1-0.1-0.2-0.2-0.3c-1.8-3.7,3.4-9.8,11.4-13.6c8.1-3.8,16-3.8,17.8-0.1c0,0,0,0,0,0
						l17.5,37c1.3,2.4-3.2,6.5-9,10c-7.8,4.6-18.4,7-20.1,3.8c0,0,0,0,0,0l-17.1-36.1C129.4,81.9,129.3,81.8,129.2,81.5
						C129.2,81.6,129.2,81.5,129.2,81.5z"/>
					<path class="st8" d="M138.8,68.5l22.8,48.6c-6.7,2.8-13.6,3.7-15,1.2c0,0,0,0,0,0l-17.1-36.1c-0.1-0.2-0.1-0.3-0.2-0.5
						c0,0,0-0.1,0-0.1c-0.1-0.1-0.1-0.2-0.2-0.3C127.4,77.8,131.7,72.3,138.8,68.5z"/>
					<path class="st18" d="M129.1,81.2c1.8,3.7,9.7,3.7,17.8-0.1c8.1-3.8,13.2-9.9,11.4-13.6c-1.8-3.7-9.7-3.7-17.8,0.1
						C132.4,71.4,127.3,77.5,129.1,81.2z"/>
				</g>
			</g>
			<g>
				<path class="st4" d="M90.2,151.3c0,0,4.7-2.3,6-12.5c0.6-4.6-1-10.7-3-17.7l13.4-5.8c0,0,4.4-1.2,14.2-3l9.1,0
					c0,0,16.3,6.9,22.9,15.6c3.6,4.7,7.4,14.9,1,22.5c0.5,6.9,0.6,20.9,0.6,20.9s-3.7,6.8-21.7,8.8c-25.8,2.9-33-6.5-33-6.5
					C99.1,166.3,92.9,158.4,90.2,151.3z"/>
				<path class="st20" d="M90.2,151.3c0,0,4.7-2.3,6-12.5c0.6-4.6-1-10.7-3-17.7l13.4-5.8c0,0,4.4-1.2,14.2-3l9.1,0
					c0,0,16.3,6.9,22.9,15.6c3.6,4.7,7.4,14.9,1,22.5c0.5,6.9,0.6,20.9,0.6,20.9s-3.7,6.8-21.7,8.8c-25.8,2.9-33-6.5-33-6.5
					C99.1,166.3,92.9,158.4,90.2,151.3z"/>
				<path class="st21" d="M134.6,152.8c0,0-3.7,6.3-13.7,6.1c-10-0.2-12.9-7.3-12.9-7.3s0.8,9.5,12.7,9.8
					C132.4,161.5,134.6,152.8,134.6,152.8z"/>
			</g>
			<g id="Head_00000121990279939367831570000014056153413812207545_">
				<path class="st15" d="M98.1,63.8c1.3-1.7,3.5-3,5.5-3.5c2.1-0.5,3.3-0.5,5.3-1.3c1.9-0.8,3.5-2.1,5.4-2.9
					c4.1-1.7,9.1-0.7,12.7,2.1c1.6,1.2,3,2.8,5,3.1c1,0.1,1.9,0,2.9,0c3.1,0,6,2,7.6,4.6c1.3,2.1,1.9,4.5,2.2,6.9
					c0.2,2.4-0.6,4.6-0.4,7c0.1,1.7,1.2,3.3,2.3,4.6c1.4,1.8,2.6,3.1,3.3,5.4c0.5,1.7,0.9,3.6,0.5,5.4c-0.4,1.8-1.5,3.5-3.2,4.1
					c0.6-1.7,0.4-3.7-0.7-5.1c0.4,1.6-0.1,3.3-0.9,4.7c-0.9,1.4,0.4,3.1-1,4.1c-3,2.2-3.3,7.6-7,7.6c-4,0-13.9-5.8-17.8-4.8
					c-1.1,0.3-2.1,0.8-3.2,1.2c-1.8,0.7-3.7,1.2-5.6,1.5c-1.8,0.3-3.7,0.2-5.5,0.4c-2.9,0.4-6-0.3-8.5-2c-3.1-2.2-5.2-6.6-5.1-10.4
					c-0.5,0.6-1,1.6-1.2,3c-1.7-2.1-2.4-5-1.7-7.6c0.5-2.1,1.9-3.9,2-6.1c0.1-1.8-0.6-3.6-0.8-5.5c-0.5-4.3,2.5-8.7,6.7-9.8
					C96.3,67.6,97.3,64.9,98.1,63.8z"/>
				<path class="st16" d="M98.2,87c2.5-1.1,4.7-0.2,6.2,2.5c1.3,2.3,3.7,1.4,3-2.2c5.6-5.7-1.2-8.9,3.3-14.4
					c2.8-3.4,9.2-2.7,11.8-0.7c1-2.1,4.1-4,7-3.1c2.7,0.8,4.4,2.4,5.8,6c1.5,3.8,0.1,4.5,0.8,7.2c0.3,1,1.4,3.1,1.5,5.7
					c0.6,12.7-1.9,15.9-4.6,18.1c-1.9,1.5-4.3,2.3-8.5,2.5l0.4,5.5c0,0,5.4,6,6.3,14.7c-12-3.1-18.3-7.2-25.4-12.5l-1.2-18.3l0,0
					c-0.5,1.5-3.4,3.1-6.5,0.8C94.5,96,93.7,88.9,98.2,87z"/>
				<g>
					<path id="XMLID_00000033366248931052025410000018169781746201085853_" class="st15" d="M134,80.8l-4.1-1.5
						c0.4-1.2,1.6-1.8,2.7-1.3C133.8,78.3,134.4,79.6,134,80.8z"/>
					<path id="XMLID_00000036234380584697914700000004317504883262550945_" class="st15" d="M117.9,79.7l-3.8,2.2
						c-0.7-1-0.4-2.4,0.7-3C115.9,78.4,117.3,78.7,117.9,79.7z"/>
					<path id="XMLID_00000113336136476660679250000013530066258956756884_" class="st22" d="M120.2,94.8l6.1,1.9
						c-0.5,1.7-2.4,2.7-4.3,2C120.3,98.1,119.7,96.5,120.2,94.8z"/>
					<path class="st19" d="M123.7,98.9c-0.2-1.7-1.7-3-3.4-3c-0.1,0-0.2,0-0.3,0c0,1.2,0.7,2.3,2,2.8
						C122.6,98.9,123.2,99,123.7,98.9z"/>
					<polygon id="XMLID_00000139289176494760495880000002534774112474327736_" class="st17" points="124.3,81.7 123.8,92.8 
						128.8,92.3 					"/>
					<circle class="st6" cx="117.4" cy="85.2" r="1.8"/>
					<circle class="st6" cx="131.7" cy="84.4" r="1.8"/>
				</g>
				<g id="XMLID_00000142141013328841479990000004630061490463078836_">
					<path id="XMLID_00000123440620339416128760000018410780815538728624_" class="st17" d="M124.6,108.6c-4.1-0.1-11-0.1-14.5-4.6
						c0,0,0.5,2.7,4.7,4.7c3,1.4,9.8,1.8,9.8,1.8L124.6,108.6z"/>
				</g>
			</g>
			<g>
				<path class="st16" d="M184.4,170.6c-0.4,0.7-1.2,1-1.5,1.7c-0.1,0.3-0.1,0.7,0,1.1c0.1,1-0.4,2-1.1,2.7
					c-0.2,0.2-0.5,0.4-0.7,0.7c-0.2,0.3-0.2,0.6-0.3,0.9c-0.3,1.4-1.3,2.6-2.3,3.6c-0.5,0.4-1,0.8-1.5,1.2c-1.3,0.9-2.8,1.7-4.2,2.2
					c-3,1-8,1.4-11.1,1.5c-4,0-7.7-1-13.9-0.6c-9.2,0.5-28.2,0.9-34.5,0.7c-6.3-0.1-8.9-0.6-12.8-8.4c-3.1-6.2-4-8.1-10.2-22.2
					c-8.1-18.6-8.1-29.4,3-34.5c6,1.8,10.1,9,13.1,16.7c3.5,8.9,11.7,28.4,11.7,28.4s28.2,2.9,33.2,2.7c4.6-0.2,8.8-2.2,13.1-3.7
					c1.3-0.4,2.5-1,3.8-1.4l1.9,4c-0.3,0.5-0.7,0.9-1.2,1.3c-0.6,0.5-1.9,1.5-1,2.2c0.8,0.7,2.4,0.4,3.8-0.1
					c0.9-0.3,1.7-0.6,2.3-0.8c2.2-0.7,4.4-1.6,6.7-2c1.1-0.2,2.4-0.2,3.3,0.5C184.6,169.3,184.7,169.9,184.4,170.6z"/>
				<path class="st17" d="M170,167.7c-0.3,0.7-0.9,1.2-1.4,1.8c-0.5,0.5-1,1.2-0.6,1.4c1,0.7,2.7,0,3.8-0.4c2.8-0.9,5.7-2,8.7-2.1
					c-2.8,0.9-5.5,2.2-8.4,3.1c-1.1,0.4-2.3,0.7-3.5,0.5c-1-0.1-2-1.1-1.3-2C168.1,169,169.2,168.6,170,167.7L170,167.7z"/>
				<path class="st17" d="M118.1,166.2c8.4,0.4,17.1,1.2,25.4,1.8c2.1,0.2,4.2,0.3,6.3,0.4c4.2,0.2,8.3-1.3,12.2-2.7l6-2
					c-5.9,2.4-11.8,5.7-18.3,5.6C139.2,168.9,128.6,167.7,118.1,166.2L118.1,166.2z"/>
			</g>
		</g>
	</g>
</g>
<g id="Shapes">
	<g id="Abstract_Forms">
		<g>
			<path class="st4" d="M261.7,346.3c-8.4-4.6-18.4-5.4-27.8-3.9c-9.4,1.5-18.3,5.3-26.8,9.7c-3.3,1.7-7,3.5-10.5,2.4
				c-3.6-1.2-5.6-5.3-5.3-9.1c0.3-3.8,2.5-7.2,5.2-9.9c9.6-10,25.4-13.7,38.6-9.4C246.7,330,255.3,337.6,261.7,346.3"/>
			<path class="st23" d="M261.7,346.3c-8.4-4.6-18.4-5.4-27.8-3.9c-9.4,1.5-18.3,5.3-26.8,9.7c-3.3,1.7-7,3.5-10.5,2.4
				c-3.6-1.2-5.6-5.3-5.3-9.1c0.3-3.8,2.5-7.2,5.2-9.9c9.6-10,25.4-13.7,38.6-9.4C246.7,330,255.3,337.6,261.7,346.3"/>
		</g>
		<g>
			<path class="st4" d="M207.1,318.4c1.8-0.4,3.7-0.5,5.5-0.4c0.8,0.1,1.6,0.2,2.5,0.3c0.9,0.1,1.8,0.3,2.6,0.6
				c-0.2-0.4-0.8-1-1.1-1.3c-1.5-1.4-2.6-2.2-4.1-3.1c-1.6-0.9-3.3-1.6-5-2.3c-3.5-1.3-7.1-2.1-10.8-2.4c-3.7-0.3-7.3,0-10.9,0.7
				c-4.7,1-9.6,3.2-12,7.5c-1.1,2-1.6,4.5-0.5,6.5c0.8,1.5,2.4,2.6,4.2,3c1.7,0.4,3.5,0.2,5.2-0.1c4.3-0.8,8.3-2.7,12.2-4.5
				C198.8,321.1,202.8,319.2,207.1,318.4z"/>
			<path class="st24" d="M207.1,318.4c1.8-0.4,3.7-0.5,5.5-0.4c0.8,0.1,1.6,0.2,2.5,0.3c0.9,0.1,1.8,0.3,2.6,0.6
				c-0.2-0.4-0.8-1-1.1-1.3c-1.5-1.4-2.6-2.2-4.1-3.1c-1.6-0.9-3.3-1.6-5-2.3c-3.5-1.3-7.1-2.1-10.8-2.4c-3.7-0.3-7.3,0-10.9,0.7
				c-4.7,1-9.6,3.2-12,7.5c-1.1,2-1.6,4.5-0.5,6.5c0.8,1.5,2.4,2.6,4.2,3c1.7,0.4,3.5,0.2,5.2-0.1c4.3-0.8,8.3-2.7,12.2-4.5
				C198.8,321.1,202.8,319.2,207.1,318.4z"/>
		</g>
		<g>
			<path class="st4" d="M204.1,301.2c7.4,6.9,15.9,11.1,25.2,14.7c-5.3-5.7-8.8-12.6-11.5-19.9c-2.7-7.3-3.5-15-4.9-22.6
				c-0.8-4.3-2.2-8.6-5.1-11.9c-2.9-3.3-7.6-5.2-11.8-3.9c-3.7,1.1-6.3,4.6-7.3,8.3c-1,3.7-0.5,7.6,0.4,11.3
				C191.6,286.6,197.1,294.7,204.1,301.2z"/>
		</g>
		<g class="st25">
			<path class="st10" d="M204.1,301.2c7.4,6.9,15.9,11.1,25.2,14.7c-5.3-5.7-8.8-12.6-11.5-19.9c-2.7-7.3-3.5-15-4.9-22.6
				c-0.8-4.3-2.2-8.6-5.1-11.9c-2.9-3.3-7.6-5.2-11.8-3.9c-3.7,1.1-6.3,4.6-7.3,8.3c-1,3.7-0.5,7.6,0.4,11.3
				C191.6,286.6,197.1,294.7,204.1,301.2z"/>
		</g>
		<g>
			<path class="st4" d="M195.4,255.1c-4,1.5-7.2,4.9-8.4,9c-0.2,0.7-0.5,1.6-1.3,1.7c-0.9,0.1-1.4-0.9-1.5-1.8
				C183.4,257.4,190.6,255.2,195.4,255.1z"/>
		</g>
		<g>
			<path class="st4" d="M298.2,313.1c-8.9,6.5-17.6,15.6-20.7,26.5c-3.1-17.8,2.5-37.4,12.4-52.1c9.5-14.2,27.2-27.4,45.2-20.1
				c4.6,1.9,8.4,6,8.9,11c0.4,4.4-1.9,8.6-5,11.6c-3.2,3-7.1,5-11.1,6.9C317.7,301.8,307.3,306.4,298.2,313.1z"/>
			<path class="st14" d="M298.2,313.1c-8.9,6.5-17.6,15.6-20.7,26.5c-3.1-17.8,2.5-37.4,12.4-52.1c9.5-14.2,27.2-27.4,45.2-20.1
				c4.6,1.9,8.4,6,8.9,11c0.4,4.4-1.9,8.6-5,11.6c-3.2,3-7.1,5-11.1,6.9C317.7,301.8,307.3,306.4,298.2,313.1z"/>
		</g>
		<g>
			<path class="st4" d="M264.2,247.8c0.5,7.5,4.1,16.5,6.1,22.3c3,8.8,5.8,18.2,3.4,27.1c6.3-8.1,12.3-17.5,15.1-27.5
				c2.9-10.5,2.6-22.5-5.4-30.8c-5.2-5.4-16.1-5.8-18.6,2.6C264.2,243.5,264,245.6,264.2,247.8z"/>
			<path class="st23" d="M264.2,247.8c0.5,7.5,4.1,16.5,6.1,22.3c3,8.8,5.8,18.2,3.4,27.1c6.3-8.1,12.3-17.5,15.1-27.5
				c2.9-10.5,2.6-22.5-5.4-30.8c-5.2-5.4-16.1-5.8-18.6,2.6C264.2,243.5,264,245.6,264.2,247.8z"/>
		</g>
		<path class="st4" d="M330.2,256.8c-2.7-0.5-5.5-0.3-8,0.7c-2.8,1.2-5.3,3.3-6.8,6c2.7-1.5,6.9-2.9,13.9-1.9
			c6.7,1,10.7,4.1,12.1,5.9c-0.1-3.3-2.8-6.9-5.7-8.6C334.1,257.9,332.2,257.2,330.2,256.8z"/>
	</g>
</g>
<g id="Text_icon">
	<g id="Speech_Bubble_00000181050903827743498970000004166392793472437410_">
		<g id="Speech_Bubble_00000049219714973625284510000009416108167402111123_">
			<g>
				<path class="st9" d="M382.3,277l1.7-5.9c-0.7-3.4,13.1,4.6,13.8,8l-4.4,12c-0.2,0.4-0.4,0.7-0.7,0.9c-1,0.6-7.6,4.3-7.9,4.5
					c-1,0.6-2.4,0.2-2.8-1.1l-5.8-19.8C375.7,274,378.9,275.1,382.3,277z"/>
			</g>
			<g id="XMLID_00000074420479117377207590000008176393305257664150_">
				<path id="XMLID_00000088094855007050757790000015335124883385852594_" class="st9" d="M366.5,194.8l52.5,30.3
					c1,0.6,1.8,1.9,1.8,3.1v62.2c0,1.1-0.8,2.5-1.8,3.1l-6.2,3.5c-1,0.6-2.6,0.5-3.6,0l-52.5-30.3c-1-0.6-1.8-1.9-1.8-3.1v-62.2
					c0-1.1,0.8-2.5,1.8-3.1l6.2-3.5C364,194.3,365.6,194.3,366.5,194.8z"/>
				<g>
					<path class="st0" d="M356.7,200.4l52.5,30.3c1,0.6,1.8,1.9,1.8,3.1v62.2c0,1.1-0.8,1.6-1.8,1l-20.1-11.6l-3.7,10.2
						c-0.7,1.6-3.1,1.5-3.6-0.2l-4.9-17.1l-20.2-11.7c-1-0.6-1.8-1.9-1.8-3.1v-62.2C355,200.3,355.8,199.8,356.7,200.4z"/>
					<path class="st9" d="M356,201c0,0,0.2,0,0.4,0.1l52.5,30.3c0.7,0.4,1.3,1.5,1.3,2.3v62.2c0,0.3-0.1,0.4-0.1,0.4
						c0,0-0.2,0-0.4-0.1l-20.1-11.6l-0.9-0.5l-0.3,1l-3.7,10.2c-0.3,0.6-0.8,0.6-1,0.6c-0.4,0-0.8-0.2-1-0.7l-4.9-17.1l-0.1-0.3
						l-0.3-0.2l-20.2-11.7c-0.7-0.4-1.3-1.5-1.3-2.3v-62.2C355.8,201.1,355.9,201,356,201C355.9,201,355.9,201,356,201 M356,200.2
						c-0.6,0-1,0.5-1,1.3v62.2c0,1.1,0.8,2.5,1.8,3.1l20.2,11.7l4.9,17.1c0.3,0.9,1.1,1.3,1.8,1.3c0.7,0,1.4-0.4,1.8-1.2l3.7-10.2
						l20.1,11.6c0.3,0.2,0.6,0.2,0.8,0.2c0.6,0,1-0.5,1-1.3v-62.2c0-1.1-0.8-2.5-1.8-3.1l-52.5-30.3
						C356.5,200.2,356.2,200.2,356,200.2L356,200.2z"/>
				</g>
				<path id="XMLID_00000052101518657905617250000006905583887445345432_" class="st5" d="M355,201.1c0.1-0.9,0.9-1.2,1.8-0.7
					l52.5,30.3c0.5,0.3,0.9,0.8,1.3,1.3l9.8-5.6c-0.3-0.5-0.7-1-1.2-1.3l-52.5-30.3c-1-0.6-2.6-0.6-3.6,0l-6.2,3.5
					C355.9,198.9,355.1,200,355,201.1z"/>
			</g>
		</g>
		<g id="XMLID_00000065771039049971360830000011597422131845443775_">
			<path class="st5" d="M367.8,220.2v15.2l1.4,0.8c0,0,0-2.2,0-4.8c0-2.6,2.1-3.5,4.7-2l6.4,3.7v27.3c0,3-1.8,4.4-4.1,3.1
				c-2.3-1.3-4-2.3-4-2.3v1.6l21.9,12.6v-1.6l-4-2.3c-2.3-1.3-4.1-4.8-4.1-7.8v-27.3l6.4,3.7c2.6,1.5,4.7,4.8,4.7,7.4v4.8l1.4,0.8
				v-15.2L367.8,220.2z"/>
		</g>
	</g>
</g>
</svg>
